<?xml version="1.0" encoding="UTF-8"?>
<svg id="book-worm" xmlns="http://www.w3.org/2000/svg" viewBox="0 0 379 379">
  <rect width="379" height="379" fill="#1f122f"/>
  <g>
    <path d="M168.37,270.3c3.32,8.43,11.53,14.43,21.13,14.43s17.81-5.99,21.13-14.43h-42.26Z" fill="#b948c4"/>
    <g>
      <path d="M313.57,155.05v73.27c0,2.9-1.94,5.45-4.73,6.23l-105.43,29.29h125.65v-108.78h-15.49Z" fill="#b948c4"/>
      <path d="M70.16,234.55c-2.8-.78-4.73-3.32-4.73-6.23v-73.27h-15.49v108.78h125.65l-105.43-29.29Z" fill="#b948c4"/>
    </g>
    <path d="M142.61,224.6c-1.26-1.22-1.97-2.89-1.97-4.64v-104.02l-30.5-15.15v120.78l60.26,29.94-27.79-26.9Z" fill="#b948c4"/>
    <path d="M238.36,115.94v104.02c0,1.75-.71,3.43-1.97,4.64l-27.79,26.9,33.81-16.8,26.45-13.14v-120.78l-30.5,15.15Z" fill="#b948c4"/>
    <path d="M275.32,137.06v84.5c0,2.45-1.39,4.7-3.59,5.79l-49.28,24.48,84.66-23.52v-100.08l-31.79,8.83Z" fill="#b948c4"/>
    <path d="M107.27,227.35c-2.2-1.09-3.59-3.33-3.59-5.79v-84.5l-31.79-8.83v100.08l58.8,16.34,25.86,7.18-49.28-24.48Z" fill="#b948c4"/>
    <g>
      <polygon points="186.27 132.18 147.11 94.27 147.11 219.96 168.3 240.47 186.27 257.86 186.27 132.18" fill="#b948c4"/>
      <polygon points="192.73 132.18 192.73 257.86 231.89 219.96 231.89 94.27 192.73 132.18" fill="#b948c4"/>
    </g>
  </g>
</svg>