<?xml version="1.0" encoding="UTF-8"?>
<svg id="coffeebreak" xmlns="http://www.w3.org/2000/svg" viewBox="0 0 379 379">
  <rect y="-.03" width="379" height="379" fill="#845a42"/>
  <g>
    <g>
      <path d="M189.5,54.81c-74.25,0-134.66,60.41-134.66,134.66s60.41,134.66,134.66,134.66,134.65-60.41,134.65-134.66S263.75,54.81,189.5,54.81Z" fill="#d6d1b7"/>
      <path d="M189.5,42.31c-81.27,0-147.16,65.88-147.16,147.16s65.89,147.16,147.16,147.16,147.15-65.88,147.15-147.16S270.77,42.31,189.5,42.31ZM189.5,329.14c-77.01,0-139.67-62.66-139.67-139.67S112.49,49.8,189.5,49.8s139.67,62.66,139.67,139.67-62.66,139.67-139.67,139.67Z" fill="#d6d1b7"/>
      <path d="M189.5,28.05C100.35,28.05,28.09,100.32,28.09,189.47s72.27,161.42,161.42,161.42,161.41-72.27,161.41-161.42S278.65,28.05,189.5,28.05ZM189.5,342.67c-84.48,0-153.2-68.73-153.2-153.2S105.02,36.26,189.5,36.26s153.2,68.73,153.2,153.2-68.73,153.2-153.2,153.2Z" fill="#d6d1b7"/>
      <g>
        <path d="M76.27,248.31c-.48-.61-.93-1.24-1.34-1.9-.87-1.41-1.54-2.88-2.1-4.39-1.98-3.01-3.47-6.41-4.01-9.89-.24-1.52-.36-3.04-.41-4.56-.03-.07-.06-.14-.09-.21-.08-.18-.13-.35-.18-.52-1.25.59-2.62.89-4.02.87.02,0,.04,0,.06,0,.8,2.1,1.61,4.4,2.4,6.88,1.11,3.39,2.1,7.11,3.04,11.09.62,2.59,1.14,5.3,1.61,8.09,2.41,4.41,5.06,8.67,7.93,12.77-.28-3.15-.65-6.26-1.15-9.27-.51-3.08-1.08-6.08-1.73-8.96Z" fill="#845a42"/>
        <path d="M60.92,227.06c-.3-.13-.59-.27-.86-.43,1.2,4.16,2.59,8.24,4.16,12.22-.26-1.15-.54-2.29-.82-3.37-.79-3.09-1.64-5.91-2.48-8.42Z" fill="#845a42"/>
        <path d="M292.55,204.16c7.59,4.35,9.48,20.95-7.31,22.63.3,17.23-20.32,15.74-20.32,15.74,0,0-12.91,37.14-27.7,10.95-14.25,8.66-26.95-13.64-26.95-13.64,0,0-9.01-1.4-13.08-1.46-.4,0-.77-.07-1.1-.18-1.93,1.06-3.87,2.12-5.8,3.19h-3.47c.49.37.97.75,1.46,1.12-2,1.11-3.99,2.23-5.98,3.34-.62-.52-1.24-1.03-1.88-1.52-1.25-1.01-2.53-1.99-3.82-2.95h-18.63c1.22,1.12,2.43,2.25,3.63,3.4,2.71,2.72,5.36,5.5,7.85,8.38-1.99,1.15-3.97,2.29-5.93,3.43-2.03-2.58-4.19-5.09-6.4-7.58-2.44-2.62-4.96-5.19-7.55-7.63h-13.72c1.1,1.16,2.18,2.34,3.25,3.54,3.11,3.66,6.16,7.4,8.87,11.29,1.41,1.91,2.64,3.92,3.95,5.84.2.33.4.65.6.98-2.16,1.27-4.28,2.53-6.37,3.78-.19-.35-.38-.7-.56-1.05-1.14-1.89-2.19-3.86-3.43-5.75-2.36-3.84-5.06-7.56-7.84-11.22-.97-1.22-1.96-2.43-2.96-3.62-1.03,2.04-2.23,3.93-3.65,5.58-.83.97-1.71,1.87-2.64,2.7,1.84,3.02,3.6,6.09,5.16,9.21,1.12,2.09,2.05,4.25,3.07,6.34.62,1.48,1.27,2.94,1.87,4.4-2.28,1.38-4.51,2.73-6.67,4.05-.61-1.88-1.34-3.75-2.01-5.67-.85-2.03-1.61-4.13-2.57-6.17-1.23-2.85-2.63-5.66-4.11-8.45-2.55,1.4-5.27,2.39-8.1,3.01,1.11,2.69,2.14,5.42,3.06,8.15.73,2.18,1.37,4.37,1.99,6.54.54,2.19,1.18,4.33,1.59,6.48.15.69.3,1.38.44,2.07-2.57,1.59-5.02,3.11-7.33,4.55-.18-1.71-.44-3.44-.72-5.19-.27-2.05-.76-4.09-1.14-6.19-.47-2.07-.95-4.18-1.52-6.27-.85-3.14-1.85-6.28-2.97-9.39-3.65.05-7.33-.49-10.89-1.57h0c.82,2.43,1.59,4.9,2.29,7.43,1.31,4.75,2.5,9.63,3.33,14.59.49,2.47.76,4.97,1.13,7.46.07.73.15,1.47.22,2.2,23.66,20.6,54.55,33.08,88.31,33.08,71.37,0,129.93-55.81,134.37-126.07-5.69,1.77-16.28,3.16-23.92-2.15,2.18,3.02,1.18,7.67-7.41,8.26Z" fill="#845a42"/>
        <path d="M91.26,268.09c-.82-3.76-1.83-7.43-2.89-11,0,0,0,0,0,0-2.24-1.02-4.45-2.21-6.49-3.62.23.97.46,1.95.68,2.95.97,4.36,1.7,8.92,2.29,13.59.19,1.55.33,3.11.46,4.67,2.72,3.33,5.6,6.52,8.63,9.56-.07-.65-.15-1.31-.24-1.96-.54-4.79-1.43-9.54-2.45-14.19Z" fill="#845a42"/>
        <g>
          <g>
            <path d="M148.03,179.84c4.47-6.78,2.12-16.93,2.12-16.93,11.49,5.73,9.44,17.14,3.31,29.43-6.13,12.28-14.6,20.5-25.5,15.06.74-13.19,13.07-16.94,20.06-27.56Z" fill="#845a42"/>
            <path d="M130.92,193.43c-4.87,6.5-2.89,14-2.89,14-11.49-5.73-9.44-17.15-3.32-29.43,6.13-12.29,14.6-20.5,25.5-15.06-2.04,20.13-10.94,19.34-19.3,30.49Z" fill="#845a42"/>
          </g>
          <g>
            <path d="M88.34,219.35c-2.46-7.74-11.83-12.3-11.83-12.3,11.68-5.33,19.27,3.44,24.97,15.93,5.7,12.49,6.76,24.24-4.32,29.3-9.79-8.87-4.96-20.82-8.82-32.93Z" fill="#845a42"/>
            <path d="M88.15,241.2c1.99,7.88,9.07,11.05,9.07,11.05-11.68,5.33-19.27-3.44-24.97-15.93-5.7-12.49-6.76-24.24,4.32-29.3,14.37,14.25,8.16,20.67,11.58,34.18Z" fill="#845a42"/>
          </g>
          <g>
            <path d="M119.47,216c3.93-1.14,6.35-5.79,6.35-5.79,2.53,5.95-1.99,9.65-8.36,12.36-6.36,2.7-12.29,3.07-14.69-2.57,4.6-4.81,10.55-2.21,16.7-3.99Z" fill="#845a42"/>
            <path d="M108.48,215.61c-3.99.9-5.68,4.41-5.68,4.41-2.53-5.95,1.99-9.65,8.35-12.35,6.36-2.7,12.29-3.08,14.69,2.57-7.37,7.04-10.52,3.83-17.36,5.37Z" fill="#845a42"/>
          </g>
          <g>
            <path d="M125.59,232.24c1.8-4.31-.62-9.8-.62-9.8,7.11,2.01,7.17,8.68,5.03,16.28-2.15,7.6-6.06,13.15-12.8,11.25-.99-7.53,5.57-10.98,8.39-17.73Z" fill="#845a42"/>
            <path d="M117.37,241.76c-2.06,4.2-.13,8.22-.13,8.22-7.11-2.01-7.18-8.68-5.03-16.28,2.15-7.6,6.06-13.15,12.8-11.25,1,11.6-4.11,12.11-7.64,19.31Z" fill="#845a42"/>
          </g>
          <g>
            <path d="M105.51,205.64c2.96-.04,5.53-2.83,5.53-2.83.63,4.63-3.22,6.35-8.17,7.02-4.95.67-9.15-.19-9.75-4.58,4.12-2.48,7.77.46,12.39.39Z" fill="#845a42"/>
            <path d="M97.92,203.28c-2.95-.13-4.8,2-4.8,2-.63-4.63,3.22-6.35,8.17-7.02,4.95-.67,9.15.19,9.75,4.58-6.47,3.51-8.06.67-13.12.44Z" fill="#845a42"/>
          </g>
          <g>
            <path d="M140.79,221.04c2.65,1.8,6.65.93,6.65.93-2.32,4.49-6.8,3.62-11.6,1.14-4.8-2.48-7.99-5.86-5.79-10.12,5.18.36,6.6,5.24,10.73,8.05Z" fill="#845a42"/>
            <path d="M135.54,214.23c-2.53-1.95-5.49-1.21-5.49-1.21,2.32-4.49,6.8-3.62,11.6-1.14,4.8,2.48,7.99,5.86,5.79,10.12-7.91-.91-7.55-4.41-11.89-7.76Z" fill="#845a42"/>
          </g>
          <g>
            <path d="M144.83,235.53c2.75,1.09,6.19-.5,6.19-.5-1.19,4.52-5.41,4.64-10.24,3.37-4.83-1.27-8.38-3.68-7.26-7.96,4.75-.72,7,3.39,11.3,5.1Z" fill="#845a42"/>
            <path d="M138.72,230.45c-2.68-1.25-5.2.01-5.2.01,1.19-4.52,5.41-4.64,10.24-3.37,4.83,1.27,8.38,3.68,7.26,7.96-7.32.77-7.7-2.46-12.29-4.61Z" fill="#845a42"/>
          </g>
          <g>
            <path d="M110.25,254.63c2.23-.39,3.84-2.8,3.84-2.8,1.03,3.42-1.68,5.18-5.34,6.28-3.66,1.1-6.94.95-7.91-2.3,2.82-2.36,5.93-.58,9.41-1.18Z" fill="#845a42"/>
            <path d="M104.23,253.75c-2.25.25-3.39,2.08-3.39,2.08-1.03-3.42,1.68-5.18,5.34-6.28,3.66-1.1,6.94-.95,7.92,2.3-4.47,3.42-6.01,1.47-9.86,1.9Z" fill="#845a42"/>
          </g>
          <g>
            <path d="M162.04,237.85c2.13,1.34,5.26.56,5.26.56-1.71,3.59-5.26,3.02-9.1,1.2-3.84-1.83-6.43-4.41-4.81-7.82,4.09.15,5.33,3.95,8.65,6.06Z" fill="#845a42"/>
            <path d="M157.73,232.63c-2.04-1.47-4.35-.81-4.35-.81,1.71-3.59,5.26-3.03,9.1-1.2,3.84,1.83,6.44,4.4,4.81,7.81-6.25-.52-6.06-3.28-9.56-5.8Z" fill="#845a42"/>
          </g>
          <g>
            <path d="M195.26,233.52c2.13,1.34,5.26.56,5.26.56-1.71,3.59-5.26,3.02-9.1,1.2-3.84-1.83-6.43-4.41-4.81-7.82,4.09.15,5.33,3.95,8.66,6.06Z" fill="#845a42"/>
            <path d="M190.94,228.3c-2.04-1.47-4.35-.81-4.35-.81,1.71-3.59,5.26-3.03,9.1-1.2,3.84,1.83,6.44,4.4,4.81,7.81-6.25-.52-6.06-3.28-9.56-5.8Z" fill="#845a42"/>
          </g>
          <g>
            <path d="M162.55,225.65c1.55-.34,2.6-2.07,2.6-2.07.82,2.36-1.02,3.67-3.54,4.55-2.53.88-4.82.87-5.6-1.37,1.9-1.74,4.12-.58,6.54-1.11Z" fill="#845a42"/>
            <path d="M158.31,225.22c-1.56.24-2.3,1.56-2.3,1.56-.82-2.36,1.02-3.67,3.54-4.55,2.53-.88,4.82-.87,5.6,1.37-3.02,2.53-4.15,1.21-6.84,1.62Z" fill="#845a42"/>
          </g>
          <g>
            <path d="M200.85,223.82c1.04-.23,1.76-1.4,1.76-1.4.55,1.59-.69,2.48-2.39,3.08-1.71.59-3.26.59-3.79-.93,1.28-1.17,2.79-.39,4.42-.75Z" fill="#845a42"/>
            <path d="M197.99,223.53c-1.06.16-1.56,1.05-1.56,1.05-.55-1.6.69-2.48,2.39-3.08,1.71-.59,3.26-.59,3.79.93-2.04,1.71-2.81.81-4.62,1.1Z" fill="#845a42"/>
          </g>
          <g>
            <path d="M116.58,183.05c1.24-.86,1.54-2.78,1.54-2.78,1.59,1.79.44,3.62-1.47,5.33-1.91,1.7-3.95,2.53-5.46.84,1.04-2.23,3.44-2.03,5.38-3.38Z" fill="#845a42"/>
            <path d="M112.67,184.21c-1.3.79-1.47,2.22-1.47,2.22-1.59-1.79-.44-3.62,1.47-5.33,1.91-1.7,3.95-2.54,5.46-.84-1.75,3.34-3.24,2.59-5.46,3.94Z" fill="#845a42"/>
          </g>
          <g>
            <path d="M153.98,204.58c1.32-2.19.45-5.35.45-5.35,3.69,1.66,3.19,5.27,1.42,9.22-1.77,3.94-4.33,6.63-7.83,5.06.07-4.16,3.9-5.49,5.96-8.92Z" fill="#845a42"/>
            <path d="M148.77,209.08c-1.45,2.11-.73,4.44-.73,4.44-3.69-1.66-3.19-5.28-1.41-9.22,1.77-3.94,4.33-6.63,7.83-5.06-.39,6.36-3.2,6.22-5.69,9.84Z" fill="#845a42"/>
          </g>
          <g>
            <path d="M90.96,197.17c1.98-1.37,2.45-4.42,2.45-4.42,2.53,2.84.71,5.76-2.33,8.46-3.04,2.7-6.27,4.03-8.67,1.33,1.66-3.55,5.46-3.22,8.56-5.37Z" fill="#845a42"/>
            <path d="M84.76,199.02c-2.06,1.25-2.34,3.53-2.34,3.53-2.53-2.84-.71-5.76,2.33-8.46,3.04-2.7,6.27-4.03,8.67-1.33-2.78,5.31-5.14,4.11-8.67,6.26Z" fill="#845a42"/>
          </g>
          <g>
            <path d="M176.31,233.76c2.16,2.93,6.8,3.52,6.8,3.52-4.19,3.95-8.68,1.32-12.9-3.17-4.22-4.48-6.37-9.32-2.39-13.07,5.44,2.35,5.11,8.13,8.49,12.72Z" fill="#845a42"/>
            <path d="M173.24,224.45c-1.98-3.06-5.44-3.38-5.44-3.38,4.19-3.95,8.68-1.32,12.9,3.17,4.22,4.48,6.36,9.32,2.39,13.07-8.16-3.98-6.45-7.6-9.84-12.85Z" fill="#845a42"/>
          </g>
          <g>
            <path d="M110.39,195.66c2.3,1.31,5.55.34,5.55.34-1.63,3.85-5.38,3.42-9.5,1.68-4.12-1.74-6.96-4.33-5.42-7.99,4.3-.03,5.78,3.9,9.37,5.96Z" fill="#845a42"/>
            <path d="M105.61,190.37c-2.21-1.45-4.61-.65-4.61-.65,1.63-3.85,5.38-3.42,9.5-1.68,4.12,1.74,6.97,4.33,5.42,7.99-6.59-.25-6.51-3.16-10.31-5.65Z" fill="#845a42"/>
          </g>
        </g>
        <g>
          <g>
            <path d="M224.98,238.82c3.83,7.17,13.87,9.94,13.87,9.94-10.51,7.36-19.57.12-27.45-11.12-7.88-11.24-11.06-22.61-1.08-29.6,11.24,6.94,8.66,19.57,14.65,30.78Z" fill="#845a42"/>
            <path d="M221.19,217.3c-3.39-7.38-10.93-9.21-10.93-9.21,10.51-7.37,19.57-.12,27.45,11.12,7.88,11.24,11.06,22.61,1.08,29.6-16.72-11.4-11.78-18.84-17.6-31.5Z" fill="#845a42"/>
          </g>
          <g>
            <path d="M262.78,228.19c3.06,5.73,11.1,7.95,11.1,7.95-8.41,5.89-15.66.1-21.96-8.9-6.3-9-8.85-18.09-.86-23.68,8.99,5.55,6.93,15.66,11.72,24.62Z" fill="#845a42"/>
            <path d="M259.75,210.97c-2.72-5.91-8.74-7.37-8.74-7.37,8.41-5.89,15.66-.1,21.96,8.9,6.3,9,8.84,18.09.86,23.68-13.38-9.12-9.43-15.08-14.08-25.21Z" fill="#845a42"/>
          </g>
          <g>
            <path d="M284.8,215.24c1.85,3.47,6.72,4.81,6.72,4.81-5.09,3.57-9.48.06-13.29-5.39-3.81-5.44-5.35-10.95-.52-14.33,5.44,3.36,4.19,9.47,7.1,14.9Z" fill="#845a42"/>
            <path d="M282.97,204.82c-1.64-3.58-5.29-4.46-5.29-4.46,5.09-3.57,9.48-.06,13.29,5.39,3.81,5.44,5.35,10.95.52,14.33-8.1-5.52-5.71-9.12-8.52-15.25Z" fill="#845a42"/>
          </g>
          <g>
            <path d="M206.27,175.88c6.39,5.02,16.7,3.51,16.7,3.51-6.66,10.97-17.87,7.99-29.6.87-11.74-7.12-19.22-16.24-12.9-26.66,13.08,1.83,15.81,14.42,25.81,22.27Z" fill="#845a42"/>
            <path d="M194.14,157.7c-6.08-5.39-13.71-4.03-13.71-4.03,6.66-10.98,17.87-7.99,29.6-.88,11.74,7.12,19.22,16.24,12.9,26.66-19.9-3.7-18.37-12.5-28.8-21.75Z" fill="#845a42"/>
          </g>
          <g>
            <path d="M196.37,201.79c-.88,4,2.06,8.34,2.06,8.34-6.44-.62-7.54-6.35-6.87-13.24.66-6.88,3.16-12.27,9.27-11.69,2.03,6.33-3.08,10.32-4.45,16.58Z" fill="#845a42"/>
            <path d="M201.96,192.31c1.12-3.94-1.17-7.1-1.17-7.1,6.44.62,7.54,6.35,6.87,13.23-.66,6.88-3.16,12.27-9.27,11.69-2.68-9.83,1.65-11.07,3.56-17.82Z" fill="#845a42"/>
          </g>
          <g>
            <path d="M165.43,202.04c-1.37,6.24,3.22,13.02,3.22,13.02-10.04-.96-11.76-9.91-10.73-20.65,1.03-10.74,4.93-19.15,14.46-18.23,3.17,9.88-4.81,16.11-6.95,25.87Z" fill="#845a42"/>
            <path d="M174.15,187.24c1.74-6.14-1.83-11.08-1.83-11.08,10.04.96,11.76,9.91,10.73,20.65-1.03,10.74-4.93,19.15-14.46,18.23-4.18-15.34,2.57-17.27,5.56-27.8Z" fill="#845a42"/>
          </g>
          <g>
            <path d="M245.98,249.51c-2.44,3.28-1.55,8.45-1.55,8.45-5.61-3.21-4.26-8.89-.82-14.89,3.43-6,7.93-9.89,13.25-6.84-.75,6.61-7.06,8.14-10.88,13.28Z" fill="#845a42"/>
            <path d="M254.97,243.16c2.64-3.13,1.85-6.95,1.85-6.95,5.61,3.21,4.26,8.89.82,14.89-3.43,6-7.93,9.89-13.25,6.84,1.6-10.06,6.06-9.41,10.58-14.78Z" fill="#845a42"/>
          </g>
          <g>
            <path d="M231.61,162.47c2.93,3.64,8.91,4.13,8.91,4.13-5.15,5.29-11.05,2.17-16.71-3.34-5.66-5.51-8.67-11.59-3.78-16.62,7.09,2.72,6.99,10.13,11.58,15.83Z" fill="#845a42"/>
            <path d="M227.17,150.71c-2.71-3.81-7.16-4.04-7.16-4.04,5.15-5.29,11.05-2.17,16.71,3.34,5.66,5.51,8.67,11.59,3.78,16.62-10.68-4.65-8.68-9.39-13.33-15.92Z" fill="#845a42"/>
          </g>
          <g>
            <path d="M215.21,197.83c-1.37,2.62-.15,6.21-.15,6.21-4.37-1.65-4.05-5.86-2.28-10.53,1.77-4.67,4.53-7.95,8.68-6.38.21,4.8-4.11,6.61-6.25,10.71Z" fill="#845a42"/>
            <path d="M220.9,192.29c1.53-2.53.53-5.17.53-5.17,4.37,1.65,4.05,5.86,2.28,10.53-1.77,4.67-4.53,7.95-8.68,6.38,0-7.36,3.25-7.4,5.87-11.74Z" fill="#845a42"/>
          </g>
          <g>
            <path d="M231.94,176.36c-3.99.81-6.76,5.24-6.76,5.24-2.03-6.1,2.75-9.42,9.27-11.59,6.53-2.17,12.44-2.07,14.37,3.73-4.94,4.4-10.64,1.35-16.88,2.63Z" fill="#845a42"/>
            <path d="M242.82,177.62c4.03-.57,5.99-3.93,5.99-3.93,2.03,6.11-2.75,9.42-9.27,11.59-6.53,2.17-12.44,2.07-14.37-3.73,7.87-6.4,10.74-2.96,17.65-3.93Z" fill="#845a42"/>
          </g>
          <g>
            <path d="M297.93,173.67c-3.99.81-6.76,5.24-6.76,5.24-2.03-6.1,2.75-9.42,9.27-11.59,6.53-2.17,12.44-2.07,14.37,3.73-4.94,4.4-10.64,1.35-16.88,2.63Z" fill="#845a42"/>
            <path d="M308.81,174.94c4.03-.57,5.99-3.93,5.99-3.93,2.03,6.11-2.75,9.42-9.27,11.59-6.53,2.17-12.44,2.07-14.37-3.73,7.87-6.4,10.74-2.96,17.65-3.93Z" fill="#845a42"/>
          </g>
          <g>
            <path d="M247.74,153.1c-1.03-1.89-3.69-2.6-3.69-2.6,2.77-1.97,5.18-.07,7.29,2.89,2.11,2.96,2.97,5.96.34,7.83-2.99-1.81-2.33-5.16-3.94-8.12Z" fill="#845a42"/>
            <path d="M248.78,158.79c.91,1.95,2.91,2.42,2.91,2.42-2.77,1.97-5.18.07-7.29-2.89-2.11-2.96-2.97-5.96-.34-7.83,4.45,2.98,3.16,4.96,4.72,8.3Z" fill="#845a42"/>
          </g>
          <g>
            <path d="M170.95,158.1c-.87,2.1.32,4.77.32,4.77-3.46-.96-3.51-4.21-2.48-7.91,1.03-3.7,2.92-6.41,6.2-5.5.5,3.66-2.68,5.35-4.04,8.64Z" fill="#845a42"/>
            <path d="M174.92,153.46c.99-2.05.05-4,.05-4,3.46.96,3.51,4.21,2.48,7.91-1.03,3.7-2.91,6.41-6.2,5.5-.52-5.64,1.97-5.9,3.67-9.41Z" fill="#845a42"/>
          </g>
          <g>
            <path d="M184.24,210.11c-.72,2.14.63,4.71.63,4.71-3.5-.73-3.76-3.95-2.98-7.69.78-3.74,2.48-6.55,5.8-5.86.74,3.6-2.32,5.49-3.45,8.84Z" fill="#845a42"/>
            <path d="M187.88,205.24c.85-2.09-.21-3.97-.21-3.97,3.5.73,3.76,3.95,2.98,7.69-.78,3.74-2.48,6.55-5.8,5.86-.88-5.56,1.58-5.98,3.03-9.58Z" fill="#845a42"/>
          </g>
          <g>
            <path d="M186.27,196.73c-.56,1.66.48,3.64.48,3.64-2.7-.56-2.9-3.05-2.3-5.94.6-2.89,1.92-5.06,4.48-4.53.57,2.78-1.79,4.24-2.66,6.84Z" fill="#845a42"/>
            <path d="M189.09,192.96c.66-1.62-.17-3.07-.17-3.07,2.7.56,2.9,3.05,2.3,5.94-.6,2.89-1.92,5.06-4.48,4.53-.68-4.3,1.22-4.62,2.35-7.4Z" fill="#845a42"/>
          </g>
          <g>
            <path d="M191.16,217.8c-1.92,1.19-2.52,4.03-2.52,4.03-2.23-2.79-.38-5.44,2.61-7.82,2.99-2.38,6.09-3.47,8.2-.81-1.73,3.24-5.28,2.75-8.29,4.61Z" fill="#845a42"/>
            <path d="M197.07,216.38c1.99-1.07,2.37-3.2,2.37-3.2,2.23,2.79.38,5.44-2.61,7.82-2.98,2.38-6.08,3.47-8.2.82,2.88-4.84,5.03-3.6,8.45-5.44Z" fill="#845a42"/>
          </g>
          <g>
            <path d="M187.74,181.52c-1.35-1.5-3.93-1.57-3.93-1.57,2.1-2.4,4.71-1.19,7.27,1.05,2.56,2.24,4,4.79,2.01,7.07-3.12-1.01-3.24-4.2-5.35-6.55Z" fill="#845a42"/>
            <path d="M189.93,186.48c1.25,1.58,3.18,1.57,3.18,1.57-2.1,2.4-4.71,1.19-7.27-1.05-2.56-2.24-4-4.79-2.01-7.06,4.7,1.76,3.95,3.84,6.1,6.55Z" fill="#845a42"/>
          </g>
          <g>
            <path d="M168.27,170.39c-1.49,1.35-1.56,3.93-1.56,3.93-2.4-2.09-1.2-4.7,1.03-7.27,2.24-2.57,4.78-4.01,7.06-2.03-1,3.12-4.19,3.25-6.53,5.37Z" fill="#845a42"/>
            <path d="M173.22,168.19c1.57-1.26,1.56-3.18,1.56-3.18,2.4,2.09,1.2,4.7-1.03,7.27-2.23,2.57-4.78,4.01-7.06,2.03,1.74-4.71,3.83-3.96,6.53-6.12Z" fill="#845a42"/>
          </g>
          <g>
            <path d="M153.68,218.22c-1.6.99-2.1,3.35-2.1,3.35-1.86-2.33-.31-4.53,2.17-6.52,2.49-1.99,5.07-2.89,6.84-.68-1.44,2.7-4.41,2.29-6.91,3.84Z" fill="#845a42"/>
            <path d="M158.61,217.03c1.66-.89,1.97-2.66,1.97-2.66,1.86,2.33.31,4.53-2.17,6.52-2.49,1.99-5.07,2.89-6.84.68,2.4-4.04,4.19-3,7.04-4.53Z" fill="#845a42"/>
          </g>
          <g>
            <path d="M241.78,221.82c.17,1.51,1.71,2.68,1.71,2.68-2.33.55-3.4-1.34-3.98-3.83-.58-2.49-.35-4.68,1.87-5.2,1.46,1.98.14,3.99.4,6.34Z" fill="#845a42"/>
            <path d="M242.62,217.83c-.07-1.51-1.25-2.35-1.25-2.35,2.33-.55,3.4,1.34,3.98,3.83.58,2.49.35,4.68-1.87,5.2-2.1-3.13-.73-4.08-.86-6.67Z" fill="#845a42"/>
          </g>
          <g>
            <path d="M212.81,148.47c.17,1.51,1.71,2.68,1.71,2.68-2.33.55-3.4-1.34-3.98-3.83-.58-2.49-.34-4.68,1.87-5.2,1.46,1.98.14,3.99.4,6.35Z" fill="#845a42"/>
            <path d="M213.64,144.48c-.07-1.51-1.25-2.35-1.25-2.35,2.33-.54,3.4,1.34,3.98,3.83.58,2.49.35,4.68-1.87,5.2-2.11-3.13-.73-4.08-.86-6.67Z" fill="#845a42"/>
          </g>
          <g>
            <path d="M248.97,166.12c1.49.25,3.04-.93,3.04-.93-.1,2.39-2.2,2.91-4.76,2.8-2.56-.11-4.6-.93-4.5-3.19,2.3-.88,3.88.93,6.22,1.32Z" fill="#845a42"/>
            <path d="M245.36,164.24c-1.48-.34-2.6.57-2.6.57.1-2.39,2.2-2.91,4.76-2.81,2.56.11,4.6.93,4.5,3.2-3.58,1.18-4.13-.39-6.66-.97Z" fill="#845a42"/>
          </g>
          <g>
            <path d="M256.64,171.42c-1.03-1.89-3.69-2.6-3.69-2.6,2.77-1.97,5.18-.07,7.29,2.89,2.11,2.96,2.97,5.96.34,7.83-2.99-1.81-2.33-5.16-3.94-8.12Z" fill="#845a42"/>
            <path d="M257.68,177.12c.91,1.95,2.91,2.42,2.91,2.42-2.77,1.97-5.18.07-7.29-2.89-2.11-2.96-2.97-5.96-.34-7.83,4.45,2.98,3.15,4.96,4.72,8.3Z" fill="#845a42"/>
          </g>
          <g>
            <path d="M257.88,184.45c1.49.25,3.04-.93,3.04-.93-.1,2.39-2.2,2.91-4.76,2.8-2.56-.11-4.6-.93-4.5-3.2,2.3-.88,3.88.93,6.22,1.32Z" fill="#845a42"/>
            <path d="M254.26,182.57c-1.48-.34-2.6.57-2.6.57.1-2.39,2.2-2.91,4.76-2.81,2.56.11,4.6.93,4.5,3.2-3.58,1.18-4.13-.39-6.66-.97Z" fill="#845a42"/>
          </g>
          <g>
            <path d="M294.39,187.78c-1.03-1.89-3.69-2.6-3.69-2.6,2.77-1.97,5.18-.07,7.29,2.89,2.11,2.96,2.97,5.96.34,7.83-2.99-1.81-2.33-5.16-3.94-8.12Z" fill="#845a42"/>
            <path d="M295.43,193.47c.91,1.95,2.91,2.42,2.91,2.42-2.77,1.97-5.18.07-7.29-2.89-2.11-2.96-2.97-5.96-.34-7.83,4.45,2.98,3.16,4.96,4.72,8.3Z" fill="#845a42"/>
          </g>
          <g>
            <path d="M307.83,188.21c-3-.59-6.2,1.67-6.2,1.67.36-4.82,4.63-5.73,9.79-5.34,5.15.39,9.22,2.18,8.87,6.75-4.7,1.62-7.76-2.15-12.46-3.08Z" fill="#845a42"/>
            <path d="M315,192.25c2.96.77,5.29-.98,5.29-.98-.36,4.82-4.63,5.73-9.79,5.34-5.15-.39-9.22-2.18-8.87-6.75,7.31-2.15,8.3,1.06,13.37,2.39Z" fill="#845a42"/>
          </g>
          <g>
            <path d="M295.62,200.8c1.49.25,3.04-.93,3.04-.93-.1,2.39-2.2,2.91-4.76,2.8-2.56-.11-4.6-.93-4.5-3.2,2.3-.88,3.88.93,6.22,1.32Z" fill="#845a42"/>
            <path d="M292.01,198.92c-1.48-.34-2.6.57-2.6.57.1-2.39,2.2-2.91,4.76-2.81,2.56.11,4.6.93,4.5,3.2-3.58,1.18-4.13-.39-6.66-.97Z" fill="#845a42"/>
          </g>
          <g>
            <path d="M286.52,170.32c1.49.25,3.04-.93,3.04-.93-.1,2.39-2.2,2.91-4.76,2.8-2.56-.11-4.6-.93-4.5-3.2,2.3-.88,3.88.93,6.22,1.32Z" fill="#845a42"/>
            <path d="M282.91,168.44c-1.48-.34-2.6.57-2.6.57.1-2.39,2.2-2.91,4.76-2.81,2.56.11,4.6.93,4.5,3.2-3.58,1.18-4.13-.39-6.66-.97Z" fill="#845a42"/>
          </g>
          <g>
            <path d="M285.21,196.69c1.49.25,3.04-.93,3.04-.93-.1,2.39-2.2,2.91-4.76,2.8-2.56-.11-4.6-.93-4.5-3.2,2.3-.88,3.88.93,6.22,1.32Z" fill="#845a42"/>
            <path d="M281.59,194.82c-1.48-.34-2.6.57-2.6.57.1-2.39,2.2-2.91,4.76-2.81,2.56.11,4.6.93,4.5,3.2-3.58,1.18-4.13-.39-6.66-.97Z" fill="#845a42"/>
          </g>
          <g>
            <path d="M204.04,147.04c.63,1.37,2.47,2,2.47,2-2.04,1.26-3.65-.19-4.99-2.37-1.35-2.18-1.81-4.33.12-5.52,2.02,1.41,1.4,3.74,2.4,5.89Z" fill="#845a42"/>
            <path d="M203.57,142.99c-.55-1.41-1.94-1.83-1.94-1.83,2.04-1.26,3.65.19,4.99,2.37,1.35,2.18,1.81,4.33-.12,5.52-2.99-2.3-1.99-3.63-2.94-6.06Z" fill="#845a42"/>
          </g>
          <g>
            <path d="M196.05,144.2c.65.64,1.81.61,1.81.61-.88,1.14-2.09.66-3.31-.29-1.21-.95-1.93-2.06-1.09-3.14,1.43.37,1.57,1.81,2.58,2.82Z" fill="#845a42"/>
            <path d="M194.94,142.02c-.61-.68-1.48-.63-1.48-.63.88-1.14,2.09-.66,3.31.29,1.22.95,1.93,2.06,1.09,3.14-2.17-.67-1.88-1.63-2.92-2.8Z" fill="#845a42"/>
          </g>
          <g>
            <path d="M188.8,143.94c.96.54,2.3.13,2.3.13-.67,1.6-2.22,1.43-3.93.72-1.71-.71-2.9-1.78-2.27-3.29,1.78-.02,2.4,1.6,3.9,2.44Z" fill="#845a42"/>
            <path d="M186.81,141.76c-.92-.6-1.91-.26-1.91-.26.67-1.6,2.22-1.43,3.93-.72,1.71.71,2.9,1.78,2.27,3.3-2.73-.09-2.71-1.29-4.29-2.32Z" fill="#845a42"/>
          </g>
          <g>
            <path d="M179.04,147.19c2.12.82,4.74-.43,4.74-.43-.88,3.48-4.11,3.6-7.83,2.66-3.72-.94-6.46-2.76-5.63-6.06,3.64-.58,5.4,2.56,8.72,3.83Z" fill="#845a42"/>
            <path d="M174.31,143.33c-2.07-.94-3.99.05-3.99.05.88-3.48,4.12-3.6,7.83-2.66,3.72.94,6.46,2.76,5.63,6.06-5.61.64-5.93-1.83-9.47-3.45Z" fill="#845a42"/>
          </g>
          <g>
            <path d="M166.05,149.22c.17,1.51,1.71,2.68,1.71,2.68-2.33.55-3.4-1.34-3.98-3.83-.58-2.49-.34-4.68,1.87-5.2,1.46,1.98.14,3.99.4,6.34Z" fill="#845a42"/>
            <path d="M166.88,145.23c-.07-1.51-1.25-2.35-1.25-2.35,2.33-.55,3.4,1.34,3.98,3.83.58,2.49.34,4.68-1.87,5.2-2.1-3.13-.73-4.08-.86-6.68Z" fill="#845a42"/>
          </g>
          <g>
            <path d="M181.27,178.25c.12,1.09,1.24,1.94,1.24,1.94-1.68.39-2.45-.97-2.87-2.77-.42-1.8-.25-3.38,1.35-3.75,1.06,1.43.1,2.88.29,4.58Z" fill="#845a42"/>
            <path d="M181.87,175.37c-.05-1.09-.9-1.7-.9-1.7,1.68-.39,2.45.96,2.87,2.77.42,1.8.25,3.38-1.35,3.75-1.52-2.26-.53-2.95-.62-4.82Z" fill="#845a42"/>
          </g>
          <g>
            <path d="M175.57,174.43c-.59.92-.26,2.28-.26,2.28-1.56-.75-1.3-2.29-.49-3.96.8-1.66,1.93-2.78,3.41-2.07-.08,1.78-1.73,2.3-2.66,3.74Z" fill="#845a42"/>
            <path d="M177.85,172.57c.65-.88.37-1.89.37-1.89,1.56.75,1.3,2.29.49,3.96-.81,1.66-1.93,2.78-3.41,2.07.24-2.71,1.44-2.62,2.55-4.14Z" fill="#845a42"/>
          </g>
          <g>
            <path d="M182.62,221.81c1.02,1.12,2.96,1.17,2.96,1.17-1.57,1.81-3.54.9-5.47-.78-1.93-1.68-3.02-3.59-1.53-5.31,2.35.75,2.45,3.15,4.04,4.91Z" fill="#845a42"/>
            <path d="M180.97,218.08c-.95-1.18-2.39-1.18-2.39-1.18,1.57-1.81,3.54-.9,5.47.78,1.93,1.68,3.02,3.59,1.53,5.31-3.54-1.31-2.98-2.88-4.6-4.91Z" fill="#845a42"/>
          </g>
          <g>
            <path d="M246.72,231.52c.17,1.51,1.71,2.68,1.71,2.68-2.33.54-3.4-1.34-3.98-3.83-.58-2.49-.34-4.68,1.87-5.2,1.46,1.98.14,3.99.4,6.35Z" fill="#845a42"/>
            <path d="M247.55,227.54c-.07-1.52-1.25-2.35-1.25-2.35,2.33-.54,3.4,1.34,3.98,3.83.58,2.49.34,4.68-1.87,5.2-2.1-3.13-.73-4.08-.86-6.67Z" fill="#845a42"/>
          </g>
          <g>
            <path d="M250.26,196.4c2.62,1.7,6.52.78,6.52.78-2.17,4.43-6.57,3.67-11.31,1.35-4.74-2.33-7.92-5.56-5.85-9.77,5.07.25,6.55,4.99,10.65,7.65Z" fill="#845a42"/>
            <path d="M244.98,189.85c-2.51-1.86-5.39-1.08-5.39-1.08,2.18-4.43,6.57-3.67,11.31-1.35,4.74,2.33,7.92,5.56,5.85,9.77-7.75-.74-7.47-4.16-11.78-7.35Z" fill="#845a42"/>
          </g>
          <g>
            <path d="M272.36,198.36c2.97.97,6.5-.92,6.5-.92-.96,4.84-5.41,5.24-10.59,4.21-5.18-1.03-9.08-3.34-8.17-7.94,4.97-1.06,7.61,3.14,12.26,4.66Z" fill="#845a42"/>
            <path d="M265.58,193.38c-2.91-1.15-5.49.34-5.49.34.96-4.84,5.41-5.24,10.59-4.21,5.18,1.03,9.08,3.34,8.17,7.94-7.68,1.28-8.28-2.1-13.27-4.08Z" fill="#845a42"/>
          </g>
          <g>
            <path d="M227.89,200.72c-.85,2.51.74,5.51.74,5.51-4.1-.85-4.4-4.62-3.49-9,.91-4.38,2.9-7.67,6.79-6.86.86,4.22-2.71,6.42-4.04,10.35Z" fill="#845a42"/>
            <path d="M232.16,195.01c1-2.45-.25-4.65-.25-4.65,4.1.85,4.4,4.62,3.49,9-.91,4.38-2.9,7.67-6.79,6.86-1.02-6.52,1.85-7,3.55-11.21Z" fill="#845a42"/>
          </g>
          <g>
            <path d="M266.37,182.19c-1.37,2.62-.15,6.21-.15,6.21-4.37-1.65-4.05-5.86-2.28-10.53,1.77-4.67,4.53-7.95,8.68-6.38.21,4.8-4.11,6.61-6.25,10.71Z" fill="#845a42"/>
            <path d="M272.07,176.64c1.53-2.53.53-5.17.53-5.17,4.37,1.65,4.05,5.86,2.28,10.53-1.77,4.67-4.53,7.95-8.68,6.38,0-7.36,3.25-7.4,5.87-11.74Z" fill="#845a42"/>
          </g>
          <g>
            <path d="M280.73,185.31c-.85,2.51.74,5.51.74,5.51-4.1-.85-4.4-4.62-3.49-9,.91-4.38,2.9-7.67,6.79-6.86.86,4.22-2.71,6.42-4.04,10.35Z" fill="#845a42"/>
            <path d="M284.99,179.61c1-2.45-.25-4.65-.25-4.65,4.1.85,4.4,4.62,3.49,9-.91,4.38-2.9,7.67-6.79,6.86-1.02-6.52,1.85-7,3.55-11.21Z" fill="#845a42"/>
          </g>
          <g>
            <path d="M262.19,164.46c-1.82,1.15-2.37,3.85-2.37,3.85-2.15-2.64-.4-5.17,2.43-7.47,2.83-2.29,5.77-3.35,7.8-.84-1.62,3.1-5.01,2.66-7.86,4.45Z" fill="#845a42"/>
            <path d="M267.81,163.05c1.89-1.04,2.23-3.06,2.23-3.06,2.14,2.64.4,5.17-2.43,7.47-2.83,2.29-5.77,3.35-7.81.84,2.7-4.63,4.76-3.47,8-5.24Z" fill="#845a42"/>
          </g>
          <g>
            <path d="M237.68,205.24c-2.25,1.39-2.95,4.71-2.95,4.71-2.61-3.27-.44-6.36,3.06-9.16,3.5-2.79,7.13-4.06,9.6-.96-2.03,3.8-6.19,3.22-9.71,5.4Z" fill="#845a42"/>
            <path d="M244.6,203.56c2.33-1.25,2.77-3.74,2.77-3.74,2.61,3.27.44,6.36-3.05,9.16-3.5,2.79-7.13,4.06-9.61.96,3.37-5.67,5.89-4.22,9.89-6.37Z" fill="#845a42"/>
          </g>
        </g>
      </g>
    </g>
    <g>
      <path d="M81.93,150.75c2.22.58,4.14,1.66,5.76,3.26,1.62,1.59,2.75,3.48,3.39,5.67.64,2.19.66,4.44.06,6.74-.6,2.31-1.72,4.29-3.35,5.92-1.63,1.63-3.55,2.76-5.75,3.37-2.21.61-4.44.62-6.7.03-1.73-.45-3.28-1.2-4.63-2.26-1.35-1.06-2.45-2.32-3.27-3.8-.83-1.48-1.35-3.06-1.58-4.73-.23-1.68-.13-3.34.3-4.99.42-1.62,1.12-3.09,2.1-4.43.98-1.33,2.19-2.45,3.62-3.34,1.43-.89,3.01-1.47,4.72-1.75,1.72-.27,3.5-.17,5.34.31ZM81.26,153.6c-3.15-.82-5.76-.9-7.82-.25s-3.59,1.63-4.58,2.93c-.98,1.3-1.64,2.59-1.98,3.88-.26,1-.36,2.07-.32,3.23.05,1.16.37,2.35.98,3.59.6,1.24,1.61,2.39,3.01,3.45,1.4,1.06,3.26,1.89,5.58,2.5,2.03.53,3.88.72,5.54.57,1.66-.15,3.09-.57,4.29-1.27,1.2-.7,2.17-1.56,2.89-2.59.72-1.03,1.24-2.16,1.56-3.39.29-1.1.38-2.27.28-3.5-.1-1.23-.47-2.43-1.11-3.6-.64-1.17-1.64-2.24-3.01-3.22-1.36-.98-3.14-1.75-5.32-2.32Z" fill="#845a42"/>
      <path d="M73.61,140.67l-.16.29-.31-.17,4.01-7.45c.65-1.2,1.38-2.11,2.2-2.75.82-.63,1.64-1.03,2.46-1.18.82-.16,1.6-.16,2.34-.02.74.14,1.42.38,2.03.71.78.42,1.44.99,1.98,1.7.54.71.89,1.55,1.04,2.5.15.96.05,1.99-.31,3.1l.06.03c1.32-.95,3.19-1.47,5.63-1.57l4.34-.17c1.94-.08,3.25-.29,3.93-.61.68-.32,1.18-.73,1.5-1.22l.23.13-2.11,3.92c-.3.05-.59.09-.87.13-.28.04-.57.08-.89.12-.2.02-.5.04-.9.07-.4.03-.63.05-.69.07l-5.64.28c-1.15.05-2.13.2-2.97.45-.83.25-1.49.54-1.98.89-.49.34-.86.68-1.12,1.03-.26.34-.53.77-.8,1.28l7.88,4.24c1.53.82,2.74.47,3.63-1.06l.23.13-3.69,6.85-.23-.13c.21-.44.34-.86.37-1.27.04-.41-.06-.81-.29-1.22-.23-.41-.63-.77-1.22-1.08l-16.28-8.77c-.86-.46-1.57-.58-2.15-.35-.58.23-1,.59-1.27,1.09ZM86.06,141.92l.66-1.23c.69-1.29,1.08-2.44,1.15-3.46.07-1.02-.13-1.9-.62-2.64-.49-.74-1.23-1.38-2.22-1.91-.83-.45-1.73-.72-2.7-.81-.97-.1-1.94.11-2.91.61-.97.5-1.81,1.43-2.54,2.77-.29.55-.49,1.02-.59,1.42l9.78,5.27Z" fill="#845a42"/>
      <path d="M90.48,112.86l.23.17c-.44.58-.65,1.2-.63,1.86.02.65.41,1.27,1.17,1.84l14.84,11.14c.75.56,1.46.76,2.13.58.67-.18,1.2-.53,1.6-1.06l.21.16-4.65,6.2-.21-.16c.42-.57.63-1.18.6-1.84-.02-.66-.42-1.28-1.19-1.86l-14.84-11.14c-.81-.61-1.53-.82-2.14-.64-.61.19-1.13.56-1.55,1.13l-.23-.17,4.65-6.2Z" fill="#845a42"/>
      <path d="M113.43,96.52l-.19.18c-1.35-.91-2.89-1.16-4.6-.75-1.71.41-3.28,1.29-4.7,2.64-.74.7-1.42,1.57-2.05,2.6-.63,1.03-1.06,2.23-1.29,3.59-.23,1.36-.07,2.87.48,4.52.55,1.65,1.65,3.34,3.3,5.07,2.62,2.76,5.36,4.36,8.21,4.79,2.86.43,5.71-.7,8.56-3.4,1.12-1.07,1.88-1.93,2.26-2.58.39-.65.53-1.19.42-1.59-.1-.41-.37-.83-.79-1.28l-3.08-3.25c-.73-.77-1.38-1.12-1.95-1.06-.57.07-1.23.38-1.97.93l-.19-.2,5.77-5.47.19.2c-.48.56-.78,1.06-.9,1.51-.13.45-.11.85.06,1.22.16.36.46.77.88,1.22l4.68,4.94c-1.32,2.15-2.92,4.11-4.8,5.89-.97.92-2.01,1.75-3.11,2.49-1.1.74-2.43,1.32-3.98,1.74-1.55.42-3.24.46-5.05.12-2.73-.51-5.06-1.8-7.01-3.85-1.13-1.2-2.01-2.57-2.64-4.13-.63-1.56-.95-3.18-.95-4.87,0-1.69.35-3.37,1.07-5.04.72-1.67,1.82-3.2,3.3-4.6.57-.54,1.16-1.03,1.78-1.47.62-.44,1.58-1.06,2.89-1.85.52-.31.87-.55,1.05-.72.39-.37.5-.84.31-1.41l.19-.18,3.86,4.07Z" fill="#845a42"/>
      <path d="M122.49,84.33l.16.23c-.61.41-1.01.92-1.2,1.54-.2.62-.03,1.33.5,2.12l10.32,15.42c.52.78,1.13,1.2,1.82,1.25.69.05,1.31-.11,1.86-.47l.15.22-6.44,4.31-.15-.22c.59-.39.98-.91,1.18-1.54s.03-1.35-.51-2.15l-10.32-15.42c-.57-.85-1.17-1.28-1.8-1.31-.64-.03-1.25.16-1.84.55l-.16-.23,6.44-4.31Z" fill="#845a42"/>
      <path d="M150.32,70.69l.11.26c-.54.32-.94.63-1.2.92-.26.29-.39.69-.39,1.2,0,.51.19,1.17.55,1.98l8.64,19.63-.15.07-25.62-11.6,6.06,13.76c.5,1.14.92,1.98,1.26,2.49.34.52.64.86.92,1.03.61.36,1.38.36,2.33-.01l.11.24-5.61,2.47-.11-.24c.61-.31,1.04-.66,1.29-1.05.24-.39.3-.94.17-1.63-.13-.7-.48-1.68-1.04-2.96l-6.43-14.6-1.11-.51c-.99-.46-1.72-.7-2.21-.72-.48-.02-1.04.04-1.67.2l-.11-.26,4.21-1.85,25.27,11.5-6.36-14.45c-.48-1.08-.88-1.87-1.2-2.37-.32-.5-.74-.83-1.25-.99-.51-.16-1.17-.08-1.97.23l-.11-.26,5.62-2.48Z" fill="#845a42"/>
      <path d="M165.85,67.05l11.22,19.14c.59.99,1.1,1.69,1.53,2.1.43.41.81.65,1.15.71s.74.07,1.23.02l.05.26-7.83,1.54-.05-.26c.8-.16,1.41-.36,1.81-.59.4-.24.54-.69.41-1.37-.07-.37-.27-.84-.6-1.42-.06-.08-.1-.14-.1-.18l-3.39-5.95-8.31,1.63-.75,6.27c-.1.85-.11,1.53,0,2.02.13.67.39,1.09.77,1.24.38.16.88.17,1.5.05l.05.26-5.64,1.11-.05-.26c.79-.23,1.37-.67,1.75-1.3.38-.63.64-1.53.78-2.7l2.71-21.98,1.76-.35ZM163.08,81.77l7.64-1.5-6.15-10.62h-.07s-1.43,12.12-1.43,12.12Z" fill="#845a42"/>
      <path d="M181.72,89.35h.33c.6,0,1.12-.25,1.58-.73.45-.47.68-1.14.67-1.99l-.19-18.46c-.01-1.02-.28-1.72-.79-2.12-.52-.39-1.13-.6-1.84-.61v-.28s7.82-.08,7.82-.08v.28c-.68.03-1.29.24-1.82.63-.53.39-.79,1.11-.77,2.15l.19,17.84c.01,1.06.28,1.8.82,2.2.54.4,1.41.6,2.61.59l2.11-.02c.92,0,1.65-.13,2.2-.35.55-.23.98-.57,1.29-1.03.32-.46.64-1.1.96-1.94h.28s-.89,4.02-.89,4.02l-14.54.15v-.27Z" fill="#845a42"/>
      <path d="M234.83,78.59l-.27-.08c.13-1.21-.12-2.34-.76-3.39-.64-1.05-1.48-1.93-2.51-2.63-1.03-.7-2.04-1.19-3.02-1.48-1.35-.4-2.7-.48-4.05-.26-1.35.22-2.61.72-3.77,1.5-1.16.78-2.2,1.83-3.1,3.14-.9,1.31-1.6,2.81-2.1,4.51-.48,1.65-.7,3.24-.65,4.78.05,1.54.36,2.96.95,4.26.58,1.3,1.38,2.38,2.39,3.25,1.01.87,2.23,1.52,3.65,1.94,1.19.35,2.57.49,4.13.43,1.56-.07,3.09-.49,4.56-1.28l-.27.91c-1.73.68-3.26,1.1-4.58,1.27-1.32.17-2.86,0-4.61-.52-1.85-.54-3.43-1.37-4.76-2.49-1.33-1.12-2.35-2.41-3.06-3.87-.71-1.45-1.13-2.98-1.25-4.57-.12-1.59.04-3.15.49-4.67.67-2.28,1.86-4.24,3.56-5.87,1.7-1.63,3.68-2.73,5.94-3.31,2.26-.58,4.51-.54,6.76.13,1.39.41,2.81,1.05,4.26,1.93l1.52.95c.3.16.56.27.78.33.41.12.71.14.88.06.17-.08.34-.27.51-.57l.26.07-1.87,5.54Z" fill="#845a42"/>
      <path d="M259.49,99.9c-1.17,1.97-2.74,3.51-4.72,4.63-1.98,1.12-4.11,1.68-6.39,1.68-2.28,0-4.44-.6-6.49-1.81-2.06-1.22-3.64-2.84-4.76-4.86-1.12-2.02-1.67-4.17-1.64-6.46.02-2.29.63-4.44,1.82-6.44.91-1.54,2.07-2.82,3.45-3.83,1.39-1.01,2.91-1.71,4.56-2.09,1.65-.39,3.31-.46,4.99-.21,1.67.25,3.24.8,4.71,1.67,1.44.85,2.66,1.93,3.67,3.25,1.01,1.31,1.74,2.78,2.2,4.4.46,1.62.58,3.3.37,5.02-.21,1.73-.8,3.41-1.77,5.05ZM256.94,98.46c1.66-2.8,2.46-5.28,2.41-7.45-.05-2.17-.57-3.9-1.54-5.21-.98-1.3-2.04-2.3-3.18-2.97-.89-.52-1.89-.92-3.01-1.2-1.12-.27-2.37-.29-3.72-.05-1.36.24-2.74.88-4.15,1.94-1.41,1.06-2.72,2.61-3.94,4.67-1.07,1.81-1.77,3.53-2.08,5.16-.32,1.63-.31,3.12.03,4.47.34,1.35.9,2.52,1.69,3.49.79.98,1.73,1.79,2.83,2.44.98.58,2.08,1,3.29,1.24,1.21.25,2.46.23,3.76-.07,1.3-.29,2.61-.96,3.92-2,1.32-1.04,2.55-2.53,3.7-4.47Z" fill="#845a42"/>
      <path d="M270.82,94.24l.19-.21,10.74,10-2.53,2.72-.19-.18c.47-.6.73-1.29.78-2.07.05-.78-.36-1.57-1.24-2.39l-4.3-4-7.54,8.1,4.01,3.73c.76.71,1.42,1.04,1.99.98.56-.06,1.15-.32,1.74-.8l.19.18-3.78,4.06-.19-.18c.43-.56.65-1.13.67-1.73.02-.6-.36-1.25-1.13-1.97l-4.01-3.73-6.07,6.52c-.55.59-.82,1.23-.82,1.9,0,.68.25,1.24.72,1.68l.26.24-.18.19-5.77-5.37.18-.19.24.23c.49.45,1.06.64,1.72.58.66-.07,1.26-.39,1.8-.97l12.6-13.53c.72-.77,1.03-1.46.94-2.06-.09-.6-.35-1.11-.78-1.5l-.24-.23Z" fill="#845a42"/>
      <path d="M285.35,108.33l.22-.17,9.03,11.57-2.93,2.29-.16-.21c.56-.52.93-1.16,1.1-1.92.17-.76-.11-1.61-.84-2.55l-3.61-4.63-8.73,6.81,3.37,4.32c.64.82,1.24,1.25,1.81,1.28.57.03,1.18-.14,1.84-.51l.16.21-4.37,3.41-.16-.21c.51-.48.82-1.01.93-1.6.11-.58-.16-1.29-.8-2.12l-3.37-4.32-7.03,5.48c-.64.5-1.01,1.08-1.11,1.75-.1.67.05,1.26.45,1.78l.21.28-.21.16-4.85-6.22.21-.16.2.26c.41.52.94.8,1.6.84.66.04,1.31-.19,1.93-.68l14.58-11.37c.83-.65,1.25-1.28,1.26-1.88,0-.61-.17-1.15-.53-1.61l-.2-.26Z" fill="#845a42"/>
      <path d="M297.49,124.58l.25-.14,7.03,12.77-3.37,1.86-.11-.2c1.8-.99,2.04-2.69.72-5.09l-2.46-4.46-9.73,5.36,2.16,3.93c.43.78.93,1.4,1.52,1.87.59.47,1.36.5,2.31.09l.12.22-4.86,2.67-.12-.22c.5-.39.84-.79,1-1.19.16-.41.23-.75.19-1.04-.03-.29-.1-.53-.2-.71-.13-.38-.31-.76-.51-1.14l-2.27-4.12-7.6,4.19c-.57.32-1.01.7-1.3,1.14-.3.45-.23,1.07.21,1.86l1.75,3.18c.42.77.88,1.33,1.37,1.71.49.37,1.02.59,1.58.66.55.07,1.17.04,1.84-.07l.11.2-3.77,1.11-7.03-12.77.23-.13.16.29c.25.46.68.8,1.29,1.03.61.23,1.33.12,2.16-.34l16.14-8.89c.66-.36,1.15-.83,1.47-1.39.32-.56.28-1.21-.13-1.95l-.16-.29Z" fill="#845a42"/>
      <path d="M306.89,142.54l.27-.09,4.9,13.72-3.63,1.29-.08-.22c1.94-.69,2.45-2.33,1.52-4.91l-1.71-4.8-10.46,3.73,1.51,4.22c.3.83.7,1.53,1.2,2.09.5.56,1.26.71,2.26.46l.08.23-5.22,1.86-.08-.23c.56-.31.95-.65,1.18-1.02.22-.37.34-.71.36-1,.01-.29-.02-.54-.09-.74-.07-.4-.18-.8-.32-1.21l-1.58-4.42-8.18,2.92c-.61.22-1.1.53-1.47.92-.36.39-.39,1.02-.09,1.87l1.22,3.42c.29.82.66,1.46,1.09,1.9.43.45.91.75,1.45.9.54.15,1.15.23,1.82.22l.08.22-3.9.49-4.9-13.73.25-.09.11.31c.17.49.54.9,1.11,1.23.56.33,1.29.33,2.19.01l17.35-6.2c.71-.25,1.27-.63,1.67-1.14.41-.5.47-1.15.19-1.94l-.11-.31Z" fill="#845a42"/>
    </g>
  </g>
</svg>