<?xml version="1.0" encoding="UTF-8"?>
<svg id="fitnesspro" xmlns="http://www.w3.org/2000/svg" viewBox="0 0 379 379">
  <rect x="-.08" y="-.19" width="379" height="379" fill="#000c22"/>
  <g>
    <path d="M189.24,350.85c-90.95,0-164.94-74-164.94-164.94S98.3,20.96,189.24,20.96s164.95,73.99,164.95,164.94-74,164.94-164.95,164.94ZM189.24,28.91c-86.56,0-156.99,70.43-156.99,156.99s70.42,156.99,156.99,156.99,156.99-70.43,156.99-156.99S275.81,28.91,189.24,28.91Z" fill="#fff"/>
    <text transform="translate(85.4 128.79) rotate(-56.12)" fill="#ff8c00" font-family="Inter-SemiBold, Inter" font-size="35.74" font-variation-settings="&apos;wght&apos; 600, &apos;slnt&apos; 0" font-weight="600"><tspan x="0" y="0">F</tspan></text>
    <text transform="translate(97.42 111.55) rotate(-48.64)" fill="#ff8c00" font-family="Inter-SemiBold, Inter" font-size="35.74" font-variation-settings="&apos;wght&apos; 600, &apos;slnt&apos; 0" font-weight="600"><tspan x="0" y="0">I</tspan></text>
    <text transform="translate(103.6 103.8) rotate(-40.57)" fill="#ff8c00" font-family="Inter-SemiBold, Inter" font-size="35.74" font-variation-settings="&apos;wght&apos; 600, &apos;slnt&apos; 0" font-weight="600"><tspan x="0" y="0">T</tspan></text>
    <text transform="translate(121.18 88.51) rotate(-28.63)" fill="#ff8c00" font-family="Inter-SemiBold, Inter" font-size="35.74" font-variation-settings="&apos;wght&apos; 600, &apos;slnt&apos; 0" font-weight="600"><tspan x="0" y="0">N</tspan></text>
    <text transform="translate(144.26 76.15) rotate(-17.03)" fill="#ff8c00" font-family="Inter-SemiBold, Inter" font-size="35.74" font-variation-settings="&apos;wght&apos; 600, &apos;slnt&apos; 0" font-weight="600"><tspan x="0" y="0">E</tspan></text>
    <text transform="translate(164.79 69.77) rotate(-6.22)" fill="#ff8c00" font-family="Inter-SemiBold, Inter" font-size="35.74" font-variation-settings="&apos;wght&apos; 600, &apos;slnt&apos; 0" font-weight="600"><tspan x="0" y="0">S</tspan></text>
    <text transform="translate(187.65 67.26) rotate(4.78)" fill="#ff8c00" font-family="Inter-SemiBold, Inter" font-size="35.74" font-variation-settings="&apos;wght&apos; 600, &apos;slnt&apos; 0" font-weight="600"><tspan x="0" y="0">S</tspan></text>
    <text transform="translate(210.76 69.68) rotate(12.6)" fill="#ff8c00" font-family="Inter-SemiBold, Inter" font-size="35.74" font-variation-settings="&apos;wght&apos; 600, &apos;slnt&apos; 0" font-weight="600"><tspan x="0" y="0"> </tspan></text>
    <text transform="translate(219.62 70.98) rotate(21.26)" fill="#ff8c00" font-family="Inter-SemiBold, Inter" font-size="35.74" font-variation-settings="&apos;wght&apos; 600, &apos;slnt&apos; 0" font-weight="600"><tspan x="0" y="0">C</tspan></text>
    <text transform="translate(244 80.77) rotate(32.49)" fill="#ff8c00" font-family="Inter-SemiBold, Inter" font-size="35.74" font-variation-settings="&apos;wght&apos; 600, &apos;slnt&apos; 0" font-weight="600"><tspan x="0" y="0">L</tspan></text>
    <text transform="translate(261.07 91.27) rotate(43.58)" fill="#ff8c00" font-family="Inter-SemiBold, Inter" font-size="35.74" font-variation-settings="&apos;wght&apos; 600, &apos;slnt&apos; 0" font-weight="600"><tspan x="0" y="0">U</tspan></text>
    <text transform="translate(279.77 109.22) rotate(55.41)" fill="#ff8c00" font-family="Inter-SemiBold, Inter" font-size="35.74" font-variation-settings="&apos;wght&apos; 600, &apos;slnt&apos; 0" font-weight="600"><tspan x="0" y="0">B</tspan></text>
    <g>
      <text transform="translate(81.81 283.38) rotate(44.32)" fill="#ff8c00" font-family="NexaRustSans-Black, &apos;NexaRustSans Black&apos;" font-size="35.74" font-weight="800"><tspan x="0" y="0">F</tspan></text>
      <text transform="translate(96.33 297.05) rotate(38.22)" fill="#ff8c00" font-family="NexaRustSans-Black, &apos;NexaRustSans Black&apos;" font-size="35.74" font-weight="800"><tspan x="0" y="0">I</tspan></text>
      <text transform="translate(104.99 304) rotate(32.03)" fill="#ff8c00" font-family="NexaRustSans-Black, &apos;NexaRustSans Black&apos;" font-size="35.74" font-weight="800"><tspan x="0" y="0">T</tspan></text>
      <text transform="translate(123.05 315.24) rotate(22.47)" fill="#ff8c00" font-family="NexaRustSans-Black, &apos;NexaRustSans Black&apos;" font-size="35.74" font-weight="800"><tspan x="0" y="0">N</tspan></text>
      <text transform="translate(148.18 325.05) rotate(12.91)" fill="#ff8c00" font-family="NexaRustSans-Black, &apos;NexaRustSans Black&apos;" font-size="35.74" font-weight="800"><tspan x="0" y="0">E</tspan></text>
      <text transform="translate(168.37 329.45) rotate(4.73)" fill="#ff8c00" font-family="NexaRustSans-Black, &apos;NexaRustSans Black&apos;" font-size="35.74" font-weight="800"><tspan x="0" y="0">S</tspan></text>
      <text transform="translate(189.01 330.94) rotate(-3.33)" fill="#ff8c00" font-family="NexaRustSans-Black, &apos;NexaRustSans Black&apos;" font-size="35.74" font-weight="800"><tspan x="0" y="0">S</tspan></text>
      <text transform="translate(209.06 329.39) rotate(-9.29)" fill="#ff8c00" font-family="NexaRustSans-Black, &apos;NexaRustSans Black&apos;" font-size="35.74" font-weight="800"><tspan x="0" y="0"> </tspan></text>
      <text transform="translate(219.24 327.95) rotate(-15.98)" fill="#ff8c00" font-family="NexaRustSans-Black, &apos;NexaRustSans Black&apos;" font-size="35.74" font-weight="800"><tspan x="0" y="0">C</tspan></text>
      <text transform="translate(242.19 320.97) rotate(-24.76)" fill="#ff8c00" font-family="NexaRustSans-Black, &apos;NexaRustSans Black&apos;" font-size="35.74" font-weight="800"><tspan x="0" y="0">L</tspan></text>
      <text transform="translate(259.34 313.15) rotate(-33.44)" fill="#ff8c00" font-family="NexaRustSans-Black, &apos;NexaRustSans Black&apos;" font-size="35.74" font-weight="800"><tspan x="0" y="0">U</tspan></text>
      <text transform="translate(281.32 298.08) rotate(-43.19)" fill="#ff8c00" font-family="NexaRustSans-Black, &apos;NexaRustSans Black&apos;" font-size="35.74" font-weight="800"><tspan x="0" y="0">B</tspan></text>
    </g>
    <g>
      <g>
        <polygon points="62.14 139.57 64.96 145.28 71.26 146.2 66.7 150.64 67.78 156.92 62.14 153.96 56.5 156.92 57.57 150.64 53.01 146.2 59.32 145.28 62.14 139.57" fill="#fff"/>
        <polygon points="62.14 216.31 64.96 222.03 71.26 222.94 66.7 227.39 67.78 233.67 62.14 230.71 56.5 233.67 57.57 227.39 53.01 222.94 59.32 222.03 62.14 216.31" fill="#fff"/>
        <polygon points="57.39 177.11 60.2 182.82 66.51 183.74 61.95 188.19 63.02 194.47 57.39 191.5 51.74 194.47 52.82 188.19 48.26 183.74 54.57 182.82 57.39 177.11" fill="#fff"/>
      </g>
      <g>
        <polygon points="316.35 139.57 313.53 145.28 307.23 146.2 311.79 150.64 310.72 156.92 316.35 153.96 322 156.92 320.92 150.64 325.48 146.2 319.17 145.28 316.35 139.57" fill="#fff"/>
        <polygon points="316.35 216.31 313.53 222.03 307.23 222.94 311.79 227.39 310.72 233.67 316.35 230.71 322 233.67 320.92 227.39 325.48 222.94 319.17 222.03 316.35 216.31" fill="#fff"/>
        <polygon points="321.11 177.11 318.29 182.82 311.98 183.74 316.55 188.19 315.47 194.47 321.11 191.5 326.75 194.47 325.67 188.19 330.24 183.74 323.93 182.82 321.11 177.11" fill="#fff"/>
      </g>
    </g>
    <path d="M295.66,185.9c0,58.77-47.64,106.41-106.41,106.41s-106.41-47.64-106.41-106.41,47.64-106.41,106.41-106.41,106.41,47.64,106.41,106.41Z" fill="#ff8c00"/>
    <path d="M285.09,188.86c.06-6.74-5.64-17.22-5.64-17.22l-12.4-17.42-3.29-5.98c-1.62-2.51-7.2-4.58-7.2-4.58l-7.54-1.96c-1.45-1.12-4.24-.5-4.24-.5-4.69-1.17-4.64,2.57-4.64,2.57-1.79,1.34-2.18,6.76-2.18,6.76-3.07,1.28-1.56,3.86-1.56,3.86,1.56,2.12,3.91.28,3.91.28.56.5,1.51-.05,1.51-.05,1.34,1.39,3.24.39,3.24.39,1.73.84,2.57-.34,2.57-.34,2.34,1.62,4.9-.61,4.9-.61h2.39l4.07,5.5.84,8.49c-1.79,4.79,2.27,17.34,2.27,17.34l-2.87.48c-10.05-5.62-18.42.6-18.42.6-13.76-8.25-27.51,2.39-27.51,2.39-11.01-5.02-11.84-8.13-11.84-8.13v-10.93s1.54-2.4,1.78-7.45c0,0,5.77-1.68,5.28-8.41,0,0-.31-7.09-3.52-3.84,0,0,3.64-18.02-5.13-18.98,0,0-1.2-3-1.44-4.69,0,0-1.32.96-1.2,2.04,0,0-4.44-3.48-5.16-5.89,0,0-.24,1.92,0,2.76,0,0-1.96-1.92-2.66-4.08,0,0-.26,2.28,0,3.24,0,0-1.44-.72-2.12-2.3,0,0-.41,1.81.36,2.98,0,0-4.29-.86-5.68-2.98,0,0,.45,1.99,2.98,3.57,0,0-3.79-.36-5.19-2.03,0,0,.22,1.72,1.8,2.98,0,0-1.67-.41-3.43-1.71,0,0,.59,1.53,1.4,2.21,0,0-1.71.59-3.2.04,0,0,.02.72.75,1.35,0,0-1.75-.09-2.6-.54,0,0,.5,1.4,1.31,1.85,0,0-1.58.14-2.26-.36l.77,2.21-1.49-.27.68,1.49-1.53-.68.86,1.53-1.44-.54,1.22,3.11s-3.34,1.27-1.54,8.71c0,0,.63,3,.81,4.84,0,0-2.62-.15-2.03,6.03,0,0,.45,6.81,4.11,6.63,0,0-.3,5.28,3.14,8.17v9.92s-.84,3.11-11.84,8.13c0,0-13.75-10.64-27.51-2.39,0,0-8.37-6.22-18.42-.6l-2.87-.48s4.06-12.56,2.27-17.34l.84-8.49,4.07-5.5h2.39s2.55,2.23,4.9.61c0,0,.84,1.17,2.57.34,0,0,1.9,1.01,3.24-.39,0,0,.95.56,1.51.05,0,0,2.34,1.84,3.91-.28,0,0,1.51-2.57-1.56-3.86,0,0-.39-5.42-2.18-6.76,0,0,.06-3.74-4.64-2.57,0,0-2.79-.61-4.24.5l-7.54,1.96s-5.58,2.07-7.2,4.58l-3.29,5.98-12.4,17.42s-5.7,10.49-5.64,17.22c0,0-6.09,6.4,7.32,12.66,0,0,12.56,9.66,28.82,10.22,0,0,5.3-.14,10.89-2.13,0,0,4.69,11.19,10.83,19.49,0,0,5.05,12.99,8.84,17.32,0,0-1.08,4.87.54,9.03,0,0-1.08,5.05.9,8.84,0,0-3.07,5.59-.18,11.73l-1.63,18.46h59.02l-1.63-18.46c2.89-6.14-.18-11.73-.18-11.73,1.99-3.79.9-8.84.9-8.84,1.62-4.15.54-9.03.54-9.03,3.79-4.33,8.85-17.32,8.85-17.32,6.14-8.3,10.83-19.49,10.83-19.49,5.59,1.99,10.89,2.13,10.89,2.13,16.25-.56,28.82-10.22,28.82-10.22,13.4-6.25,7.32-12.66,7.32-12.66Z" fill="#000c22"/>
    <text transform="translate(139.58 112.73) rotate(-30.74)" fill="#000c22" font-family="Inter-SemiBold, Inter" font-size="18.39" font-variation-settings="&apos;wght&apos; 600, &apos;slnt&apos; 0" font-weight="600"><tspan x="0" y="0">S</tspan></text>
    <text transform="translate(150.06 106.71) rotate(-25.05)" fill="#000c22" font-family="Inter-SemiBold, Inter" font-size="18.39" font-variation-settings="&apos;wght&apos; 600, &apos;slnt&apos; 0" font-weight="600"><tspan x="0" y="0">I</tspan></text>
    <text transform="translate(154.66 104.31) rotate(-18.81)" fill="#000c22" font-family="Inter-SemiBold, Inter" font-size="18.39" font-variation-settings="&apos;wght&apos; 600, &apos;slnt&apos; 0" font-weight="600"><tspan x="0" y="0">N</tspan></text>
    <text transform="translate(167.54 99.92) rotate(-9.81)" fill="#000c22" font-family="Inter-SemiBold, Inter" font-size="18.39" font-variation-settings="&apos;wght&apos; 600, &apos;slnt&apos; 0" font-weight="600"><tspan x="0" y="0">C</tspan></text>
    <text transform="translate(181.06 97.68) rotate(-1.68)" fill="#000c22" font-family="Inter-SemiBold, Inter" font-size="18.39" font-variation-settings="&apos;wght&apos; 600, &apos;slnt&apos; 0" font-weight="600"><tspan x="0" y="0">E</tspan></text>
    <text transform="translate(192.4 97.5) rotate(3.51)" fill="#000c22" font-family="Inter-SemiBold, Inter" font-size="18.39" font-variation-settings="&apos;wght&apos; 600, &apos;slnt&apos; 0" font-weight="600"><tspan x="0" y="0"> </tspan></text>
    <text transform="translate(197.17 97.72) rotate(8.03)" fill="#000c22" font-family="Inter-SemiBold, Inter" font-size="18.39" font-variation-settings="&apos;wght&apos; 600, &apos;slnt&apos; 0" font-weight="600"><tspan x="0" y="0">1</tspan></text>
    <text transform="translate(206.04 98.88) rotate(14.94)" fill="#000c22" font-family="Inter-SemiBold, Inter" font-size="18.39" font-variation-settings="&apos;wght&apos; 600, &apos;slnt&apos; 0" font-weight="600"><tspan x="0" y="0">9</tspan></text>
    <text transform="translate(217.58 101.96) rotate(22.82)" fill="#000c22" font-family="Inter-SemiBold, Inter" font-size="18.39" font-variation-settings="&apos;wght&apos; 600, &apos;slnt&apos; 0" font-weight="600"><tspan x="0" y="0">8</tspan></text>
    <text transform="translate(228.56 106.59) rotate(30.66)" fill="#000c22" font-family="Inter-SemiBold, Inter" font-size="18.39" font-variation-settings="&apos;wght&apos; 600, &apos;slnt&apos; 0" font-weight="600"><tspan x="0" y="0">8</tspan></text>
  </g>
</svg>