<?xml version="1.0" encoding="UTF-8"?>
<svg id="museum" xmlns="http://www.w3.org/2000/svg" viewBox="0 0 379 379">
  <rect x=".16" y="-.59" width="379.59" height="379.59" fill="#000c22"/>
  <g>
    <path d="M189.95,225.38c-19.95,0-36.18-16.23-36.18-36.18s16.23-36.18,36.18-36.18,36.18,16.23,36.18,36.18-16.23,36.18-36.18,36.18ZM189.95,159.34c-16.47,0-29.87,13.4-29.87,29.87s13.4,29.87,29.87,29.87,29.87-13.4,29.87-29.87-13.4-29.87-29.87-29.87Z" fill="#ffd48f"/>
    <path d="M189.95,242.38c-29.32,0-53.18-23.86-53.18-53.18s23.85-53.18,53.18-53.18,53.18,23.86,53.18,53.18-23.85,53.18-53.18,53.18ZM189.95,142.34c-25.84,0-46.87,21.02-46.87,46.87s21.02,46.87,46.87,46.87,46.87-21.02,46.87-46.87-21.02-46.87-46.87-46.87Z" fill="#ffd48f"/>
    <g>
      <path d="M123.66,181.04c-.12,0-.23,0-.35-.02H45.32c-1.74,0-3.15-1.41-3.15-3.15s1.41-3.15,3.15-3.15h75.73c5.77-27.6,27.46-49.07,55.12-54.55V44.58c0-1.74,1.41-3.15,3.15-3.15s3.15,1.41,3.15,3.15v78.23c0,1.55-1.12,2.87-2.65,3.11-.05,0-.11.02-.16.02-27.06,4.36-48.31,25.43-52.9,52.47-.14.83-.6,1.56-1.29,2.05-.54.38-1.18.58-1.83.58Z" fill="#ffd48f"/>
      <path d="M133.77,122.65c-.82,0-1.63-.31-2.24-.93l-39.15-39.49c-1.23-1.24-1.22-3.23.02-4.46,1.24-1.23,3.23-1.22,4.46.02l37.18,37.5c8.16-6.19,17.2-10.93,26.91-14.13,1.66-.55,3.44.35,3.98,2.01.54,1.65-.36,3.44-2.01,3.98-9.89,3.26-19.03,8.24-27.17,14.81-.58.47-1.28.7-1.98.7Z" fill="#ffd48f"/>
      <path d="M104.57,164.15c-.33,0-.67-.05-1-.16-1.65-.55-2.55-2.34-2-3.99,3.23-9.7,8-18.73,14.21-26.87l-37.39-37.28c-1.23-1.23-1.24-3.23,0-4.46,1.23-1.23,3.23-1.24,4.46,0l39.38,39.26c1.14,1.14,1.24,2.97.22,4.22-6.59,8.12-11.6,17.25-14.88,27.13-.44,1.32-1.67,2.16-2.99,2.16Z" fill="#ffd48f"/>
    </g>
    <g>
      <path d="M178.61,336.99c-1.74,0-3.15-1.41-3.15-3.15v-75.73c-27.6-5.77-49.07-27.46-54.55-55.12H45.32c-1.74,0-3.15-1.41-3.15-3.15s1.41-3.15,3.15-3.15h78.23c1.61,0,2.96,1.21,3.14,2.81,4.36,27.07,25.43,48.32,52.47,52.9,1.65.28,2.79,1.8,2.61,3.45v78c0,1.74-1.41,3.15-3.15,3.15Z" fill="#ffd48f"/>
      <path d="M80.75,287.7c-.81,0-1.62-.31-2.24-.93-1.23-1.24-1.22-3.23.02-4.46l37.5-37.18c-6.18-8.16-10.93-17.2-14.13-26.91-.54-1.65.35-3.44,2.01-3.98,1.66-.55,3.44.35,3.98,2.01,3.26,9.89,8.24,19.03,14.81,27.17,1.02,1.26.92,3.08-.23,4.22l-39.49,39.15c-.61.61-1.42.91-2.22.91Z" fill="#ffd48f"/>
      <path d="M94.36,301.7c-.81,0-1.61-.31-2.23-.92-1.23-1.23-1.24-3.23,0-4.46l39.27-39.38c1.14-1.14,2.96-1.24,4.22-.22,8.12,6.59,17.25,11.6,27.13,14.88,1.65.55,2.55,2.34,2,3.99-.55,1.65-2.33,2.55-3.99,2-9.7-3.22-18.73-8-26.87-14.21l-37.28,37.39c-.62.62-1.43.93-2.23.93Z" fill="#ffd48f"/>
    </g>
    <g>
      <path d="M200.57,336.99c-1.74,0-3.15-1.41-3.15-3.15v-78.23c0-1.63,1.23-2.96,2.81-3.14,27.06-4.36,48.31-25.43,52.9-52.47.14-.83.6-1.56,1.29-2.05.63-.45,1.42-.65,2.17-.56h77.99c1.74,0,3.15,1.41,3.15,3.15s-1.41,3.15-3.15,3.15h-75.73c-5.77,27.6-27.46,49.07-55.12,54.55v75.58c0,1.74-1.41,3.15-3.15,3.15Z" fill="#ffd48f"/>
      <path d="M285.29,301.56c-.81,0-1.62-.31-2.24-.93l-37.18-37.5c-8.16,6.19-17.2,10.93-26.91,14.13-1.66.54-3.44-.36-3.98-2.01-.54-1.65.35-3.44,2.01-3.98,9.89-3.26,19.03-8.24,27.17-14.81,1.26-1.02,3.08-.92,4.22.23l39.15,39.49c1.23,1.24,1.22,3.23-.02,4.46-.61.61-1.42.91-2.22.91Z" fill="#ffd48f"/>
      <path d="M299.29,287.96c-.81,0-1.61-.31-2.23-.92l-39.38-39.26c-1.14-1.14-1.24-2.97-.22-4.22,6.59-8.12,11.6-17.25,14.88-27.13.55-1.65,2.33-2.55,3.99-2,1.65.55,2.55,2.34,2,3.99-3.22,9.7-8,18.73-14.21,26.87l37.39,37.28c1.23,1.23,1.24,3.23,0,4.46-.62.62-1.43.93-2.23.93Z" fill="#ffd48f"/>
    </g>
    <g>
      <path d="M334.58,181.74h-78.23c-1.61,0-2.96-1.21-3.14-2.81-4.36-27.07-25.43-48.32-52.47-52.9-1.65-.28-2.79-1.8-2.61-3.45V44.58c0-1.74,1.41-3.15,3.15-3.15s3.15,1.41,3.15,3.15v75.73c27.6,5.77,49.07,27.46,54.55,55.12h75.58c1.74,0,3.15,1.41,3.15,3.15s-1.41,3.15-3.15,3.15Z" fill="#ffd48f"/>
      <path d="M275.01,164.34c-1.33,0-2.56-.84-3-2.17-3.26-9.89-8.24-19.03-14.81-27.17-1.02-1.26-.92-3.08.23-4.22l39.49-39.15c1.24-1.23,3.23-1.22,4.46.02,1.23,1.24,1.22,3.23-.02,4.46l-37.5,37.18c6.19,8.16,10.93,17.2,14.13,26.91.54,1.65-.35,3.44-2.01,3.98-.33.11-.66.16-.99.16Z" fill="#ffd48f"/>
      <path d="M246.28,122.4c-.7,0-1.4-.23-1.99-.71-8.12-6.59-17.25-11.6-27.13-14.88-1.65-.55-2.55-2.34-2-3.99.55-1.65,2.33-2.55,3.99-2,9.7,3.23,18.73,8,26.87,14.21l37.28-37.39c1.23-1.23,3.23-1.24,4.46,0,1.23,1.23,1.24,3.23,0,4.46l-39.27,39.38c-.61.61-1.42.93-2.24.93Z" fill="#ffd48f"/>
    </g>
    <g>
      <path d="M143.16,92.76c-7.11,0-12.9-5.78-12.9-12.89s5.79-12.89,12.9-12.89,12.9,5.78,12.9,12.89-5.79,12.89-12.9,12.89ZM143.16,73.28c-3.63,0-6.59,2.95-6.59,6.59s2.95,6.59,6.59,6.59,6.59-2.95,6.59-6.59-2.95-6.59-6.59-6.59Z" fill="#ffd48f"/>
      <path d="M143.16,92.77c-1.62,0-3.25-.31-4.8-.93-3.2-1.28-5.7-3.73-7.06-6.9-1.36-3.17-1.4-6.67-.12-9.87,1.28-3.2,3.73-5.7,6.9-7.06,6.54-2.8,14.13.24,16.93,6.78,1.36,3.17,1.4,6.67.12,9.87-1.28,3.2-3.73,5.7-6.9,7.06h0c-1.63.7-3.35,1.05-5.07,1.05ZM143.15,73.28c-.86,0-1.74.17-2.58.53-1.62.69-2.87,1.97-3.52,3.61-.65,1.63-.63,3.42.06,5.04.69,1.62,1.97,2.87,3.61,3.52,1.63.65,3.42.63,5.04-.06h0c1.62-.69,2.87-1.97,3.52-3.61.65-1.63.63-3.42-.06-5.04-1.07-2.5-3.51-3.99-6.07-3.99Z" fill="#ffd48f"/>
      <path d="M79.54,156.61c-1.59,0-3.21-.3-4.78-.92-6.6-2.64-9.82-10.16-7.18-16.77,2.64-6.6,10.17-9.82,16.76-7.18,6.6,2.64,9.82,10.16,7.18,16.77h0c-2.02,5.03-6.87,8.1-11.99,8.1ZM79.56,137.13c-2.61,0-5.09,1.57-6.12,4.14-1.35,3.37.29,7.21,3.67,8.56,3.37,1.35,7.21-.29,8.56-3.66h0c1.35-3.37-.29-7.21-3.67-8.56-.8-.32-1.63-.47-2.44-.47ZM88.6,147.34h.01-.01Z" fill="#ffd48f"/>
    </g>
    <g>
      <path d="M80.62,248.89c-7.11,0-12.9-5.78-12.9-12.9s5.79-12.89,12.9-12.89,12.89,5.78,12.89,12.89-5.78,12.9-12.89,12.9ZM80.62,229.41c-3.63,0-6.59,2.95-6.59,6.59s2.95,6.59,6.59,6.59,6.58-2.95,6.58-6.59-2.95-6.59-6.58-6.59Z" fill="#ffd48f"/>
      <path d="M80.63,248.89c-5.01,0-9.78-2.93-11.87-7.82-2.8-6.54.25-14.13,6.78-16.93,6.53-2.8,14.13.24,16.93,6.78h0c2.8,6.54-.25,14.13-6.78,16.93-1.65.71-3.37,1.04-5.06,1.04ZM80.61,229.41c-.86,0-1.74.17-2.58.53-3.34,1.43-4.89,5.31-3.46,8.65,1.43,3.34,5.31,4.89,8.65,3.46,3.34-1.43,4.89-5.31,3.46-8.65h0c-1.07-2.5-3.51-3.99-6.07-3.99Z" fill="#ffd48f"/>
      <path d="M144.47,312.51c-1.62,0-3.25-.31-4.8-.93-3.2-1.28-5.71-3.73-7.06-6.9-1.36-3.17-1.4-6.67-.11-9.87,2.64-6.6,10.16-9.82,16.76-7.18h0c3.2,1.28,5.7,3.73,7.06,6.9,1.36,3.17,1.4,6.67.11,9.87-1.28,3.2-3.73,5.71-6.9,7.06-1.63.7-3.35,1.05-5.07,1.05ZM144.47,293.02c-2.61,0-5.09,1.57-6.12,4.14-.65,1.63-.63,3.42.06,5.04.69,1.62,1.97,2.87,3.61,3.52,1.63.65,3.42.63,5.04-.06,1.62-.69,2.87-1.97,3.52-3.61.66-1.63.63-3.42-.06-5.04-.69-1.62-1.97-2.87-3.61-3.52-.8-.32-1.63-.47-2.44-.47Z" fill="#ffd48f"/>
    </g>
    <g>
      <path d="M236.75,311.44c-7.11,0-12.9-5.79-12.9-12.9s5.79-12.89,12.9-12.89,12.89,5.78,12.89,12.89-5.78,12.9-12.89,12.9ZM236.75,291.96c-3.63,0-6.59,2.95-6.59,6.59s2.95,6.59,6.59,6.59,6.59-2.95,6.59-6.59-2.95-6.59-6.59-6.59Z" fill="#ffd48f"/>
      <path d="M236.75,311.44c-1.62,0-3.25-.31-4.8-.93-3.2-1.28-5.7-3.73-7.06-6.9-1.35-3.17-1.4-6.67-.11-9.87,1.28-3.2,3.73-5.71,6.9-7.06,6.53-2.79,14.13.24,16.93,6.78,2.8,6.54-.25,14.13-6.78,16.93-1.63.7-3.35,1.05-5.07,1.05ZM236.74,291.96c-.86,0-1.74.17-2.58.53h0c-1.62.69-2.87,1.97-3.52,3.61-.65,1.63-.63,3.42.06,5.04.69,1.62,1.97,2.87,3.61,3.52,1.63.65,3.42.63,5.04-.06,3.34-1.43,4.89-5.31,3.46-8.65-1.07-2.5-3.51-3.99-6.06-3.99ZM232.91,289.59h.01-.01Z" fill="#ffd48f"/>
      <path d="M300.36,247.6c-1.62,0-3.25-.31-4.8-.93-6.6-2.64-9.82-10.16-7.17-16.77,1.28-3.2,3.73-5.7,6.9-7.06,3.17-1.35,6.67-1.4,9.87-.12,3.2,1.28,5.71,3.73,7.06,6.9,1.36,3.17,1.4,6.67.11,9.87-1.28,3.2-3.73,5.7-6.9,7.06-1.63.7-3.35,1.05-5.07,1.05ZM300.35,228.1c-.88,0-1.76.18-2.59.54-1.62.69-2.87,1.97-3.52,3.61-1.35,3.37.29,7.21,3.66,8.56,1.63.65,3.42.63,5.04-.06,1.62-.69,2.87-1.97,3.52-3.61.65-1.63.63-3.42-.06-5.04-.69-1.62-1.97-2.87-3.61-3.52-.79-.32-1.62-.48-2.45-.48Z" fill="#ffd48f"/>
    </g>
    <g>
      <path d="M299.29,155.31c-7.11,0-12.89-5.78-12.89-12.89s5.78-12.89,12.89-12.89,12.9,5.78,12.9,12.89-5.79,12.89-12.9,12.89ZM299.29,135.83c-3.63,0-6.58,2.95-6.58,6.59s2.95,6.59,6.58,6.59,6.59-2.95,6.59-6.59-2.95-6.59-6.59-6.59Z" fill="#ffd48f"/>
      <path d="M299.29,155.32c-1.62,0-3.25-.31-4.8-.93-3.2-1.28-5.7-3.73-7.06-6.9-1.36-3.17-1.4-6.67-.12-9.87,1.28-3.2,3.73-5.7,6.9-7.06,3.17-1.35,6.67-1.4,9.87-.12,3.2,1.28,5.7,3.73,7.06,6.9,1.35,3.17,1.4,6.67.11,9.87-1.28,3.2-3.73,5.7-6.9,7.06-1.63.7-3.35,1.05-5.07,1.05ZM299.29,135.83c-.88,0-1.76.18-2.59.53-1.62.69-2.87,1.97-3.52,3.61-.65,1.63-.63,3.42.06,5.04.69,1.62,1.97,2.87,3.61,3.52,1.63.65,3.42.63,5.04-.06,1.62-.69,2.87-1.97,3.52-3.61.65-1.63.63-3.42-.06-5.04-.69-1.62-1.97-2.87-3.61-3.52-.79-.32-1.62-.48-2.45-.48Z" fill="#ffd48f"/>
      <path d="M235.44,91.71c-1.62,0-3.25-.31-4.8-.93h0c-3.2-1.28-5.71-3.73-7.06-6.9-1.36-3.17-1.4-6.67-.11-9.87,1.28-3.2,3.73-5.7,6.9-7.06,3.17-1.36,6.67-1.4,9.87-.12,6.6,2.64,9.82,10.16,7.17,16.76-1.28,3.2-3.73,5.7-6.9,7.06-1.63.7-3.35,1.05-5.07,1.05ZM232.99,84.92c1.63.65,3.42.63,5.04-.06,1.62-.69,2.87-1.97,3.52-3.61,1.35-3.37-.29-7.21-3.66-8.56-1.63-.65-3.42-.63-5.04.06-1.62.69-2.87,1.97-3.52,3.61-.65,1.63-.63,3.42.06,5.04.69,1.62,1.97,2.87,3.61,3.52h0Z" fill="#ffd48f"/>
    </g>
  </g>
</svg>