<?xml version="1.0" encoding="UTF-8"?>
<svg id="musicband" xmlns="http://www.w3.org/2000/svg" viewBox="0 0 379 379">
  <rect id="CUSTOM-Background" width="379.7" height="379.7" fill="#020218"/>
  <g id="CUSTOM-group">
    <g id="CUSTOM-group-2" data-name="CUSTOM-group">
      <g>
        <g>
          <path d="M323.11,206.76c-2.22,0-4.02-1.8-4.02-4.02v-25.78c0-2.22,1.8-4.02,4.02-4.02s4.02,1.8,4.02,4.02v25.78c0,2.22-1.8,4.02-4.02,4.02Z" fill="#00f9f5"/>
          <path d="M306.47,232.97c-2.22,0-4.02-1.8-4.02-4.02v-78.2c0-2.22,1.8-4.02,4.02-4.02s4.02,1.8,4.02,4.02v78.2c0,2.22-1.8,4.02-4.02,4.02h0Z" fill="#00f9f5"/>
          <path d="M289.83,224.22c-2.22,0-4.02-1.8-4.02-4.02v-60.7c0-2.22,1.8-4.02,4.02-4.02s4.02,1.8,4.02,4.02v60.7c0,2.22-1.8,4.02-4.02,4.02Z" fill="#00f9f5"/>
          <path d="M273.19,251.19c-2.22,0-4.02-1.8-4.02-4.02v-114.65c0-2.22,1.8-4.02,4.02-4.02s4.02,1.8,4.02,4.02v114.65c0,2.22-1.8,4.02-4.02,4.02h0Z" fill="#00f9f5"/>
          <path d="M256.55,267.46c-2.22,0-4.02-1.8-4.02-4.02V116.26c0-2.22,1.8-4.02,4.02-4.02s4.02,1.8,4.02,4.02v147.18c0,2.22-1.8,4.02-4.02,4.02Z" fill="#00f9f5"/>
          <path d="M239.91,302.62c-2.22,0-4.02-1.8-4.02-4.02V81.1c0-2.22,1.8-4.02,4.02-4.02s4.02,1.8,4.02,4.02v217.5c0,2.22-1.8,4.02-4.02,4.02Z" fill="#00f9f5"/>
          <path d="M223.26,291.64c-2.22,0-4.02-1.8-4.02-4.02V92.08c0-2.22,1.8-4.02,4.02-4.02s4.02,1.8,4.02,4.02v195.54c0,2.22-1.8,4.02-4.02,4.02Z" fill="#00f9f5"/>
          <path d="M206.62,314.4c-2.22,0-4.02-1.8-4.02-4.02V69.31c0-2.22,1.8-4.02,4.02-4.02s4.02,1.8,4.02,4.02v241.07c0,2.22-1.8,4.02-4.02,4.02Z" fill="#00f9f5"/>
        </g>
        <path d="M56.59,206.76c-2.22,0-4.02-1.8-4.02-4.02v-25.78c0-2.22,1.8-4.02,4.02-4.02s4.02,1.8,4.02,4.02v25.78c0,2.22-1.8,4.02-4.02,4.02Z" fill="#00f9f5"/>
        <path d="M73.23,232.97c-2.22,0-4.02-1.8-4.02-4.02v-78.2c0-2.22,1.8-4.02,4.02-4.02s4.02,1.8,4.02,4.02v78.2c0,2.22-1.8,4.02-4.02,4.02h0Z" fill="#00f9f5"/>
        <path d="M89.87,224.22c-2.22,0-4.02-1.8-4.02-4.02v-60.7c0-2.22,1.8-4.02,4.02-4.02s4.02,1.8,4.02,4.02v60.7c0,2.22-1.8,4.02-4.02,4.02Z" fill="#00f9f5"/>
        <path d="M106.51,251.19c-2.22,0-4.02-1.8-4.02-4.02v-114.65c0-2.22,1.8-4.02,4.02-4.02s4.02,1.8,4.02,4.02v114.65c0,2.22-1.8,4.02-4.02,4.02h0Z" fill="#00f9f5"/>
        <path d="M123.15,267.46c-2.22,0-4.02-1.8-4.02-4.02V116.26c0-2.22,1.8-4.02,4.02-4.02s4.02,1.8,4.02,4.02v147.18c0,2.22-1.8,4.02-4.02,4.02Z" fill="#00f9f5"/>
        <path d="M139.79,302.62c-2.22,0-4.02-1.8-4.02-4.02V81.1c0-2.22,1.8-4.02,4.02-4.02s4.02,1.8,4.02,4.02v217.5c0,2.22-1.8,4.02-4.02,4.02Z" fill="#00f9f5"/>
        <path d="M156.43,291.64c-2.22,0-4.02-1.8-4.02-4.02V92.08c0-2.22,1.8-4.02,4.02-4.02s4.02,1.8,4.02,4.02v195.54c0,2.22-1.8,4.02-4.02,4.02Z" fill="#00f9f5"/>
        <path d="M173.08,314.4c-2.22,0-4.02-1.8-4.02-4.02V69.31c0-2.22,1.8-4.02,4.02-4.02s4.02,1.8,4.02,4.02v241.07c0,2.22-1.8,4.02-4.02,4.02Z" fill="#00f9f5"/>
        <path d="M189.72,326.99c-2.22,0-4.02-1.8-4.02-4.02V56.72c0-2.22,1.8-4.02,4.02-4.02s4.02,1.8,4.02,4.02v266.25c0,2.22-1.8,4.02-4.02,4.02Z" fill="#00f9f5"/>
      </g>
      <g>
        <circle cx="189.98" cy="189.85" r="72.34" transform="translate(-2.49 2.53) rotate(-.76)" fill="#020218"/>
        <g>
          <circle cx="165.68" cy="216.58" r="12.79" transform="translate(-74.59 345.53) rotate(-80.81)" fill="#fff"/>
          <circle cx="208.83" cy="201.17" r="12.79" transform="translate(-34.08 359.53) rotate(-77.03)" fill="#fff"/>
          <path d="M221.59,149.1c-.28-2.53-2.94-4.19-5.34-3.33l-43.14,15.41c-1.58.57-2.67,2.11-2.67,3.78v51.62c0,2.22,1.8,4.02,4.02,4.02s4.02-1.8,4.02-4.02v-34.92l35.11-12.54v32.05c0,2.22,1.8,4.02,4.02,4.02s4.02-1.8,4.02-4.02v-51.62c0-.15-.01-.31-.03-.46h0ZM178.48,173.13v-5.33l35.11-12.54v5.33l-35.11,12.54Z" fill="#fff"/>
          <path d="M217.3,162.48l-43.13,15.71v-14l43.13-15.71v14Z" fill="#fff"/>
        </g>
      </g>
    </g>
  </g>
</svg>