<?xml version="1.0" encoding="UTF-8"?>
<svg id="restaurant" xmlns="http://www.w3.org/2000/svg" viewBox="0 0 379 379">
  <rect y="-.59" width="379" height="379" fill="#d24a3c"/>
  <g>
    <g>
      <path d="M246.19,194.11c1.06.5,2.27.38,3.63-.38,1.36-.75,2.47-1.92,3.33-3.51.86-1.59,1.22-3.09,1.1-4.51-.13-1.42-.74-2.37-1.85-2.87-1.06-.5-2.27-.37-3.63.38-1.36.75-2.47,1.92-3.33,3.51-.86,1.59-1.21,3.09-1.06,4.5.15,1.42.76,2.37,1.82,2.87Z" fill="#fff"/>
      <path d="M329.21,190.22c-.23-.8-.56-1.49-.98-2.09-.43-.59-.92-1.06-1.48-1.41-.56-.35-1.13-.48-1.74-.39-.2.03-.63.48-1.29,1.36-.66.88-1.46,2.04-2.42,3.49-.56-1.23-1.49-2.14-2.8-2.73-1.31-.59-2.85-.76-4.61-.5-1.87.27-3.74,1.03-5.64,2.26-1.89,1.23-3.73,2.76-5.52,4.59-1.79,1.82-3.47,3.85-5.03,6.07-1.56,2.22-2.93,4.45-4.08,6.68-1.16,2.24-2.08,4.39-2.76,6.45-.32.96-.56,1.85-.72,2.69-1.32,1.54-2.63,2.99-3.93,4.34-1.41,1.47-2.79,2.71-4.12,3.74-1.34,1.03-2.51,1.61-3.52,1.76-1.46.21-2.19-.44-2.19-1.95s.39-3.3,1.17-5.5c.78-2.21,1.66-4.54,2.65-7,.98-2.46,1.95-4.9,2.91-7.31.96-2.41,1.59-4.54,1.89-6.4.3-1.86.15-3.31-.45-4.36-.61-1.05-1.94-1.42-4.01-1.12-1.01.15-2.12.81-3.33,2-1.21,1.19-2.48,2.7-3.82,4.53-1.34,1.83-2.7,3.9-4.08,6.19-1.39,2.3-2.76,4.6-4.12,6.92-1.36,2.32-2.66,4.55-3.9,6.7-1.24,2.15-2.36,4.03-3.37,5.63.55-2,1.26-4.16,2.12-6.47.86-2.32,1.7-4.6,2.53-6.84.83-2.24,1.58-4.38,2.23-6.41.65-2.04,1.11-3.8,1.36-5.3.25-1.5.21-2.67-.11-3.5-.33-.83-1.07-1.17-2.23-1-.56.08-1.3.74-2.23,1.99-.93,1.25-1.94,2.82-3.03,4.72-1.08,1.9-2.18,4.01-3.29,6.34-1.11,2.33-2.12,4.63-3.03,6.91-.73,1.84-1.35,3.57-1.85,5.2-.51.6-1.04,1.21-1.59,1.85-1.44,1.67-2.87,3.24-4.31,4.71-1.44,1.47-2.81,2.72-4.12,3.74-1.31,1.02-2.47,1.61-3.48,1.76-1.51.22-2.27-.4-2.27-1.86s.25-3.2.76-5.06c.5-1.86,1.13-3.76,1.89-5.68.76-1.93,1.56-3.82,2.42-5.69.86-1.86,1.66-3.57,2.42-5.12.76-1.55,1.39-2.86,1.89-3.94.5-1.08.76-1.8.76-2.15,0-.55-.19-1.09-.57-1.62-.38-.52-.87-.99-1.48-1.41-.61-.42-1.25-.73-1.93-.93-.68-.2-1.32-.26-1.93-.17-.3.04-.78.54-1.44,1.5-.66.95-1.4,2.18-2.23,3.69-.83,1.51-1.7,3.22-2.61,5.15-.91,1.92-1.74,3.87-2.5,5.85-.76,1.98-1.37,3.91-1.85,5.79-.48,1.89-.72,3.53-.72,4.95,0,.25,0,.51.02.76-1.07,1.23-2.14,2.39-3.19,3.49-1.41,1.47-2.79,2.71-4.12,3.74-1.34,1.03-2.51,1.61-3.52,1.76-1.46.21-2.19-.44-2.19-1.95s.38-3.29,1.13-5.5c.76-2.2,1.61-4.52,2.57-6.96.96-2.43,1.87-4.86,2.72-7.28.86-2.42,1.42-4.56,1.7-6.41.28-1.86.1-3.31-.53-4.35-.63-1.04-1.98-1.41-4.05-1.11-.5.07-1.29.25-2.34.53-1.06.28-2.3.61-3.71.99-1.41.38-2.96.76-4.65,1.13-1.69.37-3.39.68-5.11.93-.91.13-1.66.18-2.27.14-.61-.04-1.11-.11-1.51-.23-.4-.12-.74-.22-1.02-.3-.28-.08-.54-.11-.79-.07-.5.07-.81.38-.91.93-.1.54,0,1.17.3,1.88.3.71.79,1.42,1.48,2.13.68.71,1.55,1.24,2.61,1.59-.25.79-.77,2.1-1.55,3.93-.78,1.83-1.78,3.87-2.99,6.11-1.21,2.24-2.63,4.61-4.27,7.09-1.64,2.48-3.42,4.77-5.33,6.87-.12.13-.1.34.04.62-1.16,1.15-2.29,2.16-3.4,3.01-1.34,1.03-2.51,1.61-3.52,1.76-1.11.16-2,.02-2.69-.44-.68-.46-1.02-1.39-1.02-2.8,0-1.21.13-2.46.38-3.76.25-1.3.61-2.63,1.06-4.01.45.19.98.32,1.59.41.61.09,1.26.08,1.97-.02.81-.12,1.75-.49,2.84-1.13,1.08-.64,2.18-1.44,3.29-2.41,1.11-.97,2.21-2.04,3.29-3.2,1.08-1.17,2.05-2.34,2.91-3.53.86-1.18,1.55-2.34,2.08-3.48.53-1.14.79-2.11.79-2.91,0-1.46-.29-2.69-.87-3.69-.58-1-1.31-1.78-2.19-2.33-.88-.55-1.87-.91-2.95-1.08-1.08-.17-2.13-.18-3.14-.03-1.26.18-2.6.73-4.01,1.64-1.41.91-2.82,2.09-4.24,3.53-1.41,1.44-2.77,3.06-4.06,4.87-1.3,1.8-2.44,3.7-3.43,5.68-.99,1.99-1.78,3.99-2.37,6.02-.43,1.48-.7,2.9-.81,4.27-.59.7-1.21,1.42-1.84,2.17-1.44,1.7-2.87,3.28-4.31,4.75-1.44,1.47-2.82,2.72-4.16,3.75-1.34,1.03-2.51,1.61-3.52,1.76-1.46.21-2.19-.41-2.19-1.88,0-1.11.39-2.85,1.17-5.21.78-2.36,1.8-5.11,3.06-8.25,1.26-3.14,2.69-6.53,4.27-10.18,1.59-3.64,3.19-7.33,4.8-11.05l4.77-.69c1.01-.15,1.92-.57,2.72-1.27.81-.7,1.39-1.44,1.74-2.22.35-.78.43-1.45.23-2-.2-.55-.81-.75-1.82-.61l-4.92.72c1.51-3.4,2.91-6.63,4.2-9.69,1.29-3.06,2.34-5.72,3.18-7.99.83-2.26,1.36-4.04,1.59-5.34.23-1.29.04-1.9-.57-1.81-.86.13-1.95.93-3.29,2.41-1.34,1.48-2.82,3.43-4.46,5.83-1.64,2.41-3.37,5.17-5.18,8.28-1.82,3.11-3.61,6.36-5.37,9.75l-5.14.75c-1.06.16-2,.58-2.82,1.28-.82.7-1.39,1.44-1.72,2.22-.33.78-.38,1.44-.15,1.99.23.55.83.75,1.8.61l4.94-.72c-1.36,2.82-2.64,5.6-3.84,8.35-1.19,2.75-2.23,5.33-3.09,7.75-.87,2.42-1.56,4.63-2.07,6.62-.51,1.99-.76,3.64-.76,4.95,0,.03,0,.05,0,.08-1.37,1.61-2.74,3.12-4.09,4.52-1.41,1.47-2.79,2.71-4.12,3.74-1.34,1.03-2.51,1.61-3.52,1.76-1.46.21-2.19-.41-2.19-1.87,0-1.36.35-3.03,1.06-5,.71-1.97,1.49-3.92,2.34-5.86.86-1.94,1.64-3.69,2.35-5.26.71-1.56,1.06-2.62,1.06-3.18,0-.76-.23-1.25-.68-1.49-.45-.24-.96-.31-1.51-.23-1.01.15-2.16.84-3.44,2.09-1.29,1.25-2.66,2.76-4.12,4.53-1.46,1.78-2.95,3.71-4.46,5.79-1.51,2.09-2.96,4.01-4.35,5.78-1.39,1.77-2.69,3.27-3.9,4.5-1.21,1.24-2.22,1.91-3.03,2.03-.71.1-.93-.53-.68-1.91.25-1.38.84-3.14,1.78-5.3.93-2.16,2.14-4.52,3.63-7.09,1.49-2.57,3.15-5,4.99-7.29,1.84-2.29,3.81-4.26,5.9-5.9,2.09-1.65,4.17-2.62,6.24-2.92.96-.14,1.7-.03,2.23.33.53.36.95.77,1.25,1.24.3.47.55.91.76,1.32.2.41.45.59.76.54.76-.11,1.2-.64,1.32-1.59.13-.95-.2-1.94-.98-2.96-.78-1.02-2.07-1.87-3.86-2.54-1.79-.67-4.2-.79-7.22-.35-1.87.27-3.76,1.03-5.67,2.26-1.92,1.24-3.77,2.76-5.56,4.58-1.79,1.82-3.47,3.84-5.03,6.06-.15.21-.3.42-.44.64-.07-.03-.15-.04-.24-.02-.66.1-1.69,1.08-3.1,2.95-1.41,1.87-3.17,4.22-5.26,7.05-2.09,2.83-4.46,5.9-7.11,9.21-2.65,3.31-5.52,6.45-8.62,9.43-3.1,2.97-6.39,5.55-9.87,7.72-3.48,2.17-7.09,3.53-10.82,4.07-1.46.21-2.7.13-3.71-.25-1.01-.38-1.82-.96-2.42-1.73-.61-.77-1.03-1.68-1.29-2.73-.25-1.05-.38-2.13-.38-3.24,0-5.6.79-11.3,2.38-17.08,1.59-5.78,3.67-11.4,6.24-16.85,2.57-5.45,5.5-10.59,8.77-15.44,3.28-4.84,6.59-9.11,9.95-12.81,3.35-3.69,6.61-6.69,9.76-8.99,3.15-2.3,5.89-3.62,8.21-3.96,1.41-.21,2.19.47,2.34,2.04.15,1.57-.18,3.61-.98,6.12-.81,2.51-1.98,5.28-3.52,8.3-1.54,3.02-3.27,5.87-5.18,8.55-1.92,2.68-3.91,4.96-5.98,6.85-2.07,1.89-4.06,2.97-5.98,3.25-.71.1-1.16.04-1.36-.18-.2-.22-.33-.48-.38-.78-.05-.3-.1-.56-.15-.81-.05-.24-.23-.35-.53-.3-.66.1-1.05.53-1.17,1.31-.13.77.08,1.58.61,2.41.53.83,1.41,1.53,2.65,2.11,1.24.58,2.89.71,4.95.41,1.66-.24,3.4-.95,5.22-2.12,1.82-1.17,3.59-2.65,5.33-4.45,1.74-1.79,3.39-3.8,4.95-6.02,1.56-2.22,2.94-4.5,4.12-6.84,1.18-2.34,2.13-4.66,2.84-6.96.71-2.3,1.06-4.43,1.06-6.4,0-2.22-.37-4.09-1.1-5.63-.73-1.53-1.75-2.73-3.06-3.6-1.31-.87-2.87-1.43-4.69-1.7-1.82-.26-3.78-.24-5.9.07-2.77.4-5.89,1.82-9.34,4.24-3.45,2.42-6.99,5.53-10.59,9.34-3.61,3.8-7.14,8.15-10.59,13.04-3.45,4.89-6.53,10.03-9.23,15.42-2.7,5.39-4.87,10.86-6.51,16.42-1.64,5.56-2.46,10.89-2.46,15.98,0,3.43.55,6.39,1.66,8.87,1.11,2.49,2.62,4.48,4.54,5.99,1.92,1.51,4.15,2.53,6.69,3.07,2.55.54,5.26.59,8.13.18,2.72-.4,5.45-1.35,8.17-2.87,2.72-1.52,5.38-3.39,7.98-5.63,2.6-2.23,5.08-4.71,7.45-7.43,2.37-2.72,4.56-5.46,6.58-8.22,1.3-1.78,2.5-3.52,3.61-5.23-.09.61-.13,1.18-.13,1.72,0,1.76.21,3.24.64,4.44.43,1.2,1.01,2.14,1.74,2.84.73.7,1.58,1.15,2.53,1.37.96.21,1.94.25,2.95.1.76-.11,1.6-.46,2.53-1.05.93-.59,1.92-1.35,2.95-2.28,1.03-.93,2.08-1.99,3.14-3.18,1.06-1.19,2.12-2.44,3.18-3.75.2,1.03.59,2.02,1.17,2.97.58.95,1.34,1.76,2.27,2.43.93.67,2.03,1.15,3.29,1.45,1.26.3,2.67.33,4.24.1,1.61-.24,3.28-1.01,4.99-2.32,1.71-1.31,3.35-2.87,4.92-4.69.41-.47.81-.95,1.2-1.44.53,1.23,1.21,2.27,2.05,3.13.99,1.02,2.13,1.76,3.39,2.23,1.27.47,2.63.6,4.1.39,1.61-.24,3.28-1,4.99-2.29,1.71-1.29,3.35-2.85,4.92-4.69,1.03-1.2,2-2.45,2.93-3.74.02.06.04.12.07.18.59,1.45,1.45,2.73,2.6,3.82,1.15,1.09,2.55,1.9,4.23,2.41,1.67.51,3.59.61,5.76.29,1.61-.24,3.26-1.01,4.95-2.31,1.69-1.31,3.32-2.87,4.88-4.68,1.56-1.82,3-3.75,4.31-5.81,1.31-2.06,2.42-3.95,3.33-5.67.74-1.4,1.29-2.59,1.66-3.58.59-1.11,1.16-2.2,1.71-3.26.88-1.72,1.63-3.29,2.23-4.71.61-1.42,1.03-2.56,1.29-3.4,1.21-.23,2.56-.52,4.05-.89,1.49-.37,2.94-.76,4.35-1.16-.76,1.47-1.51,3.07-2.27,4.79-.76,1.72-1.44,3.5-2.04,5.33-.61,1.83-1.1,3.65-1.48,5.47-.38,1.82-.57,3.56-.57,5.23,0,1.77.34,3.27,1.02,4.5.68,1.24,1.55,2.23,2.61,2.99,1.06.75,2.24,1.27,3.56,1.56,1.31.29,2.62.34,3.93.14,1.61-.24,3.28-1.01,4.99-2.32,1.71-1.31,3.35-2.87,4.92-4.69.13-.15.26-.31.4-.47.3.64.66,1.23,1.08,1.77.83,1.06,1.97,1.86,3.4,2.38,1.44.52,3.24.62,5.41.31,1.61-.24,3.26-1.01,4.95-2.31,1.69-1.31,3.32-2.87,4.88-4.68.36-.42.72-.85,1.07-1.28.05.2.11.4.18.61.33,1.01.79,1.93,1.4,2.75.61.82,1.34,1.47,2.19,1.95.86.48,1.82.64,2.87.49.76-.11,1.68-.85,2.76-2.22,1.08-1.37,2.29-3.11,3.63-5.22,1.34-2.11,2.74-4.46,4.2-7.04,1.46-2.58,2.95-5.14,4.46-7.69-.61,1.7-1.09,3.36-1.44,4.98-.35,1.62-.53,3.1-.53,4.46,0,1.77.33,3.27.98,4.51.65,1.24,1.51,2.24,2.57,2.99,1.06.75,2.26,1.27,3.59,1.56,1.34.29,2.66.33,3.97.14,1.61-.24,3.26-1.01,4.95-2.31,1.69-1.31,3.32-2.87,4.88-4.68.06-.07.11-.14.17-.2.03.09.06.19.09.28.43,1.2,1.01,2.15,1.74,2.85.73.7,1.56,1.16,2.5,1.38.93.22,1.9.25,2.91.1.96-.14,2.07-.69,3.33-1.66,1.26-.96,2.6-2.21,4.01-3.72,1.41-1.52,2.85-3.24,4.31-5.17,1.46-1.93,2.92-3.93,4.39-6.01-1.66,3.67-3.43,7.42-5.3,11.25-1.87,3.83-3.76,7.55-5.67,11.15-2.72.55-5.41,1.44-8.06,2.69-2.65,1.24-5.03,2.76-7.15,4.56-2.12,1.8-3.83,3.8-5.14,6.01-1.31,2.21-1.97,4.55-1.97,7.02s.57,4.51,1.7,5.95c1.13,1.45,2.89,2,5.26,1.65,1.46-.21,3.01-.89,4.65-2.04,1.64-1.15,3.32-2.64,5.03-4.48,1.71-1.84,3.45-3.97,5.22-6.4,1.76-2.43,3.5-5.02,5.22-7.8h.08c2.37-.36,4.44-.38,6.2-.08,1.76.3,3.24.85,4.43,1.66,1.18.81,2.07,1.82,2.65,3.02.58,1.2.87,2.53.87,4,0,1.21.13,1.92.38,2.14.25.22.54.13.87-.24.33-.38.62-.95.87-1.72.25-.77.38-1.51.38-2.21,0-1.56-.26-3.1-.79-4.61-.53-1.51-1.3-2.9-2.31-4.16-1.01-1.27-2.3-2.36-3.86-3.3-1.56-.93-3.35-1.58-5.37-1.94,1.61-2.91,3.18-5.86,4.69-8.85,1.51-2.99,2.92-5.91,4.24-8.75,1.31-2.84,2.51-5.53,3.59-8.09,1.08-2.55,2-4.87,2.76-6.95.76-2.08,1.35-3.85,1.78-5.33.43-1.47.64-2.54.64-3.2,0-.76-.11-1.53-.34-2.33ZM181.6,219.99c1.06-1.64,2.13-3.11,3.21-4.4,1.08-1.29,2.14-2.34,3.18-3.15,1.03-.81,1.93-1.26,2.69-1.38.25-.04.28.22.08.78-.2.56-.56,1.28-1.06,2.16-.5.88-1.16,1.88-1.97,3.01-.81,1.13-1.69,2.21-2.65,3.26-.96,1.05-1.98,2.02-3.06,2.91-1.09.89-2.18,1.57-3.29,2.03.86-1.84,1.82-3.58,2.87-5.22ZM290.48,253.09c-2.14,2.53-4.07,3.92-5.79,4.17-.3.04-.55-.05-.76-.27-.2-.22-.3-.54-.3-.94,0-2.72,1.24-5.15,3.71-7.27,2.47-2.13,5.8-3.9,9.99-5.31-2.42,3.88-4.7,7.09-6.85,9.62ZM318.13,196.03c-1.72,2.62-3.56,5.45-5.52,8.48-1.97,3.04-3.9,5.86-5.79,8.48-1.89,2.62-3.63,4.82-5.22,6.59-1.59,1.77-2.84,2.72-3.74,2.85-.71.1-.9-.54-.57-1.92.33-1.38,1-3.16,2-5.32,1.01-2.16,2.27-4.53,3.78-7.09,1.51-2.57,3.1-4.98,4.77-7.24,1.66-2.26,3.33-4.18,4.99-5.76,1.66-1.58,3.15-2.46,4.46-2.66.71-.1,1.2.2,1.48.92.28.72.06,1.61-.64,2.67Z" fill="#fff"/>
    </g>
    <g>
      <polygon points="109.9 269.65 111.72 269.65 111.72 266.81 115.31 266.81 115.31 265.36 111.72 265.36 111.72 263.31 115.79 263.31 115.79 261.86 109.9 261.86 109.9 269.65" fill="#f7e2a9"/>
      <path d="M128.69,262.86c-.39-.36-.84-.64-1.35-.84-.52-.2-1.08-.29-1.7-.29s-1.18.1-1.7.3c-.52.2-.97.48-1.35.85-.39.36-.68.79-.9,1.27-.21.49-.32,1.02-.32,1.61s.11,1.11.32,1.6c.21.49.51.92.9,1.28.39.36.84.65,1.36.85.52.2,1.09.3,1.7.3s1.17-.1,1.69-.29c.52-.2.97-.48,1.35-.84.39-.36.68-.79.9-1.28.21-.49.32-1.03.32-1.61s-.11-1.12-.32-1.61c-.21-.49-.51-.92-.9-1.28ZM127.9,266.76c-.12.3-.29.56-.52.79-.22.23-.48.4-.77.52-.29.12-.61.18-.96.18s-.67-.06-.97-.18c-.3-.12-.55-.3-.77-.52-.22-.23-.39-.49-.51-.79-.12-.3-.18-.64-.18-1.01s.06-.71.18-1.01c.12-.3.29-.56.51-.79.22-.23.48-.4.77-.52.3-.12.62-.18.97-.18s.67.06.96.18c.29.12.55.3.77.52.22.23.39.49.52.79.12.3.18.64.18,1.01s-.06.71-.18,1.01Z" fill="#f7e2a9"/>
      <path d="M143.02,262.86c-.39-.36-.84-.64-1.35-.84-.52-.2-1.08-.29-1.7-.29s-1.18.1-1.7.3c-.52.2-.97.48-1.35.85-.39.36-.68.79-.9,1.27-.21.49-.32,1.02-.32,1.61s.11,1.11.32,1.6c.21.49.51.92.9,1.28.39.36.84.65,1.36.85.52.2,1.09.3,1.7.3s1.17-.1,1.69-.29c.52-.2.97-.48,1.35-.84.39-.36.68-.79.9-1.28.21-.49.32-1.03.32-1.61s-.11-1.12-.32-1.61c-.21-.49-.51-.92-.9-1.28ZM142.22,266.76c-.12.3-.29.56-.52.79-.22.23-.48.4-.77.52-.29.12-.61.18-.96.18s-.67-.06-.97-.18c-.3-.12-.55-.3-.77-.52-.22-.23-.39-.49-.51-.79-.12-.3-.18-.64-.18-1.01s.06-.71.18-1.01c.12-.3.29-.56.51-.79.22-.23.48-.4.77-.52.3-.12.62-.18.97-.18s.67.06.96.18c.29.12.55.3.77.52.22.23.39.49.52.79.12.3.18.64.18,1.01s-.06.71-.18,1.01Z" fill="#f7e2a9"/>
      <path d="M156.3,262.34c-.65-.32-1.39-.48-2.24-.48h-3.54v7.79h3.54c.85,0,1.59-.16,2.24-.48.65-.32,1.15-.77,1.51-1.36.36-.58.55-1.27.55-2.05s-.18-1.47-.55-2.05c-.36-.58-.87-1.03-1.51-1.36ZM156.22,267.04c-.21.37-.51.65-.89.85-.38.2-.83.29-1.35.29h-1.64v-4.85h1.64c.52,0,.97.1,1.35.29.38.2.68.48.89.84.21.36.32.79.32,1.29s-.11.92-.32,1.28Z" fill="#f7e2a9"/>
      <path d="M178.51,262.34c-.65-.32-1.39-.48-2.24-.48h-3.54v7.79h3.54c.85,0,1.59-.16,2.24-.48.65-.32,1.15-.77,1.51-1.36.36-.58.55-1.27.55-2.05s-.18-1.47-.55-2.05c-.36-.58-.87-1.03-1.51-1.36ZM178.43,267.04c-.21.37-.51.65-.89.85-.38.2-.83.29-1.35.29h-1.64v-4.85h1.64c.52,0,.97.1,1.35.29.38.2.68.48.89.84.21.36.32.79.32,1.29s-.11.92-.32,1.28Z" fill="#f7e2a9"/>
      <polygon points="188.66 266.4 192.27 266.4 192.27 264.98 188.66 264.98 188.66 263.31 192.75 263.31 192.75 261.86 186.87 261.86 186.87 269.65 192.9 269.65 192.9 268.2 188.66 268.2 188.66 266.4" fill="#f7e2a9"/>
      <polygon points="201.08 261.86 199.27 261.86 199.27 269.65 204.97 269.65 204.97 268.18 201.08 268.18 201.08 261.86" fill="#f7e2a9"/>
      <rect x="210.93" y="261.86" width="1.81" height="7.79" fill="#f7e2a9"/>
      <polygon points="222.76 267.42 220.39 261.86 218.44 261.86 221.81 269.65 223.59 269.65 226.96 261.86 225.17 261.86 222.76 267.42" fill="#f7e2a9"/>
      <polygon points="234.33 266.4 237.95 266.4 237.95 264.98 234.33 264.98 234.33 263.31 238.43 263.31 238.43 261.86 232.54 261.86 232.54 269.65 238.57 269.65 238.57 268.2 234.33 268.2 234.33 266.4" fill="#f7e2a9"/>
      <path d="M250.12,267.14c.5-.22.89-.54,1.17-.96.27-.42.41-.92.41-1.51s-.14-1.08-.41-1.5c-.27-.42-.66-.75-1.17-.97-.5-.23-1.11-.34-1.8-.34h-3.37v7.79h1.81v-2.18h1.56s.05,0,.08,0l1.51,2.18h1.94l-1.74-2.5s0,0,.01,0ZM249.46,263.68c.28.23.42.57.42,1s-.14.76-.42,1c-.28.24-.7.36-1.25.36h-1.46v-2.7h1.46c.55,0,.96.12,1.25.35Z" fill="#f7e2a9"/>
      <polygon points="264.7 261.86 262.94 261.86 260.86 265.31 258.78 261.86 256.86 261.86 259.88 266.87 259.88 269.65 261.7 269.65 261.7 266.87 264.7 261.86" fill="#f7e2a9"/>
    </g>
    <g>
      <path d="M239.7,143.42s-.03-.03-.04-.04c0,0,0,0,0,0-1.16-.83-2.43-1.55-3.77-2.04-.1-.04-.21-.07-.32-.11-.56-.17-1.14-.31-1.76-.33.57-.23,1.19-.35,1.83-.42,1.35-.12,2.72-.04,4.06.18,1.05-3.8,3.64-15.64-2.64-22.47-5.39-5.88-16.05-6.87-31.69-2.94-1.04.46-2.04,1-2.99,1.63-.8.53-1.56,1.13-2.26,1.8-.98.96-1.78,2.07-2.12,3.44-.03-.94.19-1.91.57-2.81.76-1.82,2.02-3.38,3.38-4.79.28-.28.55-.55.84-.82-2.9-2.95-11.8-10.93-22.79-10.32-8.88.49-17.24,6.4-24.85,17.57-.11.16-.22.33-.33.49-.03.04-.06.09-.09.13,0,0,0,0,0,0-.07.06-.13.13-.19.19-1.04,1.04-2.01,2.17-2.87,3.37-.29.41-.57.82-.84,1.24-1.11,1.79-2.03,3.74-2.18,5.89-.09-.53-.12-1.08-.12-1.63.07-2.96,1.19-6.04,2.63-8.77-.86-.06-1.94-.11-3.17-.11-6.18,0-16.29,1.19-22.65,8.13-6.26,6.83-7.66,17.78-4.17,32.54h0c.06.25.12.5.18.75,0,.04.02.07.02.11h0c0,.16,0,.31,0,.45h0c.02,1.06.1,2.12.3,3.16h0c.16.8.38,1.57.71,2.31.29.6.68,1.19,1.32,1.53-.74-.1-1.39-.57-1.92-1.08-.79-.79-1.41-1.72-1.94-2.69-1.18,2.74-2.5,7.13-1,10.76,1.15,2.77,3.86,4.73,8.06,5.81.86-.55,1.8-.97,2.79-1.17-.57.77-.91,1.61-1.14,2.5h0c.03.15.03.3,0,.45-.16,1.25-.22,5.04,1.49,6,.76.42,3.15.86,9.21-3.84-.03-.17-.07-.34-.1-.51-.03-.17-.06-.34-.09-.51-.03-.17-.06-.34-.08-.51-.04-.25-.08-.51-.11-.76-.04-.25-.07-.5-.1-.75h0c-.04-.34-.08-.67-.11-1,0-.09-.02-.18-.03-.28-.01-.13-.02-.25-.03-.38-.01-.12-.02-.24-.03-.36-.01-.16-.02-.31-.03-.47,0-.14-.02-.28-.02-.42,0-.06,0-.12,0-.18,0-.13-.01-.26-.02-.38,0-.16-.01-.33-.01-.49,0-.16,0-.33,0-.49-.13-10.71,4.19-20.11,12.75-27.57.28-.24.56-.48.84-.72.14-.12.29-.24.43-.35,8.47-6.86,20.4-11.63,33.6-13.42,12.39-1.68,24.29-.52,32.65,3.2,8.8,3.91,14.84,9.95,17.94,17.94,2.3,5.9,2.54,11.8,2.23,16.15,1.61-.15,3.5-.66,4.47-2.06,1.2-1.72,1-4.74-.57-8.73-.04-.1-.07-.2-.08-.31h0c-.52-1.33-1.1-2.68-1.91-3.85,0,0,0,0,0,0-.15-.22-.31-.43-.48-.64-.18-.2-.38-.39-.63-.54.58.06,1.13.35,1.63.64,1,.6,1.91,1.33,2.79,2.1.19-.23.41-.51.62-.84.72-1.09,1.45-2.67,1.55-4.71.19-3.96-2.03-8.28-6.6-12.83Z" fill="#fff"/>
      <path d="M217.52,143.84c-1.37-.61-2.84-1.14-4.41-1.6-.39-.12-.79-.23-1.19-.33-4.42-1.16-9.48-1.76-14.86-1.76-1.07,0-2.15.02-3.24.07-.44.02-.87.04-1.31.07-1.54.09-3.1.23-4.67.42-.45.05-.9.11-1.35.17-12.67,1.72-24.08,6.26-32.12,12.78-7.5,6.08-15.66,16.93-12,34.1.12.59.26,1.19.41,1.79,1-1.08,2.39-2.53,4.14-4.19,13.13-12.47,47.63-38.37,84.49-9.54,1.33,1.04,2.66,2.15,3.99,3.33.13-.72.26-1.59.37-2.56.15-1.34.25-2.86.25-4.48,0-8.97-3.12-21.42-18.51-28.26Z" fill="#fff"/>
    </g>
    <path d="M192.61,250.74c14.09-3.64,28.52-5.79,42.98-7.25,12.66-1.16,25.51-1.86,38.19-.43,1.81.23,3.62.52,5.4.89-28.97.89-57.61,5.49-86.58,6.8h0Z" fill="#fff"/>
  </g>
</svg>