<?xml version="1.0" encoding="UTF-8"?>
<svg id="techhub" xmlns="http://www.w3.org/2000/svg" viewBox="0 0 379 379">
  <rect x="0" width="379" height="379" fill="#c0daff"/>
  <g>
    <path d="M263.9,290.52c-7.32,0-14.2-2.85-19.37-8.02-5.18-5.17-8.03-12.04-8.03-19.36s2.85-14.19,8.01-19.35c5.18-5.18,12.06-8.03,19.37-8.03s14.19,2.84,19.36,8.01c10.68,10.68,10.68,28.06,0,38.74-5.17,5.17-12.04,8.01-19.35,8.01Z" fill="#2854e5"/>
    <path d="M115.14,144.51c-7.32,0-14.2-2.85-19.37-8.03-5.17-5.17-8.02-12.04-8.02-19.36s2.84-14.19,8.01-19.35c5.18-5.18,12.06-8.03,19.38-8.03s14.19,2.85,19.35,8.01c5.18,5.18,8.03,12.06,8.03,19.37s-2.85,14.19-8.02,19.37c-5.17,5.17-12.04,8.01-19.35,8.01Z" fill="#2854e5"/>
    <path d="M262.67,143.71c-7.32,0-14.2-2.85-19.37-8.02-10.67-10.68-10.68-28.05-.02-38.72,5.18-5.18,12.05-8.03,19.38-8.03s14.19,2.85,19.36,8.02c10.67,10.67,10.67,28.05,0,38.74-5.17,5.16-12.04,8-19.35,8Z" fill="#2854e5"/>
    <path d="M115.86,290.52c-7.32,0-14.2-2.85-19.38-8.02-5.17-5.17-8.02-12.04-8.01-19.36,0-7.31,2.86-14.19,8.03-19.36,1.08-1.09,2.3-2.09,3.86-3.14.47-.33.9-.58,1.34-.86,1.01-.58,2.02-1.11,2.97-1.54.51-.23,1.04-.47,1.59-.68.98-.36,2.08-.69,3.34-.99.25-.07.47-.13.7-.19.14-.04.28-.08.42-.12l6.1-.41c.77.03,1.6.13,2.48.25l.35.05c.21.03.49.05.77.06l.25.02.28.06h.24c.45.02.89.02,1.33.02,10.51,0,20.88-4.48,28.46-12.27,7.55-7.76,11.7-18.21,11.41-28.66v-.31s-.07-.32-.07-.32c-.06-.29-.07-.59-.09-.88-.03-.35-.06-.7-.1-1.05l-.07-.62c-.06-.53-.12-1.04-.15-1.57l.47-6.12c.03-.15.09-.29.13-.44l.11-.38c.28-1.16.58-2.32,1.02-3.45.22-.64.44-1.11.67-1.59.49-1.07.99-2.04,1.59-3.04.26-.43.51-.87.81-1.29,1.11-1.61,2.11-2.85,3.16-3.89,5.17-5.17,12.05-8.02,19.37-8.02s14.2,2.84,19.37,8.01c10.66,10.68,10.66,28.05-.02,38.73-1.08,1.08-2.3,2.08-3.86,3.14-.46.31-.89.57-1.32.82-.98.59-1.98,1.11-2.96,1.57-.53.24-1.07.49-1.59.68-1.05.39-2.16.72-3.33.98l-.66.18c-.15.04-.29.09-.44.13l-6.16.44c-.72-.03-1.48-.13-2.28-.23l-.55-.07c-.18-.03-.47-.05-.76-.07l-.22-.02-.31-.06h-.25c-.45-.02-.89-.02-1.34-.02-10.51,0-20.88,4.47-28.45,12.27-7.55,7.77-11.71,18.22-11.41,28.67v.31s.07.31.07.31c.06.3.07.59.09.89.02.35.06.7.1,1.05.01.21.05.58.1.95.05.42.1.83.1,1.25v.15l-.44,5.86c-.03.12-.22.8-.28,1.01-.3,1.26-.63,2.38-1,3.39-.2.56-.41,1.04-.65,1.55-.48,1.04-.99,2.04-1.58,3.05-.26.41-.56.9-.87,1.37-1.02,1.48-2.03,2.72-3.11,3.81-5.16,5.17-12.03,8.02-19.35,8.02h0Z" fill="#2854e5"/>
    <path d="M189.8,290.52c-7.32,0-14.2-2.85-19.38-8.03-5.17-5.17-8.02-12.04-8.02-19.36,0-7.31,2.84-14.18,8.01-19.34,1.06-1.06,2.25-2.04,3.89-3.17.41-.28.84-.54,1.3-.81,1.01-.6,1.97-1.11,2.98-1.57.53-.24,1.06-.48,1.59-.68,1.02-.37,2.12-.7,3.3-.96,0,0,.96-.28,1.09-.31l6.19-.45c.73.03,1.52.14,2.34.25l.46.06c.3.03.56.05.81.06.1,0,.2,0,.3.02l.19.03.26.03c.45.01.91.02,1.37.02,10.49,0,20.84-4.47,28.4-12.26,7.55-7.76,11.7-18.21,11.41-28.67l-.04-1.28-.11-.14s0-.09,0-.14c-.02-.3-.03-.6-.06-.9l-.1-.88c-.06-.48-.12-.96-.14-1.44l.43-5.93c.03-.14.25-.88.3-1.1.35-1.42.65-2.45,1-3.37.19-.55.43-1.06.67-1.59.44-.96.95-1.93,1.58-3l.12-.2c.21-.36.41-.72.66-1.06,1.12-1.63,2.12-2.86,3.17-3.91,5.18-5.18,12.06-8.03,19.38-8.03s14.19,2.85,19.36,8.01c10.67,10.67,10.67,28.06,0,38.74-1.04,1.03-2.27,2.03-3.88,3.14-.31.21-.61.39-.9.57l-.48.3c-.92.54-1.91,1.07-2.88,1.51-.55.25-1.06.48-1.61.69-.96.36-2.01.67-3.35.98-.27.06-.48.13-.7.19-.15.04-.29.08-.43.12l-6.09.42c-.89-.04-1.85-.17-2.79-.29-.32-.04-.56-.05-.81-.06-.09,0-.19,0-.28-.02l-.52-.05c-.45-.02-.9-.03-1.35-.03-10.5,0-20.85,4.47-28.42,12.26-7.54,7.77-11.69,18.22-11.39,28.68v.31s.07.3.07.3c.06.31.07.63.09.94.02.32.05.64.08.95.02.26.06.59.09.91.06.46.11.93.12,1.39l-.45,6.01c-.03.13-.27.94-.27.94-.29,1.27-.62,2.39-1,3.44-.18.49-.4.97-.62,1.46l-.08.17c-.45.98-.96,1.95-1.53,2.89-.28.47-.55.92-.85,1.36-1.07,1.56-2.08,2.8-3.16,3.89-5.15,5.15-12.01,7.99-19.32,7.99h0Z" fill="#2854e5"/>
    <path d="M115.87,216.58c-7.32,0-14.19-2.85-19.37-8.01-5.17-5.18-8.02-12.06-8.03-19.37,0-7.31,2.84-14.18,8.01-19.34,1.06-1.06,2.29-2.06,3.88-3.16.41-.28.88-.56,1.35-.84.95-.56,1.91-1.07,2.94-1.55.53-.24,1.06-.48,1.61-.69,1.01-.37,2.12-.7,3.27-.95l.7-.2c.13-.04.25-.08.38-.11l6.2-.45c.81.03,1.68.15,2.59.27l.19.03c.32.03.56.05.81.06.09,0,.18,0,.27.02l.27.05h.25c.46.02.91.03,1.37.03,10.48,0,20.84-4.47,28.4-12.26,7.54-7.77,11.7-18.22,11.39-28.67v-.3s-.07-.3-.07-.3c-.06-.33-.07-.67-.09-1.01-.02-.28-.03-.55-.06-.84l-.09-.84c-.06-.5-.13-1.01-.14-1.52l.41-5.75.04-.13v-.11c.03-.13.26-.9.26-.9.35-1.47.66-2.54,1.01-3.47.19-.52.44-1.03.68-1.57.45-.98.97-1.98,1.57-2.99l.09-.16c.24-.39.47-.79.74-1.18,1.09-1.57,2.08-2.8,3.13-3.84,5.18-5.18,12.06-8.03,19.38-8.03s14.19,2.85,19.37,8.02c10.67,10.68,10.66,28.06-.01,38.73-1.06,1.06-2.32,2.08-3.86,3.13-.42.3-.78.51-1.15.73l-.2.12c-1,.6-1.99,1.12-2.93,1.55-.55.25-1.07.49-1.59.68-1.03.38-2.12.7-3.35.99-.26.06-.49.13-.72.2-.14.04-.28.08-.43.12l-6.07.42c-.77-.04-1.59-.14-2.45-.25l-.37-.05c-.28-.03-.54-.05-.79-.06-.1,0-.2,0-.3-.02l-.2-.03-.27-.02c-.45-.02-.9-.03-1.36-.03-10.49,0-20.84,4.47-28.41,12.25-7.55,7.77-11.7,18.22-11.41,28.68v.31s.06.3.06.3c.06.31.08.62.1.93.02.32.05.64.08.96.03.25.06.58.1.9.05.46.11.91.12,1.36l-.44,5.97c-.03.15-.08.31-.13.47l-.15.53c-.3,1.34-.63,2.45-.99,3.44-.19.52-.45,1.05-.7,1.6-.45.98-.96,1.96-1.55,2.95-.28.48-.55.92-.83,1.34-1.12,1.63-2.09,2.82-3.15,3.87-5.17,5.17-12.04,8.01-19.34,8.01h0Z" fill="#2854e5"/>
  </g>
</svg>