<?xml version="1.0" encoding="UTF-8"?>
<svg id="techies" xmlns="http://www.w3.org/2000/svg" viewBox="0 0 379 379">
  <rect width="379" height="379" fill="#c2ffe8"/>
  <g>
    <path d="M250.84,272.79c-6.03,0-11.71-2.35-15.97-6.61-4.27-4.26-6.62-9.93-6.62-15.97s2.35-11.7,6.61-15.95c4.27-4.27,9.94-6.62,15.97-6.62s11.7,2.34,15.96,6.61c8.8,8.81,8.8,23.14,0,31.94-4.26,4.26-9.93,6.6-15.95,6.6Z" fill="#23b584"/>
    <path d="M128.19,152.41c-6.03,0-11.71-2.35-15.97-6.62-4.26-4.26-6.61-9.93-6.61-15.96s2.34-11.7,6.6-15.95c4.27-4.27,9.95-6.62,15.98-6.62s11.7,2.35,15.95,6.61c4.27,4.27,6.62,9.94,6.62,15.97s-2.35,11.7-6.62,15.97c-4.26,4.26-9.93,6.61-15.95,6.61Z" fill="#23b584"/>
    <path d="M249.83,151.74c-6.04,0-11.71-2.35-15.97-6.61-8.8-8.8-8.81-23.12-.01-31.92,4.27-4.27,9.94-6.62,15.98-6.62s11.7,2.35,15.96,6.61c8.8,8.8,8.8,23.13,0,31.94-4.26,4.25-9.93,6.6-15.96,6.6Z" fill="#23b584"/>
    <path d="M128.78,272.79c-6.03,0-11.71-2.35-15.98-6.61-4.26-4.26-6.61-9.93-6.61-15.96,0-6.03,2.35-11.7,6.62-15.96.89-.9,1.9-1.72,3.18-2.59.39-.27.74-.48,1.11-.71.84-.48,1.67-.92,2.45-1.27.42-.19.86-.38,1.31-.56.81-.3,1.72-.57,2.75-.82.21-.06.39-.1.57-.16.12-.03.23-.07.35-.1l5.03-.34c.64.03,1.32.11,2.05.2l.29.04c.17.02.4.04.63.05h.2s.23.06.23.06h.2c.37.01.73.02,1.1.02,8.66,0,17.22-3.69,23.46-10.12,6.22-6.4,9.65-15.01,9.4-23.63v-.25s-.05-.27-.05-.27c-.05-.24-.06-.49-.08-.73-.02-.29-.05-.58-.08-.87l-.06-.51c-.05-.43-.1-.86-.13-1.29l.39-5.04c.02-.13.07-.24.1-.36l.09-.31c.23-.95.48-1.91.84-2.84.19-.53.36-.92.56-1.31.4-.88.82-1.68,1.31-2.5.21-.36.42-.72.67-1.07.91-1.33,1.74-2.35,2.6-3.21,4.26-4.26,9.93-6.61,15.97-6.61s11.71,2.34,15.97,6.6c8.79,8.8,8.79,23.13-.02,31.94-.89.89-1.9,1.71-3.18,2.59-.38.26-.73.47-1.09.68-.81.49-1.63.92-2.44,1.29-.44.2-.88.4-1.31.56-.86.32-1.78.59-2.74.81l-.54.15c-.12.03-.24.07-.36.1l-5.07.36c-.59-.02-1.22-.1-1.88-.19l-.45-.06c-.15-.02-.39-.04-.63-.06l-.18-.02-.26-.05h-.2c-.37-.01-.73-.02-1.1-.02-8.66,0-17.21,3.69-23.46,10.11-6.23,6.4-9.65,15.02-9.41,23.64v.26s.05.25.05.25c.05.25.06.49.08.73.02.29.05.58.08.86.01.17.04.48.08.79.04.35.08.68.08,1.03v.12l-.36,4.83c-.02.1-.19.66-.23.83-.24,1.04-.52,1.97-.83,2.79-.17.46-.34.86-.54,1.28-.39.86-.82,1.68-1.3,2.52-.21.34-.46.74-.72,1.13-.84,1.22-1.67,2.24-2.56,3.14-4.25,4.26-9.92,6.61-15.95,6.61h0Z" fill="#23b584"/>
    <path d="M189.75,272.79c-6.04,0-11.71-2.35-15.98-6.62-4.26-4.26-6.61-9.93-6.61-15.96,0-6.03,2.34-11.69,6.6-15.95.87-.87,1.86-1.68,3.21-2.61.33-.23.7-.45,1.07-.66.83-.5,1.63-.92,2.46-1.3.44-.2.87-.4,1.31-.56.84-.31,1.75-.58,2.72-.79,0,0,.79-.23.9-.25l5.11-.37c.6.03,1.25.12,1.93.2l.38.05c.25.02.46.05.67.05.08,0,.17,0,.25.01l.16.02.21.02c.37,0,.75.02,1.13.02,8.65,0,17.18-3.69,23.42-10.11,6.22-6.4,9.65-15.02,9.4-23.64l-.03-1.05-.09-.12s0-.08,0-.12c-.01-.24-.03-.49-.05-.74l-.08-.72c-.05-.4-.1-.79-.11-1.19l.35-4.89c.03-.12.2-.72.24-.91.29-1.17.54-2.02.83-2.78.16-.45.36-.87.56-1.31.36-.79.78-1.59,1.3-2.47l.1-.16c.17-.3.34-.59.55-.88.92-1.35,1.75-2.36,2.61-3.23,4.27-4.27,9.94-6.62,15.98-6.62s11.7,2.35,15.96,6.61c8.8,8.8,8.8,23.13,0,31.94-.85.85-1.87,1.67-3.2,2.59-.26.18-.5.32-.74.47l-.4.25c-.76.45-1.58.88-2.38,1.25-.45.2-.88.4-1.33.57-.79.3-1.66.55-2.76.81-.22.05-.4.11-.57.16-.12.03-.24.07-.36.1l-5.02.35c-.73-.03-1.53-.14-2.3-.24-.26-.03-.47-.04-.67-.05-.08,0-.15,0-.23-.01l-.43-.05c-.37-.01-.74-.02-1.11-.02-8.65,0-17.19,3.69-23.43,10.11-6.22,6.4-9.64,15.02-9.39,23.64v.25s.06.25.06.25c.05.25.06.52.08.77.02.27.04.53.07.78.02.21.05.49.08.75.05.38.09.77.1,1.15l-.37,4.96c-.03.11-.22.78-.22.78-.24,1.05-.51,1.97-.83,2.83-.15.41-.33.8-.51,1.21l-.06.14c-.37.81-.79,1.61-1.26,2.39-.23.39-.46.76-.7,1.12-.89,1.28-1.72,2.3-2.61,3.2-4.24,4.25-9.9,6.59-15.93,6.59h0Z" fill="#23b584"/>
    <path d="M128.79,211.83c-6.03,0-11.7-2.35-15.97-6.61-4.27-4.27-6.62-9.94-6.62-15.97,0-6.03,2.34-11.69,6.6-15.95.87-.87,1.89-1.7,3.2-2.6.34-.23.73-.47,1.11-.7.78-.46,1.58-.88,2.43-1.28.44-.2.87-.4,1.33-.57.83-.3,1.75-.57,2.7-.79l.57-.16c.11-.03.21-.07.31-.09l5.11-.37c.66.03,1.38.12,2.13.22l.16.02c.26.03.47.04.67.05.07,0,.15,0,.22.01l.22.04h.21c.38.02.75.02,1.13.02,8.64,0,17.18-3.68,23.42-10.11,6.22-6.4,9.64-15.02,9.39-23.64v-.25s-.06-.24-.06-.24c-.05-.27-.06-.55-.08-.83-.01-.23-.03-.45-.05-.69l-.08-.7c-.05-.41-.1-.83-.12-1.25l.34-4.74.03-.11v-.09c.03-.11.21-.74.21-.74.29-1.21.54-2.09.83-2.86.16-.43.36-.85.56-1.29.37-.81.8-1.63,1.29-2.47l.08-.13c.2-.33.39-.65.61-.98.9-1.3,1.72-2.31,2.58-3.17,4.27-4.27,9.94-6.62,15.98-6.62s11.7,2.35,15.97,6.61c8.8,8.8,8.79,23.13-.01,31.93-.87.87-1.91,1.72-3.18,2.58-.35.24-.64.42-.95.6l-.17.1c-.83.49-1.64.92-2.41,1.28-.46.21-.88.4-1.31.56-.85.32-1.75.58-2.76.82-.21.05-.41.11-.6.16-.12.03-.23.07-.35.1l-5,.35c-.63-.03-1.31-.12-2.02-.21l-.31-.04c-.23-.03-.44-.04-.65-.05-.08,0-.17,0-.25-.02l-.17-.02-.22-.02c-.37-.01-.75-.02-1.12-.02-8.65,0-17.18,3.68-23.42,10.1-6.22,6.4-9.65,15.03-9.4,23.65v.25s.05.25.05.25c.05.25.06.51.08.77.02.27.04.52.07.79.02.21.05.48.08.75.04.38.09.75.1,1.12l-.36,4.92c-.03.13-.07.25-.11.39l-.13.44c-.25,1.1-.52,2.02-.82,2.83-.16.43-.37.87-.57,1.32-.37.81-.79,1.61-1.28,2.43-.23.39-.45.76-.69,1.11-.93,1.34-1.72,2.33-2.6,3.19-4.26,4.26-9.93,6.6-15.95,6.6h0Z" fill="#23b584"/>
  </g>
</svg>