<?xml version="1.0" encoding="UTF-8"?>
<svg xmlns="http://www.w3.org/2000/svg" version="1.1" viewBox="0 0 389 389">
  <defs>
    <style>
      .cls-1, .cls-2 {
        fill: #b8bac1;
      }

      .cls-3 {
        fill: #222028;
      }

      .cls-4 {
        stroke: #bbbdc4;
        stroke-dasharray: 8;
        stroke-linecap: round;
        stroke-linejoin: round;
      }

      .cls-4, .cls-5 {
        fill: none;
      }

      .cls-6 {
        fill: #fff;
      }

      .cls-7 {
        fill: #70767c;
      }

      .cls-2 {
        isolation: isolate;
        opacity: .2;
      }

      .cls-8 {
        fill: #7c3aed;
      }

      .cls-5 {
        stroke: #dedce5;
        stroke-miterlimit: 10;
      }
    </style>
  </defs>
  <!-- Generator: Adobe Illustrator 28.7.4, SVG Export Plug-In . SVG Version: 1.2.0 Build 166)  -->
  <g>
    <g id="Layer_1">
      <g id="e3544d63-4d15-4617-821f-1324f28b27d0">
        <path class="cls-4" d="M54.7,125.5h279.6c11.7,0,21.2,9.5,21.2,21.2v108.6c0,11.7-9.5,21.2-21.2,21.2H54.7c-11.7,0-21.2-9.5-21.2-21.2v-108.6c0-11.7,9.5-21.2,21.2-21.2Z"/>
        <path class="cls-8" d="M92,239.5h210c18.5,0,33.5,15,33.5,33.5h0c0,18.5-15,33.5-33.5,33.5H92c-18.5,0-33.5-15-33.5-33.5h0c0-18.5,15-33.5,33.5-33.5Z"/>
        <path class="cls-6" d="M141.4,279.7v-1.3l5.1-5.5c.6-.6,1.1-1.2,1.5-1.7.3-.4.6-.9.9-1.4.2-.4.3-.9.3-1.3s-.1-1-.4-1.4c-.3-.4-.6-.7-1.1-.9-.5-.2-1-.3-1.5-.3s-1.1.1-1.5.4c-.4.2-.8.6-1,1-.2.5-.4,1-.4,1.5h-1.8c0-.8.2-1.6.6-2.4.4-.7,1-1.2,1.7-1.6s1.6-.6,2.4-.6,1.6.2,2.4.6c.7.4,1.2.9,1.6,1.5.4.6.6,1.4.6,2.1s-.1,1.1-.3,1.6c-.3.6-.6,1.2-1.1,1.8-.5.6-1.2,1.5-2.1,2.4l-3.3,3.8h0c0,.1,7.1.1,7.1.1v1.6h-9.7Z"/>
        <path class="cls-6" d="M155.4,279.9c-.4,0-.7-.1-.9-.4-.3-.3-.4-.6-.4-1,0-.7.6-1.3,1.3-1.3s.7.1.9.4c.3.2.4.6.4,1s-.1.5-.2.7c-.1.2-.3.4-.5.5-.1,0-.3,0-.6,0Z"/>
        <path class="cls-6" d="M164.5,280c-.9,0-1.8-.2-2.6-.5-.7-.3-1.4-.8-1.8-1.4-.5-.6-.7-1.3-.7-2.1h1.9c0,.5.2.9.5,1.3s.7.6,1.2.8c.5.2,1.1.3,1.6.3s1.2-.1,1.8-.3c.5-.2.9-.6,1.2-1s.4-.9.4-1.4c0-1.1-.6-2.1-1.6-2.5-.6-.3-1.3-.4-2-.4h-1.4v-1.6h1.2c.6,0,1.1-.1,1.6-.3.4-.2.8-.5,1.1-.9s.4-.9.4-1.4-.1-.9-.4-1.4c-.2-.4-.6-.7-1-.9-.5-.2-1-.3-1.5-.3s-1,.1-1.5.3c-.4.2-.8.5-1.1.8-.3.4-.5.8-.5,1.3h-1.8c0-.8.3-1.5.7-2.1.5-.6,1.1-1.1,1.8-1.4.8-.3,1.6-.5,2.4-.5s1.7.2,2.4.6c1.3.7,2.1,2,2.1,3.5s-.2,1.6-.7,2.2-1.1,1.1-1.8,1.3h0c.9.2,1.7.7,2.3,1.3.6.7.8,1.6.8,2.4s-.2,1.6-.7,2.2c-.5.7-1.1,1.2-1.8,1.6-.7.3-1.6.5-2.5.5Z"/>
        <path class="cls-6" d="M172.9,268.1v-.8c0-.5.1-1.1.4-1.5.2-.5.6-.8,1-1.1.5-.3,1.1-.4,1.6-.4s1.1.1,1.6.4c.4.3.8.7,1,1.1.2.5.3,1,.3,1.5v.8c0,.5-.1,1.1-.3,1.5-.2.5-.6.8-1,1.1-.5.3-1,.4-1.6.4s-1.1-.1-1.6-.4c-.4-.3-.8-.7-1-1.1-.3-.4-.4-.9-.4-1.5ZM173.5,279.7l10.5-15.3h1.7l-10.5,15.3h-1.7ZM174.5,267.3v.8c0,.4.1.9.3,1.2.2.4.7.6,1.1.5.4,0,.9-.2,1.1-.5.2-.4.3-.8.3-1.2v-.8c0-.4-.1-.9-.3-1.2-.2-.4-.7-.6-1.1-.5-.4,0-.9.2-1.1.5-.2.4-.4.8-.3,1.2h0ZM180.5,276.9v-.8c0-.5.1-1.1.4-1.5.2-.5.6-.8,1-1.1.5-.3,1.1-.4,1.6-.4s1.1.1,1.6.4c.4.3.8.7,1,1.1.2.5.3,1,.3,1.5v.8c0,.5-.1,1.1-.3,1.5-.2.5-.6.8-1,1.1-.5.3-1.1.4-1.6.4s-1.1-.1-1.6-.4c-.4-.3-.8-.7-1-1.1-.3-.5-.4-1-.4-1.5h0ZM182.1,276.1v.8c0,.4.1.9.3,1.2.2.4.7.6,1.1.5.4,0,.9-.2,1.1-.5.2-.4.3-.8.3-1.2v-.8c0-.4-.1-.9-.3-1.2-.2-.4-.7-.6-1.1-.5-.4,0-.9.2-1.1.5-.3.3-.4.7-.3,1.2h0Z"/>
        <path class="cls-6" d="M196,279.7v-15.3h5.2c1,0,2,.2,2.9.6.7.4,1.3.9,1.7,1.7.4.7.6,1.6.6,2.4s-.2,1.7-.6,2.4c-.4.7-1,1.3-1.7,1.6-.9.4-1.9.6-2.9.6h-4.2v-1.7h4.1c.7,0,1.4-.1,2-.4.5-.2.8-.6,1.1-1,.2-.5.4-1,.3-1.6,0-.6-.1-1.1-.3-1.6s-.6-.8-1.1-1.1c-.6-.3-1.3-.4-2-.4h-3.3v13.6l-1.8.2ZM203.2,272.9l3.8,6.9h-2.1l-3.7-6.9h2Z"/>
        <path class="cls-6" d="M213.8,280c-1,0-2-.2-2.9-.7-.8-.5-1.4-1.2-1.8-2.1-.4-1-.7-2-.6-3.1,0-1.1.2-2.1.6-3.1.4-.9,1-1.6,1.8-2.1s1.8-.8,2.7-.8,1.2.1,1.8.3c.6.2,1.1.6,1.6,1,.5.5.9,1.1,1.1,1.8.3.9.4,1.8.4,2.7v.7h-8.8v-1.5h7c0-.6-.1-1.2-.4-1.7-.5-1-1.6-1.7-2.8-1.6-.6,0-1.3.2-1.8.5s-.9.8-1.2,1.4-.4,1.2-.4,1.8v1c0,.8.1,1.5.4,2.2.3.6.7,1,1.3,1.4,1,.5,2.1.6,3.1.3.4-.1.7-.3,1-.6.3-.3.5-.6.6-1l1.7.5c-.2.6-.5,1.1-.9,1.5s-1,.8-1.6,1c-.5.1-1.2.2-1.9.2Z"/>
        <path class="cls-6" d="M230.3,268.3l-4.3,11.4h-1.8l-4.2-11.4h1.9l3.2,9.1h.1l3.2-9.1h1.9Z"/>
        <path class="cls-6" d="M236.8,280c-1,0-1.9-.2-2.7-.7s-1.4-1.2-1.8-2.1c-.5-1-.7-2-.6-3.1,0-1.1.2-2.2.6-3.1,1.3-2.5,4.4-3.5,6.9-2.2.1.1.2.1.3.2.8.5,1.4,1.2,1.8,2.1.5,1,.7,2.1.6,3.1,0,1.1-.2,2.1-.6,3.1-.4.8-1,1.6-1.8,2.1-.8.4-1.7.6-2.7.6ZM236.8,278.4c.7,0,1.4-.2,1.9-.6s.9-1,1.1-1.6c.5-1.4.5-2.9,0-4.3-.2-.6-.6-1.2-1.1-1.6-1.2-.8-2.7-.8-3.9,0-.5.4-.9,1-1.1,1.6-.5,1.4-.5,2.9,0,4.3.2.6.6,1.2,1.1,1.6.6.4,1.3.6,2,.6h0Z"/>
        <path class="cls-6" d="M246.4,264.5v15.3h-1.8v-15.3h1.8Z"/>
        <path class="cls-6" d="M259,268.3l-4.2,11.5h-1.8l-4.2-11.5h1.9l3.2,9.1h.2l3.2-9.1h1.7Z"/>
        <path class="cls-6" d="M262.3,266.4c-.3,0-.6-.1-.9-.4-.5-.4-.5-1.1-.1-1.6h.1c.2-.3.5-.5.9-.5s.7.1.9.4c.5.4.5,1.1.1,1.6h-.1c-.3.4-.6.5-.9.5ZM261.4,279.7v-11.4h1.8v11.5h-1.8Z"/>
        <path class="cls-6" d="M268.1,272.9v6.9h-1.8v-11.5h1.7v1.8h.1c.3-.6.7-1.1,1.2-1.4.6-.4,1.4-.6,2.1-.5.7,0,1.4.2,2,.5s1.1.8,1.4,1.4c.4.8.5,1.6.5,2.4v7.3h-1.8v-7.1c0-.8-.2-1.5-.7-2.1-.5-.5-1.2-.8-1.9-.8s-1,.1-1.5.4c-.4.3-.8.6-1,1.1-.2.4-.3,1-.3,1.6Z"/>
        <path class="cls-6" d="M283.3,284.3c-.7,0-1.5-.1-2.2-.3-.6-.2-1.1-.5-1.5-.9-.4-.3-.7-.7-1-1.1l1.4-1c.2.2.4.4.6.7.3.3.6.5,1,.7.5.2,1.1.3,1.7.3s1.6-.2,2.3-.7c.6-.5,1-1.3.9-2.1v-2.3h-.1c-.2.3-.3.5-.5.8-.3.3-.6.6-1,.8-.6.3-1.2.4-1.8.4-.9,0-1.7-.2-2.5-.7s-1.4-1.1-1.7-1.9c-.4-.9-.7-2-.6-3,0-1.1.2-2.1.6-3.1.4-.8,1-1.5,1.7-2,.8-.5,1.6-.7,2.5-.7s1.2.1,1.8.4c.4.2.7.5,1,.8.2.3.4.6.5.8h.2v-1.8h1.7v11.8c0,.9-.2,1.7-.7,2.4-.5.6-1.1,1.1-1.8,1.4-.9.2-1.7.3-2.5.3ZM283.2,278c.6,0,1.3-.1,1.8-.5.5-.3.9-.8,1.1-1.4.3-.7.4-1.4.4-2.2s-.1-1.5-.4-2.2c-.2-.6-.6-1.1-1.1-1.5-1.1-.7-2.6-.7-3.7,0-.5.4-.9.9-1.1,1.5-.3.7-.4,1.4-.4,2.1s.1,1.4.4,2.1c.5,1.4,1.7,2.2,3,2.1h0Z"/>
        <path class="cls-6" d="M101.8,57h187.3c4.3,0,7.8,3.5,7.8,7.8v131.3c0,4.3-3.5,7.8-7.8,7.8H101.8c-4.3,0-7.8-3.5-7.8-7.8V64.8c0-4.3,3.5-7.8,7.8-7.8Z"/>
        <path class="cls-5" d="M101.8,57h187.3c4.3,0,7.8,3.5,7.8,7.8v131.3c0,4.3-3.5,7.8-7.8,7.8H101.8c-4.3,0-7.8-3.5-7.8-7.8V64.8c0-4.3,3.5-7.8,7.8-7.8Z"/>
        <path class="cls-7" d="M116.6,79.4h-1c0-.3-.2-.5-.3-.8,0-.2-.3-.4-.5-.6s-.4-.3-.7-.3c-.3,0-.5,0-.8,0-.5,0-1,0-1.4.4s-.8.7-1,1.1c-.3.6-.4,1.2-.4,1.8s0,1.3.4,1.8c.2.5.6.9,1,1.1.4.3.9.4,1.4.4s.5,0,.8,0,.5-.2.7-.3c.4-.3.7-.8.8-1.3h1c0,.4-.2.8-.4,1.2-.4.7-1,1.2-1.8,1.4-.4,0-.8.2-1.2.2-.7,0-1.3-.2-1.9-.5-.6-.4-1-.9-1.3-1.5-.3-.7-.5-1.5-.5-2.3s0-1.6.5-2.3c.3-.6.7-1.1,1.3-1.5.6-.4,1.2-.5,1.9-.5s.8,0,1.2.2c.4,0,.7.3,1,.5s.6.5.8.9c.1.3.3.7.4,1.1Z"/>
        <path class="cls-7" d="M118.2,85.2v-8.4h2.8c.6,0,1.1,0,1.6.3.4.2.7.5.9.9.4.8.4,1.8,0,2.6-.2.4-.5.7-.9.9-.5.2-1,.4-1.6.3h-2.3v-.8h2.3c.4,0,.7,0,1.1-.2.3,0,.5-.3.6-.6,0-.3.2-.6.2-.9s0-.6-.2-.9-.3-.5-.6-.6c-.3-.2-.7-.2-1.1-.2h-1.8v7.5h-1ZM122.1,81.4l2.1,3.8h-1.2l-2-3.8h1.1Z"/>
        <path class="cls-7" d="M125.5,85.2v-8.4h5v.9h-4v2.8h3.8v.9h-3.8v2.8h4.1v.9h-5.1Z"/>
        <path class="cls-7" d="M135,85.2h-2.6v-8.4h2.7c.7,0,1.4.2,2.1.5.6.3,1,.8,1.3,1.4.3.7.5,1.5.5,2.2s-.1,1.5-.5,2.2c-.3.6-.8,1.1-1.4,1.4-.6.5-1.3.7-2.1.7ZM133.4,84.3h1.5c.6,0,1.2,0,1.7-.4.4-.3.8-.7,1-1.1.2-.6.4-1.1.4-1.8s-.1-1.2-.3-1.8c-.2-.5-.6-.9-1-1.1-.5-.3-1.1-.4-1.6-.4h-1.6v6.6Z"/>
        <path class="cls-7" d="M141.7,76.8v8.4h-1v-8.4h1Z"/>
        <path class="cls-7" d="M143.2,77.7v-.9h6.3v.9h-2.6v7.5h-1v-7.5h-2.7Z"/>
        <path class="cls-7" d="M154.3,85.2v-8.4h2.9c.5,0,1,0,1.4.3.4.2.7.5.9.8s.3.7.3,1.1-.1.6-.2.9c-.1.2-.3.4-.5.6-.2,0-.4.2-.7.3h0c.3,0,.5.2.8.4.3.2.5.4.6.7.2.3.3.7.3,1.1s-.1.8-.3,1.1c-.2.4-.5.6-.9.8-.5.2-1.1.3-1.6.3,0,0-3,0-3,0ZM155.3,80.5h1.9c.3,0,.6,0,.8-.2s.4-.3.6-.5c.1-.2.2-.5.2-.8s-.1-.7-.4-.9c-.3-.3-.8-.4-1.2-.4h-1.9v2.8h0ZM155.3,84.3h2c.5,0,1,0,1.4-.4.3-.2.4-.6.4-.9s-.1-.6-.2-.8c-.1-.2-.4-.4-.6-.6-.3-.2-.6-.2-.9-.2h-2.1v2.9Z"/>
        <path class="cls-7" d="M162.1,85.2h-1.1l3.1-8.4h1l3.1,8.4h-1.1l-2.5-7h-.1l-2.4,7ZM162.5,81.9h4.3v.9h-4.3v-.9Z"/>
        <path class="cls-7" d="M169.6,85.2v-8.4h1v7.5h3.9v.9h-4.9Z"/>
        <path class="cls-7" d="M176.9,85.2h-1.1l3.1-8.4h1.1l3.1,8.4h-1.1l-2.5-7h-.1l-2.5,7ZM177.3,81.9h4.3v.9h-4.3v-.9Z"/>
        <path class="cls-7" d="M190.9,76.8v8.4h-1l-4.6-6.6h-.1v6.6h-1v-8.4h1l4.6,6.6h.1v-6.6h1Z"/>
        <path class="cls-7" d="M199.7,79.4h-1c-.1-.3-.2-.5-.3-.8-.1-.2-.3-.4-.5-.6-.2,0-.5-.3-.7-.3-.3,0-.5,0-.8,0-.5,0-1,0-1.4.4s-.8.7-1,1.1c-.3.6-.4,1.2-.4,1.8s.1,1.3.4,1.8c.2.5.6.9,1,1.1.4.3.9.4,1.4.4s.5,0,.8,0,.5-.2.7-.3c.2-.2.4-.3.5-.6.1-.2.3-.5.3-.8h1c-.1.4-.2.8-.4,1.2-.2.3-.4.6-.8.8-.3.2-.6.4-1,.5s-.8.2-1.2.2c-.7,0-1.3-.2-1.9-.5-.6-.4-1-.9-1.3-1.5-.3-.7-.5-1.5-.5-2.3s.1-1.6.5-2.3c.6-1.2,1.8-2,3.2-2s.8,0,1.2.2.7.3,1,.5.6.5.8.9c.2.6.3.9.4,1.3Z"/>
        <path class="cls-7" d="M201.3,85.2v-8.4h5.1v.9h-4v2.8h3.8v.9h-3.8v2.8h4.1v.9h-5.2Z"/>
        <path class="cls-3" d="M122.9,168.4c0-.9-.6-1.7-1.4-2.2-.9-.5-1.9-.8-2.9-.8s-1.5.1-2.2.4c-.6.2-1.1.6-1.5,1.1-.3.5-.5,1-.5,1.6s0,.9.4,1.3c.2.4.6.7.9.9.4.2.8.4,1.2.6.4.1.8.3,1.2.4l1.9.5c.6.2,1.1.3,1.7.5s1.2.5,1.8.9c.6.4,1,.9,1.4,1.5.4.7.6,1.5.5,2.3,0,1-.3,2-.8,2.8-.6.9-1.4,1.6-2.3,2-1.2.5-2.4.8-3.7.7-1.2,0-2.4-.2-3.5-.7-.9-.4-1.7-1-2.3-1.8-.6-.8-.9-1.8-1-2.7h2.4c0,.7.3,1.3.7,1.8.4.5,1,.8,1.6,1,.7.2,1.4.3,2.1.3s1.6-.1,2.4-.4c.6-.3,1.2-.7,1.7-1.2.4-.5.6-1.2.6-1.8s-.2-1.1-.5-1.5c-.4-.4-.9-.8-1.4-1-.6-.3-1.2-.5-1.9-.6l-2.3-.7c-1.3-.3-2.5-1-3.5-1.8-.9-.8-1.3-1.9-1.3-3.1s.3-2,.9-2.8,1.4-1.5,2.3-1.9c2.1-.9,4.5-.9,6.6,0,.9.4,1.7,1,2.3,1.8.6.7.9,1.6.9,2.6h-2.5ZM117.8,185v-23.8h1.5v23.8h-1.5Z"/>
        <path class="cls-3" d="M135,182.9c-1.2,0-2.3-.2-3.4-.7-.9-.4-1.7-1.1-2.3-1.9-.5-.8-.8-1.8-.8-2.7s.2-1.5.5-2.2.8-1.3,1.3-1.7,1.2-.8,1.9-.9h0c-.9-.3-1.7-.9-2.2-1.6-1-1.6-1.1-3.7-.1-5.3s1.2-1.4,2.1-1.8c1.9-.9,4.1-.9,5.9,0,.8.4,1.5,1,2,1.8s.8,1.7.8,2.6-.3,1.9-.8,2.7-1.3,1.3-2.1,1.5h0c.7.2,1.3.5,1.9,1,.6.5,1,1.1,1.3,1.7.3.7.5,1.5.5,2.2,0,1-.3,1.9-.8,2.7-.6.8-1.4,1.5-2.3,1.9-1.1.5-2.3.7-3.4.7ZM135,180.9c.8,0,1.5-.1,2.2-.4.6-.2,1.1-.7,1.4-1.2.3-.5.5-1.1.5-1.8s-.2-1.3-.6-1.9c-.4-.6-.9-1-1.5-1.3-1.4-.6-2.9-.6-4.3,0-.6.3-1.1.7-1.5,1.3s-.6,1.2-.5,1.9c0,.6.2,1.3.5,1.8.4.5.9.9,1.4,1.2.9.2,1.6.4,2.4.4h0ZM135,171.9c.6,0,1.3-.1,1.8-.4,1.1-.5,1.7-1.7,1.7-2.9s-.1-1.2-.4-1.7c-.3-.5-.7-.9-1.2-1.1-.6-.3-1.2-.4-1.8-.4s-1.3.1-1.9.4c-.5.2-.9.6-1.2,1.1s-.4,1.1-.4,1.7c-.1,1.2.6,2.3,1.7,2.9.4.2,1.1.3,1.7.4h0Z"/>
        <path class="cls-3" d="M145.6,182.6l8.5-16.8h0c0-.1-9.8-.1-9.8-.1v-2h12.2v2.1l-8.5,16.8h-2.4Z"/>
        <path class="cls-3" d="M158,178.7v-1.9l8.4-13.2h1.4v2.9h-.9l-6.3,10h0c0,.1,11.2.1,11.2.1v2h-13.8ZM166.9,182.6v-19h2.2v19h-2.2Z"/>
        <path class="cls-3" d="M177.6,180v1c-.2.7-.4,1.5-.6,2.3s-.4,1.6-.7,2.3-.4,1.3-.6,1.7h-1.7l.3-1.6c.1-.6.3-1.4.4-2.2s.2-1.6.3-2.4v-1c.1,0,2.6-.1,2.6-.1Z"/>
        <path class="cls-3" d="M187.3,182.9c-1.1,0-2.2-.2-3.3-.6-.9-.4-1.7-1-2.3-1.8s-.9-1.7-.9-2.6h2.3c0,.6.3,1.1.6,1.6.4.4.9.8,1.5,1,1.3.5,2.8.5,4.2-.1.6-.3,1.1-.7,1.5-1.2s.5-1.1.5-1.8-.2-1.3-.5-1.9c-.4-.6-.9-1-1.5-1.3-.8-.3-1.6-.5-2.4-.5h-1.5v-2h1.5c.7,0,1.4-.1,2-.4.5-.2,1-.6,1.4-1.1.3-.5.5-1.1.5-1.7s-.1-1.2-.4-1.7c-.3-.5-.7-.9-1.2-1.1-.6-.3-1.2-.4-1.8-.4s-1.3.1-1.9.4c-.5.2-1,.6-1.4,1-.4.5-.6,1-.6,1.6h-2.2c0-.9.3-1.9.9-2.6.6-.8,1.3-1.4,2.2-1.8.9-.4,2-.6,3-.6s2.1.2,3,.7c.8.4,1.5,1.1,1.9,1.9.4.8.7,1.6.7,2.5s-.3,1.9-.8,2.7c-.6.8-1.4,1.3-2.3,1.6h0c1.1.2,2.1.8,2.8,1.6.7.9,1,1.9,1,3s-.3,2-.8,2.8c-.6.8-1.4,1.5-2.3,1.9-1.1.6-2.3.9-3.4.9Z"/>
        <path class="cls-3" d="M197.1,178.7v-1.9l8.4-13.2h1.4v2.9h-.9l-6.3,10h0c0,.1,11.2.1,11.2.1v2h-13.8ZM206,182.6v-19h2.2v19h-2.2Z"/>
        <path class="cls-3" d="M220.7,163.6v19h-2.3v-16.6h-.1l-4.6,3.1v-2.3l4.8-3.2h2.2Z"/>
        <path class="cls-2" d="M277.4,168.2v14.4c0,.7-.5,1.2-1.2,1.2h-28.8c-.7,0-1.2-.5-1.2-1.2v-14.4h31.2Z"/>
        <path class="cls-1" d="M276.2,161h-28.8c-1.3,0-2.4,1.1-2.4,2.4h0v19.2c0,1.3,1.1,2.4,2.4,2.4h28.8c1.3,0,2.4-1.1,2.4-2.4h0v-19.2c0-1.3-1.1-2.4-2.4-2.4h0ZM276.2,163.4v3.6h-28.8v-3.6h28.8ZM276.2,182.6h-28.8v-13.2h28.8v13.2ZM273.8,179c0,.7-.5,1.2-1.2,1.2h-4.8c-.7,0-1.2-.5-1.2-1.2s.5-1.2,1.2-1.2h4.8c.7,0,1.2.5,1.2,1.2h0ZM264.2,179c0,.7-.5,1.2-1.2,1.2h-2.4c-.7,0-1.2-.5-1.2-1.2s.5-1.2,1.2-1.2h2.4c.7,0,1.2.5,1.2,1.2h0Z"/>
        <path class="cls-6" d="M122.7,283.1h-21.3c-1.9,0-3.4-1.5-3.4-3.4h0v-13.3c0-1.9,1.5-3.4,3.4-3.4h21.3c1.9,0,3.4,1.5,3.4,3.4h0v13.3c0,1.9-1.5,3.4-3.4,3.4h0ZM101.3,264.4c-1.1,0-1.9.9-1.9,1.9v13.3c0,1.1.9,1.9,1.9,1.9h21.3c1.1,0,1.9-.9,1.9-1.9v-13.3c0-1.1-.9-1.9-1.9-1.9h-21.3Z"/>
        <path class="cls-6" d="M112,277.8c-2.6,0-4.8-2.1-4.8-4.8s2.1-4.8,4.8-4.8,4.8,2.1,4.8,4.8h0c0,2.6-2.2,4.8-4.8,4.8ZM112,269.8c-1.8,0-3.2,1.5-3.2,3.2s1.5,3.2,3.2,3.2,3.2-1.5,3.2-3.2-1.4-3.2-3.2-3.2ZM120.7,273.8c-.4,0-.7-.3-.7-.8s0-.3.2-.5h0c.3-.3.7-.3,1.1-.1h0c.3.3.3.7,0,1.1-.3.2-.5.3-.7.3h0ZM103.3,273.8c-.2,0-.4-.1-.5-.2-.3-.3-.3-.8,0-1h0c.3-.3.8-.3,1.1,0,.3.3.3.8,0,1.1h0c-.2,0-.4.1-.7.1Z"/>
        <path class="cls-8" d="M113.9,121h7.4c2.1,0,3.9,1.7,3.9,3.9v13.2c0,2.1-1.7,3.9-3.9,3.9h-7.4c-2.1,0-3.9-1.7-3.9-3.9v-13.2c0-2.2,1.7-3.9,3.9-3.9Z"/>
        <path class="cls-8" d="M132.9,100h7.4c2.1,0,3.9,1.7,3.9,3.9v34.2c0,2.1-1.7,3.9-3.9,3.9h-7.4c-2.1,0-3.9-1.7-3.9-3.9v-34.2c0-2.2,1.7-3.9,3.9-3.9Z"/>
        <path class="cls-8" d="M151.8,109h7.4c2.1,0,3.9,1.7,3.9,3.9v25.2c0,2.1-1.7,3.9-3.9,3.9h-7.4c-2.1,0-3.9-1.7-3.9-3.9v-25.2c0-2.2,1.8-3.9,3.9-3.9Z"/>
        <path class="cls-8" d="M170.8,118h7.4c2.1,0,3.9,1.7,3.9,3.9v16.2c0,2.1-1.7,3.9-3.9,3.9h-7.4c-2.1,0-3.9-1.7-3.9-3.9v-16.2c0-2.2,1.8-3.9,3.9-3.9Z"/>
        <path class="cls-8" d="M189.8,122h7.4c2.1,0,3.9,1.7,3.9,3.9v12.2c0,2.1-1.7,3.9-3.9,3.9h-7.4c-2.1,0-3.9-1.7-3.9-3.9v-12.2c0-2.2,1.7-3.9,3.9-3.9Z"/>
        <path class="cls-8" d="M208.8,127h7.4c2.1,0,3.9,1.7,3.9,3.9v7.2c0,2.1-1.7,3.9-3.9,3.9h-7.4c-2.1,0-3.9-1.7-3.9-3.9v-7.2c0-2.2,1.7-3.9,3.9-3.9Z"/>
        <path class="cls-8" d="M227.7,130h7.4c2.1,0,3.9,1.7,3.9,3.9v4.2c0,2.1-1.7,3.9-3.9,3.9h-7.4c-2.1,0-3.9-1.7-3.9-3.9v-4.2c0-2.2,1.8-3.9,3.9-3.9Z"/>
        <path class="cls-8" d="M246.7,122h7.4c2.1,0,3.9,1.7,3.9,3.9v12.2c0,2.1-1.7,3.9-3.9,3.9h-7.4c-2.1,0-3.9-1.7-3.9-3.9v-12.2c0-2.2,1.8-3.9,3.9-3.9Z"/>
        <path class="cls-8" d="M265.7,116h7.4c2.1,0,3.9,1.7,3.9,3.9v18.2c0,2.1-1.7,3.9-3.9,3.9h-7.4c-2.1,0-3.9-1.7-3.9-3.9v-18.2c0-2.2,1.8-3.9,3.9-3.9Z"/>
      </g>
    </g>
  </g>
</svg>