<?xml version="1.0" encoding="UTF-8"?>
<svg xmlns="http://www.w3.org/2000/svg" version="1.1" viewBox="0 0 389 389">
  <defs>
    <style>
      .cls-1 {
        fill: #b8bac1;
      }

      .cls-2 {
        fill: #222028;
      }

      .cls-3, .cls-4 {
        fill: #fff;
      }

      .cls-5 {
        stroke-dasharray: 7.9 7.9;
      }

      .cls-5, .cls-6, .cls-7, .cls-8 {
        fill: none;
      }

      .cls-5, .cls-7 {
        stroke: #bbbdc4;
        stroke-linecap: round;
        stroke-linejoin: round;
      }

      .cls-6 {
        stroke: #7c3aed;
        stroke-width: 2px;
      }

      .cls-6, .cls-8 {
        stroke-miterlimit: 10;
      }

      .cls-9 {
        fill: #70767c;
      }

      .cls-10 {
        fill: #7c3aed;
      }

      .cls-4 {
        isolation: isolate;
        opacity: .2;
      }

      .cls-8 {
        stroke: #dedce5;
      }
    </style>
  </defs>
  <!-- Generator: Adobe Illustrator 28.7.4, SVG Export Plug-In . SVG Version: 1.2.0 Build 166)  -->
  <g>
    <g id="Layer_1">
      <g id="bd1b8123-aa72-4075-a677-6c7968c0ed53">
        <line class="cls-7" x1="64.5" y1="167.5" x2="64.5" y2="163.5"/>
        <path class="cls-5" d="M64.5,155.6v-44.3c0-10.3,8.4-18.7,18.7-18.8h224.5c10.3,0,18.7,8.4,18.8,18.7h0v48.3"/>
        <line class="cls-7" x1="326.5" y1="163.5" x2="326.5" y2="167.5"/>
        <path class="cls-10" d="M127,68.5h133c18.5,0,33.5,15,33.5,33.5h0c0,18.5-15,33.5-33.5,33.5H127c-18.5,0-33.5-15-33.5-33.5h0c0-18.5,15-33.5,33.5-33.5Z"/>
        <path class="cls-3" d="M150,101.9v-1.9h11.4v1.9h-11.4ZM154.7,106.6v-11.4h1.9v11.4h-1.9Z"/>
        <path class="cls-3" d="M175.5,96.5c-.1-.8-.6-1.6-1.3-2-.8-.5-1.8-.8-2.7-.7-.7,0-1.4,0-2.1.4-.5.2-1,.6-1.4,1-.3.4-.5,1-.5,1.5s.1.9.4,1.2c.2.3.5.6.9.8.4.2.7.4,1.1.6.4,0,.8.2,1.1.3l1.8.5c.5,0,1,.3,1.5.5.6.2,1.1.5,1.6.9s1,.8,1.3,1.4c.4.6.5,1.4.5,2.1s-.2,1.8-.7,2.6c-.5.8-1.3,1.4-2.2,1.8-2.2.9-4.6.9-6.8,0-.9-.4-1.6-1-2.2-1.7-.5-.7-.8-1.6-.9-2.6h2.2c0,.6.3,1.2.7,1.7s.9.8,1.5,1,1.3.3,2,.3,1.5,0,2.2-.4c.6-.2,1.1-.6,1.6-1.1.4-.5.6-1.1.6-1.7s-.2-1-.5-1.4c-.4-.4-.8-.7-1.3-.9-.6-.2-1.1-.4-1.7-.6l-2.2-.6c-1.2-.3-2.3-.9-3.3-1.7-.8-.7-1.3-1.8-1.2-2.9,0-.9.3-1.8.8-2.6.6-.8,1.3-1.4,2.2-1.7,1-.4,2-.6,3.1-.6s2.1.2,3,.6c.8.4,1.6.9,2.1,1.7.5.7.8,1.5.8,2.4l-2-.2ZM170.8,112v-22.2h1.4v22.2h-1.4Z"/>
        <path class="cls-3" d="M181.1,109.8v-1.6l5.8-6.4c.7-.8,1.2-1.4,1.7-2,.4-.5.7-1,1-1.6.2-.5.3-1,.3-1.6s-.1-1.1-.4-1.6c-.3-.4-.7-.8-1.2-1-.5-.3-1.1-.4-1.7-.4s-1.2,0-1.8.4c-.5.3-.9.7-1.2,1.2s-.4,1.1-.4,1.8h-2c0-1,.2-1.9.7-2.7.5-.8,1.1-1.4,1.9-1.8.9-.4,1.8-.7,2.8-.7s1.9.2,2.8.7c.8.4,1.4,1,1.9,1.8.5.7.7,1.6.7,2.5s-.1,1.3-.4,1.9c-.3.7-.7,1.4-1.2,2.1-.6.8-1.4,1.7-2.4,2.8l-4,4.3h0c0,0,8.2,0,8.2,0v1.9h-11.1Z"/>
        <path class="cls-3" d="M197.3,109.9c-.9,0-1.6-.7-1.6-1.6s.7-1.6,1.6-1.6,1.6.7,1.6,1.6-.1.5-.2.8c-.1.2-.3.4-.6.6-.2,0-.5.2-.8.2Z"/>
        <path class="cls-3" d="M207.7,110c-1,0-1.9-.2-2.8-.6-.8-.4-1.5-.9-1.9-1.7-.5-.7-.8-1.5-.8-2.4h2.1c.1.8.5,1.5,1.1,2,.7.5,1.5.8,2.3.8,1.4,0,2.6-.7,3.3-1.9.7-1.3.7-2.8,0-4.1-.3-.6-.8-1.1-1.4-1.4-.6-.4-1.3-.5-2-.5s-1.1,0-1.7.2c-.5,0-1,.4-1.4.7l-2-.2,1.1-8.7h9.2v1.8h-7.4l-.6,5.2h.1c.4-.3.9-.6,1.4-.7.5-.2,1.1-.3,1.7-.3,1,0,2,.3,2.9.8.8.5,1.5,1.2,2,2.1s.8,2,.7,3.1c0,1-.2,2.1-.8,3-.5.9-1.2,1.6-2.1,2.1-.9.5-1.9.7-3,.7Z"/>
        <path class="cls-3" d="M217.3,109.8v-17.7h2.1v8.8h.2l8-8.8h2.8l-7.4,8,7.4,9.7h-2.6l-6.1-8.2-2.2,2.5v5.7h-2.2Z"/>
        <path class="cls-4" d="M140.1,101.8c0,5.6-4.5,10.1-10.1,10.1s-10.1-4.5-10.1-10.1,4.5-10.1,10.1-10.1,10.1,4.6,10.1,10.1h0Z"/>
        <path class="cls-3" d="M130,90.8c-6.1,0-11,4.9-11,11s4.9,11,11,11,11-4.9,11-11-4.9-11-11-11ZM130,111c-5.1,0-9.2-4.1-9.2-9.2s4.1-9.2,9.2-9.2,9.2,4.1,9.2,9.2h0c0,5.1-4.1,9.2-9.2,9.2ZM135.2,96.6c.4.4.4.9,0,1.3h0l-4.6,4.6c-.3.4-.9.4-1.3,0-.4-.3-.4-.9-.1-1.3h.1c0,0,4.6-4.7,4.6-4.7.4-.4,1-.4,1.3,0ZM126.3,88.1c0-.5.4-.9.9-.9h5.5c.5,0,1,.3,1,.8.1.5-.3,1-.8,1h-5.7c-.5,0-.9-.4-.9-.9Z"/>
        <path class="cls-3" d="M260.3,91.3c.2,0,.5,0,.7.3l8.7,8.7c.1,0,.2.2.2.3s.1.2.1.4h0c0,0,0,.2-.1.4,0,0-.1.2-.2.3l-8.7,8.7c-.4.4-.9.4-1.3,0h0c-.4-.4-.4-1,0-1.3l7.1-7.1h-15.2c-.5,0-.9-.4-.9-.9s.4-.9.9-.9h15.2l-7.1-7.1c-.4-.4-.4-1,0-1.3,0-.4.4-.5.6-.5Z"/>
        <path class="cls-3" d="M47.3,160.5h128.4c4.9,0,8.8,3.9,8.8,8.8v128.4c0,4.9-3.9,8.8-8.8,8.8H47.3c-4.9,0-8.8-3.9-8.8-8.8v-128.4c0-4.9,3.9-8.8,8.8-8.8Z"/>
        <path class="cls-8" d="M47.3,160.5h128.4c4.9,0,8.8,3.9,8.8,8.8v128.4c0,4.9-3.9,8.8-8.8,8.8H47.3c-4.9,0-8.8-3.9-8.8-8.8v-128.4c0-4.9,3.9-8.8,8.8-8.8Z"/>
        <path class="cls-3" d="M212.3,160.5h128.4c4.9,0,8.8,3.9,8.8,8.8v128.4c0,4.9-3.9,8.8-8.8,8.8h-128.4c-4.9,0-8.8-3.9-8.8-8.8v-128.4c0-4.9,3.9-8.8,8.8-8.8Z"/>
        <path class="cls-8" d="M212.3,160.5h128.4c4.9,0,8.8,3.9,8.8,8.8v128.4c0,4.9-3.9,8.8-8.8,8.8h-128.4c-4.9,0-8.8-3.9-8.8-8.8v-128.4c0-4.9,3.9-8.8,8.8-8.8Z"/>
        <path class="cls-2" d="M67,274c0-.9-.6-1.7-1.3-2.2-.9-.5-1.9-.8-2.9-.8s-1.5.1-2.2.4c-.6.2-1.1.6-1.5,1.1-.3.5-.5,1-.5,1.6s0,.9.4,1.3c.3.4.6.7,1,.9.4.2.8.4,1.2.6.4.1.8.3,1.2.4l1.9.5c.6.2,1.1.3,1.7.5s1.2.5,1.8.9c.6.4,1,.9,1.4,1.5.4.7.6,1.5.6,2.2,0,1-.3,2-.8,2.8-.6.9-1.4,1.6-2.3,2-1.2.5-2.4.8-3.7.7-1.2,0-2.4-.2-3.5-.7-.9-.4-1.7-1-2.3-1.8s-.9-1.7-1-2.7h2.4c0,.7.3,1.3.7,1.8s1,.8,1.6,1c.7.2,1.4.3,2.1.3s1.6-.1,2.4-.4c.6-.3,1.2-.7,1.7-1.2.4-.5.6-1.2.6-1.8s-.2-1.1-.5-1.5c-.4-.4-.9-.8-1.4-1-.6-.3-1.2-.5-1.9-.6l-2.3-.7c-1.3-.3-2.5-.9-3.5-1.8-.9-.8-1.3-1.9-1.3-3.1s.3-2,.9-2.8c.6-.8,1.4-1.5,2.3-1.9,1-.5,2.2-.7,3.3-.7s2.2.2,3.3.6c.9.4,1.7,1,2.3,1.8.6.7.9,1.6.9,2.6l-2.8.2ZM61.9,290.6v-23.8h1.5v23.8h-1.5Z"/>
        <path class="cls-2" d="M79.7,269.2v19h-2.3v-16.6h0l-4.6,3.1v-2.3l4.8-3.1h2.2Z"/>
        <path class="cls-2" d="M85.1,288.2v-1.7l6.3-6.9c.7-.8,1.3-1.5,1.8-2.1.4-.5.8-1.1,1.1-1.7.2-.5.3-1.1.3-1.7s-.2-1.2-.5-1.7-.8-.9-1.3-1.1c-.6-.3-1.2-.4-1.8-.4s-1.3.1-1.9.5c-.5.3-1,.7-1.2,1.3-.3.6-.5,1.2-.4,1.9h-2.2c0-1,.2-2,.8-2.9.5-.8,1.2-1.5,2.1-2s2-.7,3-.7,2.1.2,3,.7c.8.4,1.5,1.1,2,1.9s.7,1.7.7,2.7,0,1.4-.4,2c-.3.8-.8,1.5-1.3,2.2-.8,1-1.6,2-2.6,3l-4.3,4.6h0c0,.1,8.8.1,8.8.1v2h-12Z"/>
        <path class="cls-2" d="M101.3,288.2v-19h2.3v9.4h.2l8.5-9.4h3l-8,8.6,8,10.4h-2.8l-6.6-8.8-2.4,2.7v6.2h-2.2Z"/>
        <path class="cls-2" d="M233,274c-.1-.9-.6-1.7-1.4-2.2-.9-.5-1.9-.8-2.9-.8s-1.5.1-2.2.4c-.6.2-1.1.6-1.5,1.1-.3.5-.5,1-.5,1.6s.1.9.4,1.3c.3.4.6.7.9.9.4.2.8.4,1.2.6.4.1.8.3,1.2.4l1.9.5c.6.2,1.1.3,1.7.5.6.2,1.2.5,1.8.9s1,.9,1.4,1.5c.4.7.6,1.5.6,2.2,0,1-.3,2-.8,2.8-.6.9-1.4,1.6-2.3,2-1.2.5-2.4.8-3.7.7-1.2,0-2.4-.2-3.5-.7-.9-.4-1.7-1-2.3-1.8s-.9-1.7-1-2.7h2.4c0,.7.3,1.3.7,1.8s1,.8,1.6,1c.7.2,1.4.3,2.1.3s1.6-.1,2.4-.4c.6-.3,1.2-.7,1.7-1.2.4-.5.6-1.2.6-1.8s-.2-1.1-.5-1.5c-.4-.4-.9-.8-1.4-1-.6-.3-1.2-.5-1.9-.6l-2.3-.7c-1.3-.3-2.5-.9-3.5-1.8-.9-.8-1.3-1.9-1.3-3.1s.3-2,.9-2.8c.6-.8,1.4-1.5,2.3-1.9,1-.5,2.2-.7,3.3-.7s2.2.2,3.3.6c.9.4,1.7,1,2.3,1.8.6.7.9,1.6.9,2.6l-2.6.2ZM227.9,290.6v-23.8h1.5v23.8h-1.5Z"/>
        <path class="cls-2" d="M239,288.2v-1.7l6.3-6.9c.7-.8,1.3-1.5,1.8-2.1.4-.5.8-1.1,1.1-1.7.2-.5.3-1.1.4-1.7,0-.6-.2-1.2-.5-1.7s-.8-.9-1.3-1.1c-.6-.3-1.2-.4-1.9-.4s-1.3.1-1.9.5c-.5.3-1,.7-1.2,1.3-.3.6-.5,1.2-.4,1.9h-2.2c0-1,.2-2,.8-2.9.5-.8,1.2-1.5,2.1-2,.9-.5,2-.7,3-.7s2.1.2,3,.7c.8.4,1.5,1.1,2,1.9s.7,1.7.7,2.7-.1,1.4-.4,2c-.3.8-.8,1.5-1.3,2.2-.8,1-1.6,2-2.6,3l-4.3,4.6h0c0,.1,8.8.1,8.8.1v2h-12Z"/>
        <path class="cls-2" d="M261.2,288.5c-1.1,0-2.2-.2-3.3-.6-.9-.4-1.7-1-2.3-1.8-.6-.8-.9-1.7-.9-2.6h2.3c0,.6.3,1.1.6,1.6.4.5.9.8,1.5,1,1.3.5,2.8.5,4.2-.1.6-.3,1.1-.7,1.5-1.2s.6-1.1.5-1.8c0-.7-.2-1.3-.5-1.9-.4-.6-.9-1-1.5-1.3-.8-.3-1.6-.5-2.5-.5h-1.5v-2h1.5c.7,0,1.4-.1,2-.4.5-.3,1-.6,1.3-1.1s.5-1.1.5-1.8-.1-1.2-.4-1.7-.7-.9-1.2-1.1c-.6-.3-1.2-.4-1.8-.4s-1.3.1-1.9.4c-.6.2-1,.6-1.4,1-.4.5-.6,1-.6,1.6h-2.2c0-.9.3-1.9.9-2.6.6-.8,1.3-1.4,2.2-1.8.9-.4,2-.6,3-.6s2.1.2,3,.7c.8.4,1.5,1.1,1.9,1.9s.7,1.6.7,2.5-.3,1.9-.8,2.7c-.6.8-1.4,1.3-2.3,1.6h0c1.1.2,2.1.8,2.8,1.6.7.9,1,1.9,1,3s-.3,2-.8,2.8c-.6.8-1.4,1.5-2.3,1.9-1,.7-2.1,1-3.2,1Z"/>
        <path class="cls-2" d="M277.5,269c.8,0,1.6.2,2.3.4.8.3,1.5.8,2.1,1.4.7.8,1.2,1.7,1.5,2.8.4,1.4.6,2.9.6,4.4s-.1,3-.5,4.5c-.3,1.2-.7,2.3-1.4,3.3-.6.8-1.3,1.5-2.2,2-.9.5-1.9.7-2.9.7s-2-.2-2.8-.6-1.5-1-2-1.8-.9-1.7-1-2.6h2.3c.2.8.6,1.6,1.2,2.1.7.6,1.5.9,2.4.9,1.4,0,2.7-.7,3.5-1.9.9-1.6,1.4-3.5,1.3-5.4h-.1c-.3.5-.8,1-1.2,1.4-.5.4-1,.7-1.6.9-.6.2-1.2.3-1.9.3-1.1,0-2.1-.3-3-.8s-1.7-1.3-2.2-2.2c-1.1-2-1.1-4.4,0-6.5.5-1,1.3-1.8,2.2-2.3,1.1-.8,2.2-1,3.4-1ZM277.5,271c-.7,0-1.5.2-2.1.6s-1.1.9-1.5,1.6c-.7,1.4-.7,3,0,4.3.3.6.8,1.2,1.4,1.5.6.4,1.4.6,2.1.6s1.1-.1,1.6-.3c.5-.2,1-.6,1.3-1,.4-.4.7-.9.9-1.4.5-1.2.4-2.6-.2-3.7-.4-.6-.9-1.2-1.5-1.6-.5-.4-1.3-.6-2-.6Z"/>
        <path class="cls-2" d="M288,288.2v-19h2.3v9.4h.2l8.5-9.4h3l-8,8.6,8,10.4h-2.8l-6.6-8.8-2.4,2.7v6.2h-2.2Z"/>
        <path class="cls-9" d="M220.4,187.9v-8.4h2.8c.6,0,1.1.1,1.6.3.4.2.7.5.9.9s.3.9.3,1.3-.1.9-.3,1.3c-.2.4-.5.7-.9.9-.5.2-1,.3-1.6.3h-2.3v-.9h2.2c.4,0,.7-.1,1.1-.2.3-.1.5-.3.6-.6s.2-.6.2-.9-.1-.6-.2-.9c-.1-.3-.3-.5-.6-.6-.3-.2-.7-.2-1.1-.2h-1.8v7.5h-.9v.2ZM224.3,184.2l2.1,3.8h-1.2l-2-3.8h1.1Z"/>
        <path class="cls-9" d="M227.7,187.9v-8.4h5v.9h-4v2.8h3.8v.9h-3.8v2.8h4.1v.9h-5.1Z"/>
        <path class="cls-9" d="M241.3,182.2h-1c-.1-.3-.2-.5-.3-.8-.1-.2-.3-.4-.5-.6-.2-.1-.5-.3-.7-.3-.3-.1-.5-.1-.8-.1-.5,0-1,.1-1.4.4-.4.3-.8.7-1,1.1-.5,1.2-.5,2.5,0,3.7.2.5.6.9,1,1.1.4.3.9.4,1.4.4s.5,0,.8-.1c.2-.1.5-.2.7-.3.2-.2.4-.3.5-.6.2-.2.3-.5.3-.8h1c-.1.4-.2.8-.4,1.1s-.4.6-.8.9c-.3.2-.6.4-1,.5s-.8.2-1.2.2c-.7,0-1.3-.2-1.9-.5-.6-.4-1-.9-1.3-1.5-.6-1.5-.6-3.1,0-4.6.3-.6.7-1.1,1.3-1.5.9-.6,2.1-.7,3.1-.3.4.1.7.3,1,.5s.6.5.8.9c.2.4.3.8.4,1.2Z"/>
        <path class="cls-9" d="M243.9,179.6v8.4h-1v-8.4h1Z"/>
        <path class="cls-9" d="M246,187.9v-8.4h2.8c.6,0,1.1.1,1.6.4.4.2.7.6.9,1,.4.8.4,1.8,0,2.7-.2.4-.5.8-.9,1-.5.2-1,.4-1.6.4h-2v-1h2c.4,0,.8-.1,1.1-.2.3-.1.5-.4.6-.6.1-.3.2-.6.2-.9s-.1-.6-.2-.9c-.1-.3-.3-.5-.6-.6-.3-.2-.7-.2-1.1-.2h-1.8v7.5l-1-.2Z"/>
        <path class="cls-9" d="M254.3,179.6v8.4h-1v-8.4h1Z"/>
        <path class="cls-9" d="M256.3,187.9v-8.4h5v.9h-4v2.8h3.8v.9h-3.8v2.8h4.1v.9h-5.1Z"/>
        <path class="cls-9" d="M269.8,179.6v8.4h-1l-4.6-6.6h-.1v6.6h-1v-8.4h1l4.6,6.6h.1v-6.6h1Z"/>
        <path class="cls-9" d="M271.4,180.5v-.9h6.3v.9h-2.7v7.5h-1v-7.5h-2.6Z"/>
        <path class="cls-1" d="M220.1,212.4h1.2l2.1,5.1h.1l2.1-5.1h1.2v6.5h-.9v-4.7h-.1l-1.9,4.7h-.9l-1.9-4.7h-.1v4.7h-.9v-6.5Z"/>
        <path class="cls-1" d="M229.5,219c-.3,0-.6-.1-.8-.2-.5-.2-.8-.8-.8-1.3s0-.5.1-.7.3-.3.4-.4c.2-.1.4-.2.6-.2.2-.1.5-.1.7-.1h.7c.1-.1.3-.1.4-.2q.1-.1.1-.2h0c0-.2-.1-.5-.2-.6-.2-.2-.4-.3-.7-.2-.3,0-.5.1-.8.2-.2.1-.3.3-.4.5l-.9-.2c.1-.3.2-.5.5-.7.2-.2.4-.3.7-.4.3-.1.6-.1.8-.1s.4,0,.6.1c.2,0,.4.1.6.2.2.1.4.3.5.5.1.3.2.6.2.9v3.3h-.8v-.7h0c-.1.1-.2.3-.3.4-.1.1-.3.2-.5.3-.2-.2-.5-.2-.7-.2ZM229.7,218.2c.2,0,.5-.1.7-.2.4-.2.6-.6.6-1v-.6q-.1.1-.2.1h-.3c0,.1-.4.2-.4.2h-.3c-.2,0-.3.1-.5.1-.1.1-.3.1-.4.2s-.1.3-.1.4c0,.2.1.4.3.5,0,.2.3.3.6.3h0Z"/>
        <path class="cls-1" d="M233.6,220.8h-.4c-.1,0-.2,0-.3-.1l.2-.8c.2,0,.3.1.5.1s.3-.1.4-.2.2-.3.3-.5v-.3c.1,0-1.7-5-1.7-5h1l1.2,3.8h.1l1.2-3.8h1l-2,5.6c-.1.2-.2.5-.4.6-.1.2-.3.3-.5.4-.1,0-.4.2-.6.2Z"/>
        <path class="cls-1" d="M243,212.4v6.5h-1v-5.6h0l-1.6,1v-.9l1.6-1.1h1Z"/>
        <path class="cls-1" d="M244.7,218.9v-.7l2.2-2.3c.2-.2.4-.5.6-.6.1-.2.3-.3.4-.5.1-.2.1-.4.1-.5,0-.2-.1-.4-.2-.6-.1-.2-.2-.3-.4-.4-.2-.1-.4-.1-.6-.1s-.4,0-.6.1c-.2.1-.3.2-.4.4-.1.2-.1.4-.1.6h-.9c0-.4.1-.7.3-1.1.2-.3.4-.5.8-.7.3-.2.7-.3,1.1-.2.4,0,.8.1,1.1.2.3.2.6.4.7.7.2.3.3.6.3,1s-.1.5-.1.7c-.1.3-.3.5-.5.8s-.5.6-.9,1l-1.3,1.4h0c0,.1,2.9.1,2.9.1v.8h-4.5Z"/>
        <path class="cls-1" d="M251.5,218v.4c-.1.3-.2.5-.3.8-.1.3-.1.5-.2.8s-.1.4-.2.6h-.7v-.5c.1-.2.2-.5.2-.8s.1-.6.1-.8v-.5h1.1Z"/>
        <path class="cls-1" d="M255.2,218.9v-.7l2.2-2.3c.2-.2.4-.5.6-.6.1-.2.3-.3.3-.5.1-.2.1-.4.1-.5,0-.2-.1-.4-.2-.6-.1-.2-.2-.3-.4-.4s-.4-.1-.6-.1-.4,0-.6.1-.3.2-.4.4-.1.4-.1.6h-.9c0-.4.1-.7.3-1.1.2-.3.4-.5.8-.7.3-.2.7-.3,1.1-.2.4,0,.8.1,1.1.2.3.2.6.4.7.7.2.3.3.6.3,1s-.1.5-.1.7c-.1.3-.3.5-.5.8-.3.4-.6.7-.9,1l-1.3,1.4h0c0,.1,2.9.1,2.9.1v.8h-4.4Z"/>
        <path class="cls-1" d="M263,219c-.5,0-.9-.1-1.3-.4-.4-.3-.7-.7-.8-1.1-.4-1.2-.4-2.5,0-3.6.2-.5.4-.9.8-1.1.8-.5,1.8-.5,2.6,0,.4.3.7.7.8,1.1.4,1.2.4,2.5,0,3.6-.2.5-.4.9-.8,1.2-.4.2-.8.3-1.3.3ZM263,218.1c.4,0,.8-.3,1-.6.3-.6.4-1.2.4-1.9s0-.9-.2-1.4c-.1-.3-.3-.6-.5-.9-.2-.2-.5-.3-.8-.3s-.8.3-1,.6c-.3.6-.4,1.2-.4,1.9s.1.9.2,1.4c.1.3.2.6.5.9.2.3.5.4.8.3h0Z"/>
        <path class="cls-1" d="M266.5,218.9v-.7l2.2-2.3c.2-.2.4-.5.6-.6.1-.2.3-.3.4-.5s.1-.4.1-.5c0-.2,0-.4-.1-.6-.1-.2-.2-.3-.4-.4s-.4-.1-.6-.1-.4,0-.6.1-.3.2-.4.4-.2.4-.1.6h-.9c0-.4.1-.7.3-1.1.2-.3.4-.5.8-.7.3-.2.7-.3,1.1-.2.4,0,.8.1,1.1.2.3.2.6.4.7.7.3.5.3,1.1.1,1.7-.1.3-.3.5-.5.8-.3.4-.6.7-.9,1l-1.3,1.4h0c0,.1,3,.1,3,.1v.8h-4.6Z"/>
        <path class="cls-1" d="M274.4,219c-.4,0-.8-.1-1.2-.2-.3-.1-.6-.4-.8-.6-.2-.3-.3-.6-.3-.9h1c0,.2.1.4.2.5s.3.3.5.3c.4.2.9.2,1.3,0s.3-.2.5-.4c.1-.2.2-.4.2-.6s0-.4-.2-.6c-.1-.2-.3-.3-.5-.4-.2-.1-.5-.1-.8-.1h-.5v-.8h.5c.2,0,.4,0,.6-.1s.3-.2.4-.4.2-.4.2-.6c0-.4-.2-.7-.5-.9-.2-.1-.4-.1-.6-.1s-.4,0-.6.1-.3.2-.5.3c-.1.2-.2.3-.2.5h-1c0-.3.1-.7.3-.9.2-.3.5-.5.8-.6.3-.2.7-.2,1.1-.2s.8.1,1.1.2c.3.2.5.4.7.6.2.3.3.6.2.9,0,.3-.1.7-.3.9-.2.3-.5.4-.8.5h0c.4,0,.7.2,1,.5.2.3.4.6.4,1s-.1.7-.3,1c-.2.3-.5.5-.8.7-.4.3-.8.4-1.1.4Z"/>
        <path class="cls-9" d="M63.1,182.2h-1c0-.3-.2-.5-.3-.8,0-.2-.3-.4-.5-.6-.2-.1-.5-.3-.7-.3-.3-.1-.5-.1-.8-.1-.5,0-1,.1-1.4.4-.4.3-.8.7-1,1.1-.5,1.2-.5,2.5,0,3.7.2.5.6.9,1,1.1.4.3.9.4,1.4.4s.5,0,.8-.1c.2-.1.5-.2.7-.3.2-.2.4-.3.5-.6,0-.2.3-.5.3-.8h1c0,.4-.2.8-.4,1.1s-.4.6-.8.9c-.3.2-.6.4-1,.5s-.8.2-1.2.2c-1.4,0-2.6-.8-3.2-2-.6-1.5-.6-3.1,0-4.6.3-.6.7-1.1,1.3-1.5s1.2-.5,1.9-.5.8.1,1.2.2c.4.1.7.3,1,.5s.6.5.8.9c.2.4.3.8.4,1.2Z"/>
        <path class="cls-9" d="M64.7,187.9v-8.4h1v3.7h4.5v-3.7h1v8.4h-1v-3.7h-4.4v3.7h-1.1Z"/>
        <path class="cls-9" d="M73.2,187.9v-8.4h5v.9h-4v2.8h3.8v.9h-3.8v2.8h4.1v.9h-5.1Z"/>
        <path class="cls-9" d="M86.8,182.2h-1c0-.3-.2-.5-.3-.8-.3-.4-.7-.8-1.2-.9-.3-.1-.5-.1-.8-.1-.5,0-1,.1-1.4.4-.4.3-.8.7-1,1.1-.5,1.2-.5,2.5,0,3.7.2.5.6.9,1,1.1.4.3.9.4,1.4.4s.5,0,.8-.1.5-.2.7-.3c.2-.2.4-.3.5-.6.2-.2.3-.5.3-.8h1c0,.4-.2.8-.4,1.1-.2.3-.4.6-.8.9-.3.2-.6.4-1,.5s-.8.2-1.2.2c-.7,0-1.3-.2-1.9-.5-.6-.4-1-.9-1.3-1.5-.6-1.5-.6-3.1,0-4.6.3-.6.8-1.1,1.3-1.4.6-.4,1.2-.5,1.9-.5s.8.1,1.2.2c.4.1.7.3,1,.5s.6.5.8.9c.2.3.3.7.4,1.1Z"/>
        <path class="cls-9" d="M88.4,187.9v-8.4h1v4.1h0l3.8-4.1h1.3l-3.5,3.8,3.5,4.6h-1.2l-2.9-3.9-1,1.2v2.7h-1.1Z"/>
        <path class="cls-9" d="M96.9,179.6v8.4h-1v-8.4h1Z"/>
        <path class="cls-9" d="M105.6,179.6v8.4h-1l-4.6-6.6h0v6.6h-1v-8.4h1l4.6,6.6h0v-6.6h.9Z"/>
        <path class="cls-9" d="M113.3,182.2c0-.3-.2-.5-.3-.7,0-.2-.3-.4-.5-.6-.2-.2-.4-.3-.7-.4-.3-.1-.5-.1-.8-.1-.5,0-.9.1-1.3.4-.4.3-.8.7-1,1.1-.5,1.2-.5,2.5,0,3.7.4.9,1.4,1.5,2.4,1.5s.9-.1,1.3-.3.7-.5.9-.9c.2-.4.3-.9.3-1.3h.3c0,.1-2.5.1-2.5.1v-.9h3.2v.9c0,.6,0,1.3-.4,1.8s-.7.9-1.2,1.2-1.1.4-1.8.4-1.4-.2-2-.5c-.6-.4-1-.9-1.3-1.5-.3-.7-.5-1.5-.5-2.3s0-1.2.3-1.8c.2-.5.4-1,.8-1.4.3-.4.7-.7,1.2-.9s1-.3,1.5-.3.8.1,1.2.2c.4.1.7.3,1,.6.3.2.6.5.8.9.2.3.3.7.4,1.1h-1.3Z"/>
        <path class="cls-6" d="M38.5,236.1s12-4.6,20,5.4,31-14,31-14c0,0,12-20,26-3s35-6,35-6c0,0,22-26.3,34-3.7"/>
        <path d="M166.3,288.4h-18.7c-.4,0-.8-.3-.8-.8s.3-.8.8-.8h18.7c.4,0,.8.3.8.8s-.4.8-.8.8ZM165,284.4c-.4,0-.7-.3-.8-.8v-6.6c0-.4.3-.8.8-.8s.8.3.8.8v6.7c-.1.4-.4.7-.8.7ZM159.7,284.4c-.4,0-.8-.3-.8-.8v-6.6c0-.4.3-.8.8-.8s.8.3.8.8v6.7c-.1.4-.4.7-.8.7ZM154.3,284.4c-.4,0-.7-.3-.8-.8v-6.6c0-.4.3-.8.8-.8s.8.3.8.8v6.7c0,.4-.4.7-.8.7ZM149,284.4c-.4,0-.7-.3-.8-.8v-6.6c0-.4.3-.8.8-.8s.8.3.8.8v6.7c-.1.4-.4.7-.8.7ZM169,274.4c-.1,0-.3,0-.4-.1l-11.6-7.1-11.6,7.1c-.3.2-.8.1-1-.2-.2-.3-.1-.8.2-1l12-7.3c.2-.1.5-.1.8,0l12,7.3c.3.2.4.7.2,1,0,.2-.3.3-.6.3ZM159.7,273.8h-5.3c-.4,0-.8-.3-.8-.8s.3-.8.8-.8h5.3c.4,0,.8.3.8.8s-.4.8-.8.8Z"/>
      </g>
    </g>
  </g>
</svg>