<?xml version="1.0" encoding="UTF-8"?>
<svg xmlns="http://www.w3.org/2000/svg" version="1.1" viewBox="0 0 250 250">
  <defs>
    <style>
      .cls-1 {
        fill: #0b1028;
      }

      .cls-2 {
        fill: #00dc82;
      }
    </style>
  </defs>
  <!-- Generator: Adobe Illustrator 28.7.5, SVG Export Plug-In . SVG Version: 1.2.0 Build 176)  -->
  <g>
    <g id="Layer_1">
      <rect class="cls-1" width="250" height="250"/>
      <path class="cls-2" d="M135.9,183.3h66.5c2.1,0,4.2-.5,6-1.6,1.8-1,3.3-2.5,4.4-4.3,1.1-1.8,1.6-3.8,1.6-5.8,0-2-.6-4.1-1.6-5.8l-44.6-75c-1.1-1.8-2.6-3.3-4.4-4.3-1.8-1-3.9-1.6-6-1.6-2.1,0-4.2.5-6,1.6-1.8,1-3.3,2.5-4.4,4.3l-11.4,19.2-22.3-37.5c-1.1-1.8-2.6-3.3-4.4-4.3-1.8-1-3.9-1.6-6-1.6-2.1,0-4.2.5-6,1.6-1.8,1-3.3,2.5-4.4,4.3l-55.5,93.3c-1.1,1.8-1.6,3.8-1.6,5.8,0,2,.6,4.1,1.6,5.8,1.1,1.8,2.6,3.3,4.4,4.3,1.8,1,3.9,1.6,6,1.6h41.7c16.5,0,28.7-7,37.1-20.8l20.4-34.2,10.9-18.3,32.7,55h-43.6l-10.9,18.3ZM88.7,165h-29.1s43.6-73.3,43.6-73.3l21.8,36.7-14.6,24.5c-5.6,8.9-11.9,12.2-21.7,12.2"/>
    </g>
  </g>
</svg>